{"glyphs":{"0":{"ha":796,"x_min":0,"x_max":0,"o":"m 397 951 b 63 467 178 951 63 778 b 397 -21 63 154 178 -21 b 732 467 618 -21 732 154 b 397 951 732 778 618 951 z m 397 817 b 549 467 500 817 549 729 b 397 114 549 203 500 114 b 246 467 294 114 246 206 b 397 817 246 725 294 817 z "},"1":{"ha":625,"x_min":0,"x_max":0,"o":"m 493 935 l 336 935 l 32 749 l 110 629 l 318 756 l 318 0 l 493 0 z "},"2":{"ha":704,"x_min":0,"x_max":0,"o":"m 324 951 b 21 799 194 951 96 896 l 131 713 b 310 811 188 781 236 811 b 444 675 390 811 444 761 b 47 131 444 543 367 456 l 47 0 l 629 0 l 649 140 l 249 140 b 628 689 538 415 628 531 b 324 951 628 835 517 951 z "},"3":{"ha":708,"x_min":0,"x_max":0,"o":"m 322 951 b 29 832 210 951 113 911 l 119 733 b 307 815 178 789 235 815 b 444 693 390 815 444 769 b 294 551 444 601 382 551 l 244 551 l 224 425 l 297 425 b 465 275 403 425 465 386 b 300 118 465 178 400 118 b 106 208 226 118 168 146 l 7 114 b 310 -21 79 26 182 -21 b 649 267 524 -21 649 107 b 436 494 649 411 553 483 b 618 714 546 524 618 597 b 322 951 618 843 515 951 z "},"4":{"ha":764,"x_min":0,"x_max":0,"o":"m 729 350 l 617 350 l 617 585 l 463 585 l 444 350 l 231 350 l 469 896 l 318 953 l 46 336 l 46 214 l 443 214 l 443 0 l 617 0 l 617 214 l 729 214 z "},"5":{"ha":722,"x_min":0,"x_max":0,"o":"m 631 935 l 89 935 l 89 446 l 215 446 b 336 478 258 468 293 478 b 486 304 422 478 486 433 b 317 117 486 183 421 117 b 129 207 239 117 179 149 l 26 111 b 321 -21 99 32 190 -21 b 669 304 532 -21 669 113 b 401 606 669 494 557 606 b 260 571 356 606 307 594 l 260 803 l 610 803 z "},"6":{"ha":764,"x_min":0,"x_max":0,"o":"m 456 622 b 246 519 378 622 306 592 b 449 819 256 707 329 819 b 583 782 499 819 543 806 l 650 892 b 446 951 596 928 528 951 b 63 432 208 951 63 744 b 400 -21 63 164 161 -21 b 719 318 589 -21 719 122 b 456 622 719 517 601 622 z m 400 111 b 247 396 293 111 250 196 b 413 493 290 456 347 493 b 540 315 492 493 540 449 b 400 111 540 193 494 111 z "},"7":{"ha":635,"x_min":0,"x_max":0,"o":"m 603 935 l 25 935 l 25 797 l 419 797 l 94 35 l 257 -18 l 603 810 z "},"8":{"ha":788,"x_min":0,"x_max":0,"o":"m 546 501 b 700 713 651 556 700 626 b 394 951 700 868 560 951 b 89 706 228 951 89 858 b 229 485 89 615 129 540 b 51 249 118 438 51 364 b 390 -21 51 97 181 -21 b 738 251 603 -21 738 99 b 546 501 738 363 674 444 z m 394 826 b 528 704 482 826 528 778 b 429 546 528 638 501 592 l 401 556 b 261 703 311 589 261 624 b 394 826 261 785 314 826 z m 394 111 b 231 254 294 111 231 165 b 344 438 231 339 268 399 l 386 424 b 557 251 511 378 557 339 b 394 111 557 171 499 111 z "},"9":{"ha":756,"x_min":0,"x_max":0,"o":"m 374 951 b 49 635 193 951 49 831 b 311 331 49 446 167 331 b 511 429 403 331 468 372 b 119 92 488 244 354 153 l 157 -35 b 701 589 532 54 701 204 b 374 951 701 804 590 951 z m 360 460 b 226 638 285 460 226 510 b 374 819 226 757 283 819 b 519 557 478 819 522 749 b 360 460 479 496 425 460 z "}," ":{"ha":347,"x_min":0,"x_max":0,"o":""},"A":{"ha":810,"x_min":0,"x_max":0,"o":"m 621 0 l 815 0 l 518 960 l 292 960 l -7 0 l 183 0 l 243 222 l 561 222 z m 279 361 l 401 819 l 525 361 z "},"Á":{"ha":810,"x_min":0,"x_max":0,"o":"m 588 1161 l 517 1300 l 224 1138 l 269 1046 z m 621 0 l 815 0 l 518 960 l 292 960 l -7 0 l 183 0 l 243 222 l 561 222 z m 279 361 l 401 819 l 525 361 z "},"Ă":{"ha":810,"x_min":0,"x_max":0,"o":"m 404 1047 b 632 1247 535 1047 621 1136 l 526 1268 b 404 1175 510 1214 468 1175 b 283 1268 340 1175 301 1214 l 179 1247 b 404 1047 190 1136 274 1047 z m 621 0 l 815 0 l 518 960 l 292 960 l -7 0 l 183 0 l 243 222 l 561 222 z m 279 361 l 401 819 l 525 361 z "},"Ắ":{"ha":810,"x_min":0,"x_max":0,"o":"m 614 1418 l 513 1515 l 339 1294 l 408 1232 z m 404 1025 b 632 1225 535 1025 621 1114 l 526 1246 b 404 1153 510 1192 468 1153 b 283 1246 340 1153 301 1192 l 179 1225 b 404 1025 190 1114 274 1025 z m 621 0 l 815 0 l 518 960 l 292 960 l -7 0 l 183 0 l 243 222 l 561 222 z m 279 361 l 401 819 l 525 361 z "},"Ặ":{"ha":810,"x_min":0,"x_max":0,"o":"m 404 1047 b 632 1247 535 1047 621 1136 l 526 1268 b 404 1175 510 1214 468 1175 b 283 1268 340 1175 301 1214 l 179 1247 b 404 1047 190 1136 274 1047 z m 815 0 l 518 960 l 292 960 l -7 0 l 183 0 l 243 222 l 561 222 l 621 0 z m 279 361 l 401 819 l 525 361 z m 406 -92 b 293 -199 339 -92 293 -139 b 406 -307 293 -260 339 -307 b 517 -199 471 -307 517 -260 b 406 -92 517 -139 471 -92 z "},"Ằ":{"ha":810,"x_min":0,"x_max":0,"o":"m 475 1294 l 300 1515 l 200 1418 l 406 1232 z m 404 1025 b 632 1225 535 1025 621 1114 l 526 1246 b 404 1153 510 1192 468 1153 b 283 1246 340 1153 301 1192 l 179 1225 b 404 1025 190 1114 274 1025 z m 621 0 l 815 0 l 518 960 l 292 960 l -7 0 l 183 0 l 243 222 l 561 222 z m 279 361 l 401 819 l 525 361 z "},"Ẳ":{"ha":810,"x_min":0,"x_max":0,"o":"m 388 1444 b 446 1399 422 1444 446 1429 b 347 1342 446 1358 413 1349 l 347 1221 l 461 1221 l 461 1283 b 576 1408 533 1296 576 1338 b 414 1543 576 1489 519 1543 b 272 1508 353 1543 308 1529 l 306 1425 b 388 1444 332 1438 356 1444 z m 404 1025 b 632 1225 535 1025 621 1114 l 526 1246 b 404 1153 510 1192 468 1153 b 283 1246 340 1153 301 1192 l 179 1225 b 404 1025 190 1114 274 1025 z m 621 0 l 815 0 l 518 960 l 292 960 l -7 0 l 183 0 l 243 222 l 561 222 z m 279 361 l 401 819 l 525 361 z "},"Ẵ":{"ha":810,"x_min":0,"x_max":0,"o":"m 331 1344 b 490 1283 378 1344 413 1283 b 657 1421 563 1283 621 1338 l 563 1467 b 489 1407 538 1426 518 1407 b 328 1469 440 1407 410 1469 b 161 1329 250 1469 194 1407 l 257 1285 b 331 1344 279 1324 297 1344 z m 404 1153 b 283 1246 340 1153 301 1192 l 179 1225 b 404 1025 190 1114 274 1025 b 632 1225 535 1025 621 1114 l 526 1246 b 404 1153 510 1192 468 1153 z m 621 0 l 815 0 l 518 960 l 292 960 l -7 0 l 183 0 l 243 222 l 561 222 z m 279 361 l 401 819 l 525 361 z "},"Ǎ":{"ha":810,"x_min":0,"x_max":0,"o":"m 461 1044 l 654 1211 l 586 1289 l 406 1174 l 225 1289 l 157 1211 l 350 1044 z m 621 0 l 815 0 l 518 960 l 292 960 l -7 0 l 183 0 l 243 222 l 561 222 z m 279 361 l 401 819 l 525 361 z "},"Â":{"ha":810,"x_min":0,"x_max":0,"o":"m 404 1165 l 585 1051 l 653 1128 l 460 1296 l 349 1296 l 156 1128 l 224 1051 z m 621 0 l 815 0 l 518 960 l 292 960 l -7 0 l 183 0 l 243 222 l 561 222 z m 279 361 l 401 819 l 525 361 z "},"Ấ":{"ha":810,"x_min":0,"x_max":0,"o":"m 815 1374 l 714 1471 l 540 1250 l 610 1188 z m 404 1113 l 585 999 l 653 1075 l 460 1243 l 349 1243 l 156 1075 l 224 999 z m 621 0 l 815 0 l 518 960 l 292 960 l -7 0 l 183 0 l 243 222 l 561 222 z m 279 361 l 401 819 l 525 361 z "},"Ậ":{"ha":810,"x_min":0,"x_max":0,"o":"m 404 1165 l 585 1051 l 653 1128 l 460 1296 l 349 1296 l 156 1128 l 224 1051 z m 815 0 l 518 960 l 292 960 l -7 0 l 183 0 l 243 222 l 561 222 l 621 0 z m 279 361 l 401 819 l 525 361 z m 406 -92 b 293 -199 339 -92 293 -139 b 406 -307 293 -260 339 -307 b 517 -199 471 -307 517 -260 b 406 -92 517 -139 471 -92 z "},"Ầ":{"ha":810,"x_min":0,"x_max":0,"o":"m 268 1250 l 93 1471 l -7 1374 l 199 1188 z m 222 999 l 403 1113 l 583 999 l 651 1075 l 458 1243 l 347 1243 l 154 1075 z m 621 0 l 815 0 l 518 960 l 292 960 l -7 0 l 183 0 l 243 222 l 561 222 z m 279 361 l 401 819 l 525 361 z "},"Ẩ":{"ha":810,"x_min":0,"x_max":0,"o":"m 611 1388 b 669 1342 646 1388 669 1372 b 571 1285 669 1301 636 1292 l 571 1164 l 685 1164 l 685 1226 b 800 1351 757 1239 800 1281 b 638 1486 800 1432 743 1486 b 496 1451 576 1486 532 1472 l 529 1368 b 611 1388 556 1381 579 1388 z m 403 1113 l 583 999 l 651 1075 l 458 1243 l 347 1243 l 154 1075 l 222 999 z m 621 0 l 815 0 l 518 960 l 292 960 l -7 0 l 183 0 l 243 222 l 561 222 z m 279 361 l 401 819 l 525 361 z "},"Ẫ":{"ha":810,"x_min":0,"x_max":0,"o":"m 324 1343 b 483 1282 371 1343 406 1282 b 650 1419 556 1282 614 1336 l 556 1465 b 482 1406 531 1425 511 1406 b 321 1468 433 1406 403 1468 b 154 1328 243 1468 188 1406 l 250 1283 b 324 1343 272 1322 290 1343 z m 401 1113 l 582 999 l 650 1075 l 457 1243 l 346 1243 l 153 1075 l 221 999 z m 621 0 l 815 0 l 518 960 l 292 960 l -7 0 l 183 0 l 243 222 l 561 222 z m 279 361 l 401 819 l 525 361 z "},"Ȁ":{"ha":810,"x_min":0,"x_max":0,"o":"m 369 1143 l 242 1401 l 113 1335 l 272 1099 z m 586 1147 l 471 1401 l 340 1338 l 486 1106 z m 621 0 l 815 0 l 518 960 l 292 960 l -7 0 l 183 0 l 243 222 l 561 222 z m 279 361 l 401 819 l 525 361 z "},"Ä":{"ha":810,"x_min":0,"x_max":0,"o":"m 250 1074 b 347 1169 306 1074 347 1115 b 250 1265 347 1224 306 1265 b 153 1169 196 1265 153 1224 b 250 1074 153 1115 196 1074 z m 557 1074 b 656 1169 614 1074 656 1115 b 557 1265 656 1224 614 1265 b 461 1169 504 1265 461 1224 b 557 1074 461 1115 504 1074 z m 621 0 l 815 0 l 518 960 l 292 960 l -7 0 l 183 0 l 243 222 l 561 222 z m 279 361 l 401 819 l 525 361 z "},"Ǟ":{"ha":810,"x_min":0,"x_max":0,"o":"m 611 1410 l 207 1410 l 207 1283 l 611 1283 z m 251 1036 b 349 1132 307 1036 349 1078 b 251 1228 349 1186 307 1228 b 154 1132 197 1228 154 1186 b 251 1036 154 1078 197 1036 z m 463 1132 b 558 1036 463 1078 506 1036 b 657 1132 615 1036 657 1078 b 558 1228 657 1186 615 1228 b 463 1132 506 1228 463 1186 z m 621 0 l 815 0 l 518 960 l 292 960 l -7 0 l 183 0 l 243 222 l 561 222 z m 279 361 l 401 819 l 525 361 z "},"Ȧ":{"ha":810,"x_min":0,"x_max":0,"o":"m 404 1067 b 517 1174 471 1067 517 1114 b 404 1282 517 1235 471 1282 b 293 1174 339 1282 293 1235 b 404 1067 293 1114 339 1067 z m 621 0 l 815 0 l 518 960 l 292 960 l -7 0 l 183 0 l 243 222 l 561 222 z m 279 361 l 401 819 l 525 361 z "},"Ạ":{"ha":810,"x_min":0,"x_max":0,"o":"m 815 0 l 518 960 l 292 960 l -7 0 l 183 0 l 243 222 l 561 222 l 621 0 z m 279 361 l 401 819 l 525 361 z m 406 -92 b 293 -199 339 -92 293 -139 b 406 -307 293 -260 339 -307 b 517 -199 471 -307 517 -260 b 406 -92 517 -139 471 -92 z "},"Ǡ":{"ha":810,"x_min":0,"x_max":0,"o":"m 611 1410 l 207 1410 l 207 1283 l 611 1283 z m 294 1132 b 406 1025 294 1072 340 1025 b 518 1132 472 1025 518 1072 b 406 1240 518 1193 472 1240 b 294 1132 340 1240 294 1193 z m 621 0 l 815 0 l 518 960 l 292 960 l -7 0 l 183 0 l 243 222 l 561 222 z m 279 361 l 401 819 l 525 361 z "},"À":{"ha":810,"x_min":0,"x_max":0,"o":"m 578 1138 l 285 1300 l 214 1161 l 532 1046 z m 621 0 l 815 0 l 518 960 l 292 960 l -7 0 l 183 0 l 243 222 l 561 222 z m 279 361 l 401 819 l 525 361 z "},"Ả":{"ha":810,"x_min":0,"x_max":0,"o":"m 385 1283 b 443 1238 419 1283 443 1268 b 344 1181 443 1197 410 1188 l 344 1060 l 458 1060 l 458 1122 b 574 1247 531 1135 574 1176 b 411 1382 574 1328 517 1382 b 269 1347 350 1382 306 1368 l 303 1264 b 385 1283 329 1276 353 1283 z m 621 0 l 815 0 l 518 960 l 292 960 l -7 0 l 183 0 l 243 222 l 561 222 z m 279 361 l 401 819 l 525 361 z "},"Ȃ":{"ha":810,"x_min":0,"x_max":0,"o":"m 404 1175 b 526 1068 468 1175 510 1136 l 632 1088 b 404 1303 621 1213 535 1303 b 179 1088 274 1303 190 1213 l 283 1068 b 404 1175 301 1136 340 1175 z m 621 0 l 815 0 l 518 960 l 292 960 l -7 0 l 183 0 l 243 222 l 561 222 z m 279 361 l 401 819 l 525 361 z "},"Ɑ":{"ha":957,"x_min":0,"x_max":0,"o":"m 836 225 l 836 960 l 678 960 l 664 885 b 443 981 611 940 539 981 b 60 451 226 981 60 792 b 436 -21 60 146 222 -21 b 672 94 544 -21 618 26 b 842 -21 699 31 750 -1 l 899 113 b 836 225 853 135 836 157 z m 467 118 b 253 451 343 118 253 206 b 475 840 253 733 339 840 b 653 757 554 840 610 807 l 653 204 b 467 118 603 149 544 118 z "},"Ā":{"ha":810,"x_min":0,"x_max":0,"o":"m 607 1219 l 203 1219 l 203 1093 l 607 1093 z m 621 0 l 815 0 l 518 960 l 292 960 l -7 0 l 183 0 l 243 222 l 561 222 z m 279 361 l 401 819 l 525 361 z "},"Ą":{"ha":810,"x_min":0,"x_max":0,"o":"m 726 0 l 815 0 l 518 960 l 292 960 l -7 0 l 183 0 l 243 222 l 561 222 l 613 31 b 422 -181 490 -18 422 -85 b 613 -332 422 -271 500 -332 b 706 -322 650 -332 676 -328 l 719 -204 b 635 -214 688 -211 663 -214 b 560 -150 582 -214 560 -192 b 726 0 560 -106 588 -56 z m 279 361 l 401 819 l 525 361 z "},"Å":{"ha":810,"x_min":0,"x_max":0,"o":"m 406 1026 b 582 1193 513 1026 582 1103 b 406 1360 582 1285 513 1360 b 228 1193 297 1360 228 1285 b 406 1026 228 1103 297 1026 z m 406 1267 b 472 1193 446 1267 472 1240 b 406 1121 472 1146 446 1121 b 338 1193 364 1121 338 1146 b 406 1267 338 1240 364 1267 z m 621 0 l 815 0 l 518 960 l 292 960 l -7 0 l 183 0 l 243 222 l 561 222 z m 279 361 l 401 819 l 525 361 z "},"Ǻ":{"ha":810,"x_min":0,"x_max":0,"o":"m 590 1461 l 519 1600 l 226 1438 l 272 1346 z m 228 1172 b 406 1006 228 1082 297 1006 b 582 1172 513 1006 582 1082 b 406 1339 582 1264 513 1339 b 228 1172 297 1339 228 1264 z m 472 1172 b 406 1100 472 1125 446 1100 b 338 1172 364 1100 338 1125 b 406 1246 338 1219 364 1246 b 472 1172 446 1246 472 1219 z m 621 0 l 815 0 l 518 960 l 292 960 l -7 0 l 183 0 l 243 222 l 561 222 z m 279 361 l 401 819 l 525 361 z "},"Ⱥ":{"ha":810,"x_min":0,"x_max":0,"o":"m 633 0 l 815 0 l 558 832 l 611 1029 l 539 1046 l 515 960 l 292 960 l -7 0 l 171 0 l 232 222 l 319 222 l 239 -83 l 311 -100 l 397 222 l 572 222 z m 268 353 l 401 839 l 443 688 l 354 353 z m 432 353 l 482 546 l 536 353 z "},"Ã":{"ha":810,"x_min":0,"x_max":0,"o":"m 326 1135 b 486 1069 374 1135 408 1069 b 653 1213 558 1069 617 1126 l 558 1260 b 485 1200 533 1219 514 1200 b 324 1264 436 1200 406 1264 b 157 1119 246 1264 190 1199 l 253 1072 b 326 1135 275 1113 293 1135 z m 621 0 l 815 0 l 518 960 l 292 960 l -7 0 l 183 0 l 243 222 l 561 222 z m 279 361 l 401 819 l 525 361 z "},"Æ":{"ha":1156,"x_min":0,"x_max":0,"o":"m 778 138 l 715 418 l 1031 418 l 1031 554 l 683 554 l 622 824 l 1022 824 l 1043 960 l 354 960 l -25 0 l 169 0 l 249 222 l 581 222 l 626 0 l 1097 0 l 1097 138 z m 297 361 l 461 821 l 553 361 z "},"Ǽ":{"ha":1156,"x_min":0,"x_max":0,"o":"m 847 1161 l 776 1300 l 483 1138 l 529 1046 z m 778 138 l 715 418 l 1031 418 l 1031 554 l 683 554 l 622 824 l 1022 824 l 1043 960 l 354 960 l -25 0 l 169 0 l 249 222 l 581 222 l 626 0 l 1097 0 l 1097 138 z m 297 361 l 461 821 l 553 361 z "},"Ǣ":{"ha":1156,"x_min":0,"x_max":0,"o":"m 867 1219 l 463 1219 l 463 1093 l 867 1093 z m 778 138 l 715 418 l 1031 418 l 1031 554 l 683 554 l 622 824 l 1022 824 l 1043 960 l 354 960 l -25 0 l 169 0 l 249 222 l 581 222 l 626 0 l 1097 0 l 1097 138 z m 297 361 l 461 821 l 553 361 z "},"B":{"ha":851,"x_min":0,"x_max":0,"o":"m 583 508 b 761 715 675 528 761 596 b 364 960 761 890 611 960 l 113 960 l 113 0 l 401 0 b 803 276 635 0 803 65 b 583 508 803 436 693 488 z m 382 825 b 574 700 507 825 574 797 b 408 565 574 610 508 565 l 296 565 l 296 825 z m 403 138 l 296 138 l 296 438 l 422 438 b 611 283 529 438 611 399 b 403 138 611 163 524 138 z "},"Ḃ":{"ha":851,"x_min":0,"x_max":0,"o":"m 413 1067 b 525 1174 479 1067 525 1114 b 413 1282 525 1235 479 1282 b 301 1174 347 1282 301 1235 b 413 1067 301 1114 347 1067 z m 583 508 b 761 715 675 528 761 596 b 364 960 761 890 611 960 l 113 960 l 113 0 l 401 0 b 803 276 635 0 803 65 b 583 508 803 436 693 488 z m 382 825 b 574 700 507 825 574 797 b 408 565 574 610 508 565 l 296 565 l 296 825 z m 403 138 l 296 138 l 296 438 l 422 438 b 611 283 529 438 611 399 b 403 138 611 163 524 138 z "},"Ḅ":{"ha":851,"x_min":0,"x_max":0,"o":"m 583 508 b 761 715 675 528 761 596 b 364 960 761 890 611 960 l 113 960 l 113 0 l 401 0 b 803 276 635 0 803 65 b 583 508 803 436 693 488 z m 382 825 b 574 700 507 825 574 797 b 408 565 574 610 508 565 l 296 565 l 296 825 z m 403 138 l 296 138 l 296 438 l 422 438 b 611 283 529 438 611 399 b 403 138 611 163 524 138 z m 431 -92 b 318 -199 364 -92 318 -139 b 431 -307 318 -260 364 -307 b 542 -199 496 -307 542 -260 b 431 -92 542 -139 496 -92 z "},"Ɓ":{"ha":1011,"x_min":0,"x_max":0,"o":"m 743 508 b 921 715 835 528 921 596 b 524 960 921 890 771 960 l 274 960 l 240 960 b 10 769 94 960 10 885 b 68 611 10 706 39 656 l 185 665 b 161 761 171 700 161 728 b 231 824 161 801 183 824 l 272 824 l 272 0 l 561 0 b 963 276 794 0 963 65 b 743 508 963 436 853 488 z m 542 825 b 733 700 667 825 733 797 b 568 565 733 610 668 565 l 456 565 l 456 825 z m 563 138 l 456 138 l 456 438 l 582 438 b 771 283 689 438 771 399 b 563 138 771 163 683 138 z "},"Ƀ":{"ha":869,"x_min":0,"x_max":0,"o":"m 603 508 b 781 715 693 528 781 596 b 382 960 781 890 631 960 l 131 960 l 131 344 l 24 344 l 24 239 l 131 239 l 131 0 l 419 0 b 821 276 653 0 821 65 b 603 508 821 436 711 488 z m 400 825 b 593 700 525 825 593 797 b 426 565 593 610 528 565 l 315 565 l 315 825 z m 421 138 l 315 138 l 315 239 l 501 239 l 501 344 l 315 344 l 315 438 l 442 438 b 629 283 547 438 629 399 b 421 138 629 163 542 138 z "},"Ƃ":{"ha":817,"x_min":0,"x_max":0,"o":"m 410 610 l 296 610 l 296 817 l 657 817 l 676 960 l 113 960 l 113 0 l 410 0 b 785 313 628 0 785 93 b 410 610 785 513 643 610 z m 404 138 l 296 138 l 296 476 l 400 476 b 592 310 525 476 592 426 b 404 138 592 179 517 138 z "},"C":{"ha":789,"x_min":0,"x_max":0,"o":"m 476 981 b 60 482 243 981 60 804 b 482 -21 60 156 233 -21 b 771 96 613 -21 713 36 l 685 207 b 490 126 629 165 572 126 b 253 482 353 126 253 229 b 488 839 253 742 356 839 b 665 769 554 839 611 815 l 760 879 b 476 981 682 944 603 981 z "},"Ć":{"ha":789,"x_min":0,"x_max":0,"o":"m 599 1300 l 306 1138 l 351 1046 l 669 1161 z m 476 981 b 60 482 243 981 60 804 b 482 -21 60 156 233 -21 b 771 96 613 -21 713 36 l 685 207 b 490 126 629 165 572 126 b 253 482 353 126 253 229 b 488 839 253 742 356 839 b 665 769 554 839 611 815 l 760 879 b 476 981 682 944 603 981 z "},"Č":{"ha":789,"x_min":0,"x_max":0,"o":"m 668 1289 l 488 1174 l 307 1289 l 239 1211 l 432 1044 l 543 1044 l 736 1211 z m 476 981 b 60 482 243 981 60 804 b 482 -21 60 156 233 -21 b 771 96 613 -21 713 36 l 685 207 b 490 126 629 165 572 126 b 253 482 353 126 253 229 b 488 839 253 742 356 839 b 665 769 554 839 611 815 l 760 879 b 476 981 682 944 603 981 z "},"Ç":{"ha":789,"x_min":0,"x_max":0,"o":"m 771 96 l 685 207 b 490 126 629 165 572 126 b 253 482 353 126 253 229 b 488 839 253 742 356 839 b 665 769 554 839 611 815 l 760 879 b 476 981 682 944 603 981 b 60 482 243 981 60 804 b 421 -17 60 182 204 10 l 404 -147 b 531 -200 493 -147 531 -164 b 463 -247 531 -235 501 -247 b 375 -225 428 -247 401 -239 l 332 -312 b 475 -351 364 -335 415 -351 b 665 -200 586 -351 665 -293 b 528 -72 665 -133 625 -82 l 528 -18 b 771 96 636 -7 719 43 z "},"Ĉ":{"ha":789,"x_min":0,"x_max":0,"o":"m 667 1051 l 735 1128 l 542 1296 l 431 1296 l 238 1128 l 306 1051 l 486 1165 z m 476 981 b 60 482 243 981 60 804 b 482 -21 60 156 233 -21 b 771 96 613 -21 713 36 l 685 207 b 490 126 629 165 572 126 b 253 482 353 126 253 229 b 488 839 253 742 356 839 b 665 769 554 839 611 815 l 760 879 b 476 981 682 944 603 981 z "},"Ċ":{"ha":789,"x_min":0,"x_max":0,"o":"m 486 1282 b 375 1174 421 1282 375 1235 b 486 1067 375 1114 421 1067 b 599 1174 553 1067 599 1114 b 486 1282 599 1235 553 1282 z m 476 981 b 60 482 243 981 60 804 b 482 -21 60 156 233 -21 b 771 96 613 -21 713 36 l 685 207 b 490 126 629 165 572 126 b 253 482 353 126 253 229 b 488 839 253 742 356 839 b 665 769 554 839 611 815 l 760 879 b 476 981 682 944 603 981 z "},"Ƈ":{"ha":789,"x_min":0,"x_max":0,"o":"m 819 1171 b 596 957 678 1171 601 1092 b 465 981 560 972 517 981 b 60 482 246 981 60 804 b 482 -21 60 156 233 -21 b 771 96 613 -21 713 36 l 685 207 b 490 126 629 165 572 126 b 253 482 353 126 253 229 b 488 839 253 742 356 839 b 678 783 558 839 619 818 l 760 879 l 760 942 b 839 1035 760 1008 789 1035 b 938 1006 879 1035 906 1024 l 994 1118 b 819 1171 956 1144 899 1171 z "},"Ȼ":{"ha":789,"x_min":0,"x_max":0,"o":"m 685 207 b 490 126 629 165 572 126 b 417 138 464 126 439 129 l 596 815 b 665 769 619 804 643 789 l 760 879 b 632 956 719 913 679 939 l 651 1029 l 581 1046 l 561 974 b 476 981 535 979 507 981 b 60 482 243 981 60 804 b 307 14 60 239 156 79 l 281 -83 l 353 -100 l 378 -10 b 482 -21 410 -17 444 -21 b 771 96 613 -21 713 36 z m 253 482 b 488 839 253 742 356 839 b 525 838 500 839 513 839 l 350 176 b 253 482 290 231 253 329 z "},"D":{"ha":900,"x_min":0,"x_max":0,"o":"m 349 960 l 113 960 l 113 0 l 374 0 b 840 485 603 0 840 96 b 349 960 840 882 601 960 z m 381 822 b 647 485 522 822 647 774 b 386 138 647 201 529 138 l 296 138 l 296 822 z "},"Ǳ":{"ha":1628,"x_min":0,"x_max":0,"o":"m 349 960 l 113 960 l 113 0 l 374 0 b 840 485 603 0 840 96 b 349 960 840 882 601 960 z m 1575 960 l 964 960 l 964 814 l 1369 814 l 918 140 l 918 0 l 1560 0 l 1579 150 l 1132 150 l 1575 818 z m 381 822 b 647 485 522 822 647 774 b 386 138 647 201 529 138 l 296 138 l 296 822 z "},"Ǆ":{"ha":1628,"x_min":0,"x_max":0,"o":"m 1447 1289 l 1267 1174 l 1086 1289 l 1018 1211 l 1211 1044 l 1322 1044 l 1515 1211 z m 349 960 l 113 960 l 113 0 l 374 0 b 840 485 603 0 840 96 b 349 960 840 882 601 960 z m 1575 960 l 964 960 l 964 814 l 1369 814 l 918 140 l 918 0 l 1560 0 l 1579 150 l 1132 150 l 1575 818 z m 381 822 b 647 485 522 822 647 774 b 386 138 647 201 529 138 l 296 138 l 296 822 z "},"Ɖ":{"ha":918,"x_min":0,"x_max":0,"o":"m 367 960 l 131 960 l 131 550 l 24 550 l 24 431 l 131 431 l 131 0 l 392 0 b 858 485 621 0 858 96 b 367 960 858 882 619 960 z m 404 138 l 314 138 l 314 431 l 515 431 l 515 550 l 314 550 l 314 822 l 399 822 b 665 485 540 822 665 774 b 404 138 665 201 547 138 z "},"Ð":{"ha":918,"x_min":0,"x_max":0,"o":"m 367 960 l 131 960 l 131 550 l 24 550 l 24 431 l 131 431 l 131 0 l 392 0 b 858 485 621 0 858 96 b 367 960 858 882 619 960 z m 404 138 l 314 138 l 314 431 l 515 431 l 515 550 l 314 550 l 314 822 l 399 822 b 665 485 540 822 665 774 b 404 138 665 201 547 138 z "},"Ď":{"ha":900,"x_min":0,"x_max":0,"o":"m 596 1289 l 415 1174 l 235 1289 l 167 1211 l 360 1044 l 471 1044 l 664 1211 z m 349 960 l 113 960 l 113 0 l 374 0 b 840 485 603 0 840 96 b 349 960 840 882 601 960 z m 381 822 b 647 485 522 822 647 774 b 386 138 647 201 529 138 l 296 138 l 296 822 z "},"Ḓ":{"ha":900,"x_min":0,"x_max":0,"o":"m 349 960 l 113 960 l 113 0 l 374 0 b 840 485 603 0 840 96 b 349 960 840 882 601 960 z m 381 822 b 647 485 522 822 647 774 b 386 138 647 201 529 138 l 296 138 l 296 822 z m 240 -343 l 421 -221 l 601 -343 l 669 -265 l 476 -90 l 364 -90 l 172 -265 z "},"Đ":{"ha":918,"x_min":0,"x_max":0,"o":"m 367 960 l 131 960 l 131 550 l 24 550 l 24 431 l 131 431 l 131 0 l 392 0 b 858 485 621 0 858 96 b 367 960 858 882 619 960 z m 404 138 l 314 138 l 314 431 l 515 431 l 515 550 l 314 550 l 314 822 l 399 822 b 665 485 540 822 665 774 b 404 138 665 201 547 138 z "},"Ḋ":{"ha":900,"x_min":0,"x_max":0,"o":"m 414 1282 b 303 1174 349 1282 303 1235 b 414 1067 303 1114 349 1067 b 526 1174 481 1067 526 1114 b 414 1282 526 1235 481 1282 z m 349 960 l 113 960 l 113 0 l 374 0 b 840 485 603 0 840 96 b 349 960 840 882 601 960 z m 381 822 b 647 485 522 822 647 774 b 386 138 647 201 529 138 l 296 138 l 296 822 z "},"Ḍ":{"ha":900,"x_min":0,"x_max":0,"o":"m 349 960 l 113 960 l 113 0 l 374 0 b 840 485 603 0 840 96 b 349 960 840 882 601 960 z m 381 822 b 647 485 522 822 647 774 b 386 138 647 201 529 138 l 296 138 l 296 822 z m 422 -307 b 533 -199 488 -307 533 -260 b 422 -92 533 -139 488 -92 b 310 -199 356 -92 310 -139 b 422 -307 310 -260 356 -307 z "},"Ɗ":{"ha":1060,"x_min":0,"x_max":0,"o":"m 508 960 l 274 960 l 240 960 b 10 769 94 960 10 885 b 68 611 10 706 39 656 l 185 665 b 161 761 171 700 161 728 b 231 824 161 801 183 824 l 272 824 l 272 0 l 533 0 b 1000 485 763 0 1000 96 b 508 960 1000 882 760 960 z m 546 138 l 456 138 l 456 822 l 540 822 b 807 485 682 822 807 774 b 546 138 807 201 689 138 z "},"Ḏ":{"ha":900,"x_min":0,"x_max":0,"o":"m 349 960 l 113 960 l 113 0 l 374 0 b 840 485 603 0 840 96 b 349 960 840 882 601 960 z m 381 822 b 647 485 522 822 647 774 b 386 138 647 201 529 138 l 296 138 l 296 822 z m 624 -253 l 624 -126 l 219 -126 l 219 -253 z "},"Ƌ":{"ha":817,"x_min":0,"x_max":0,"o":"m 706 0 l 706 960 l 149 960 l 149 817 l 521 817 l 521 610 l 407 610 b 32 303 174 610 32 501 b 396 0 32 88 186 0 z m 413 138 b 226 303 300 138 226 176 b 417 476 226 424 293 476 l 521 476 l 521 138 z "},"ǲ":{"ha":1524,"x_min":0,"x_max":0,"o":"m 349 960 l 113 960 l 113 0 l 374 0 b 840 485 603 0 840 96 b 349 960 840 882 601 960 z m 381 822 b 647 485 522 822 647 774 b 386 138 647 201 529 138 l 296 138 l 296 822 z m 1485 735 l 956 735 l 956 596 l 1282 596 l 925 128 l 925 0 l 1474 0 l 1492 139 l 1129 139 l 1485 607 z "},"ǅ":{"ha":1524,"x_min":0,"x_max":0,"o":"m 1396 1111 l 1215 989 l 1035 1111 l 967 1033 l 1160 860 l 1271 860 l 1464 1033 z m 349 960 l 113 960 l 113 0 l 374 0 b 840 485 603 0 840 96 b 349 960 840 882 601 960 z m 381 822 b 647 485 522 822 647 774 b 386 138 647 201 529 138 l 296 138 l 296 822 z m 1485 735 l 956 735 l 956 596 l 1282 596 l 925 128 l 925 0 l 1474 0 l 1492 139 l 1129 139 l 1485 607 z "},"E":{"ha":736,"x_min":0,"x_max":0,"o":"m 669 960 l 113 960 l 113 0 l 675 0 l 675 138 l 296 138 l 296 419 l 604 419 l 604 556 l 296 556 l 296 824 l 650 824 z "},"É":{"ha":736,"x_min":0,"x_max":0,"o":"m 506 1300 l 213 1138 l 258 1046 l 576 1161 z m 669 960 l 113 960 l 113 0 l 675 0 l 675 138 l 296 138 l 296 419 l 604 419 l 604 556 l 296 556 l 296 824 l 650 824 z "},"Ĕ":{"ha":736,"x_min":0,"x_max":0,"o":"m 393 1047 b 621 1247 524 1047 610 1136 l 515 1268 b 393 1175 499 1214 457 1175 b 272 1268 329 1175 290 1214 l 168 1247 b 393 1047 179 1136 263 1047 z m 669 960 l 113 960 l 113 0 l 675 0 l 675 138 l 296 138 l 296 419 l 604 419 l 604 556 l 296 556 l 296 824 l 650 824 z "},"Ě":{"ha":736,"x_min":0,"x_max":0,"o":"m 575 1289 l 394 1174 l 214 1289 l 146 1211 l 339 1044 l 450 1044 l 643 1211 z m 669 960 l 113 960 l 113 0 l 675 0 l 675 138 l 296 138 l 296 419 l 604 419 l 604 556 l 296 556 l 296 824 l 650 824 z "},"Ȩ":{"ha":736,"x_min":0,"x_max":0,"o":"m 675 0 l 675 138 l 296 138 l 296 419 l 604 419 l 604 556 l 296 556 l 296 824 l 650 824 l 669 960 l 113 960 l 113 0 l 339 0 l 321 -147 b 447 -200 410 -147 447 -164 b 379 -247 447 -235 418 -247 b 292 -225 344 -247 318 -239 l 249 -312 b 392 -351 281 -335 332 -351 b 582 -200 503 -351 582 -293 b 444 -72 582 -133 542 -82 l 444 0 z "},"Ê":{"ha":736,"x_min":0,"x_max":0,"o":"m 574 1051 l 642 1128 l 449 1296 l 338 1296 l 144 1128 l 213 1051 l 393 1165 z m 669 960 l 113 960 l 113 0 l 675 0 l 675 138 l 296 138 l 296 419 l 604 419 l 604 556 l 296 556 l 296 824 l 650 824 z "},"Ế":{"ha":736,"x_min":0,"x_max":0,"o":"m 703 1471 l 529 1250 l 599 1188 l 804 1374 z m 574 999 l 642 1075 l 449 1243 l 338 1243 l 144 1075 l 213 999 l 393 1113 z m 669 960 l 113 960 l 113 0 l 675 0 l 675 138 l 296 138 l 296 419 l 604 419 l 604 556 l 296 556 l 296 824 l 650 824 z "},"Ệ":{"ha":736,"x_min":0,"x_max":0,"o":"m 574 1051 l 642 1128 l 449 1296 l 338 1296 l 144 1128 l 213 1051 l 393 1165 z m 669 960 l 113 960 l 113 0 l 675 0 l 675 138 l 296 138 l 296 419 l 604 419 l 604 556 l 296 556 l 296 824 l 650 824 z m 394 -307 b 506 -199 460 -307 506 -260 b 394 -92 506 -139 460 -92 b 282 -199 328 -92 282 -139 b 394 -307 282 -260 328 -307 z "},"Ề":{"ha":736,"x_min":0,"x_max":0,"o":"m 82 1471 l -18 1374 l 188 1188 l 257 1250 z m 572 999 l 640 1075 l 447 1243 l 336 1243 l 143 1075 l 211 999 l 392 1113 z m 669 960 l 113 960 l 113 0 l 675 0 l 675 138 l 296 138 l 296 419 l 604 419 l 604 556 l 296 556 l 296 824 l 650 824 z "},"Ể":{"ha":736,"x_min":0,"x_max":0,"o":"m 560 1164 l 674 1164 l 674 1226 b 789 1351 746 1239 789 1281 b 626 1486 789 1432 732 1486 b 485 1451 565 1486 521 1472 l 518 1368 b 600 1388 544 1381 568 1388 b 658 1342 635 1388 658 1372 b 560 1285 658 1301 625 1292 z m 572 999 l 640 1075 l 447 1243 l 336 1243 l 143 1075 l 211 999 l 392 1113 z m 669 960 l 113 960 l 113 0 l 675 0 l 675 138 l 296 138 l 296 419 l 604 419 l 604 556 l 296 556 l 296 824 l 650 824 z "},"Ễ":{"ha":736,"x_min":0,"x_max":0,"o":"m 472 1282 b 639 1419 544 1282 603 1336 l 544 1465 b 471 1406 519 1425 500 1406 b 310 1468 422 1406 392 1468 b 143 1328 232 1468 176 1406 l 239 1283 b 313 1343 261 1322 279 1343 b 472 1282 360 1343 394 1282 z m 571 999 l 639 1075 l 446 1243 l 335 1243 l 142 1075 l 210 999 l 390 1113 z m 669 960 l 113 960 l 113 0 l 675 0 l 675 138 l 296 138 l 296 419 l 604 419 l 604 556 l 296 556 l 296 824 l 650 824 z "},"Ȅ":{"ha":736,"x_min":0,"x_max":0,"o":"m 231 1401 l 101 1335 l 261 1099 l 358 1143 z m 460 1401 l 329 1338 l 475 1106 l 575 1147 z m 669 960 l 113 960 l 113 0 l 675 0 l 675 138 l 296 138 l 296 419 l 604 419 l 604 556 l 296 556 l 296 824 l 650 824 z "},"Ë":{"ha":736,"x_min":0,"x_max":0,"o":"m 240 1265 b 143 1169 186 1265 143 1224 b 240 1074 143 1115 186 1074 b 338 1169 296 1074 338 1115 b 240 1265 338 1224 296 1265 z m 547 1265 b 451 1169 494 1265 451 1224 b 547 1074 451 1115 494 1074 b 646 1169 604 1074 646 1115 b 547 1265 646 1224 604 1265 z m 669 960 l 113 960 l 113 0 l 675 0 l 675 138 l 296 138 l 296 419 l 604 419 l 604 556 l 296 556 l 296 824 l 650 824 z "},"Ė":{"ha":736,"x_min":0,"x_max":0,"o":"m 393 1282 b 282 1174 328 1282 282 1235 b 393 1067 282 1114 328 1067 b 506 1174 460 1067 506 1114 b 393 1282 506 1235 460 1282 z m 669 960 l 113 960 l 113 0 l 675 0 l 675 138 l 296 138 l 296 419 l 604 419 l 604 556 l 296 556 l 296 824 l 650 824 z "},"Ẹ":{"ha":736,"x_min":0,"x_max":0,"o":"m 669 960 l 113 960 l 113 0 l 675 0 l 675 138 l 296 138 l 296 419 l 604 419 l 604 556 l 296 556 l 296 824 l 650 824 z m 394 -307 b 506 -199 460 -307 506 -260 b 394 -92 506 -139 460 -92 b 282 -199 328 -92 282 -139 b 394 -307 282 -260 328 -307 z "},"È":{"ha":736,"x_min":0,"x_max":0,"o":"m 274 1300 l 203 1161 l 521 1046 l 567 1138 z m 669 960 l 113 960 l 113 0 l 675 0 l 675 138 l 296 138 l 296 419 l 604 419 l 604 556 l 296 556 l 296 824 l 650 824 z "},"Ẻ":{"ha":736,"x_min":0,"x_max":0,"o":"m 333 1060 l 447 1060 l 447 1122 b 563 1247 519 1135 563 1176 b 400 1382 563 1328 506 1382 b 258 1347 339 1382 294 1368 l 292 1264 b 374 1283 318 1276 342 1283 b 432 1238 408 1283 432 1268 b 333 1181 432 1197 399 1188 z m 669 960 l 113 960 l 113 0 l 675 0 l 675 138 l 296 138 l 296 419 l 604 419 l 604 556 l 296 556 l 296 824 l 650 824 z "},"Ȇ":{"ha":736,"x_min":0,"x_max":0,"o":"m 393 1303 b 168 1088 263 1303 179 1213 l 272 1068 b 393 1175 290 1136 329 1175 b 515 1068 457 1175 499 1136 l 621 1088 b 393 1303 610 1213 524 1303 z m 669 960 l 113 960 l 113 0 l 675 0 l 675 138 l 296 138 l 296 419 l 604 419 l 604 556 l 296 556 l 296 824 l 650 824 z "},"Ē":{"ha":736,"x_min":0,"x_max":0,"o":"m 596 1093 l 596 1219 l 192 1219 l 192 1093 z m 669 960 l 113 960 l 113 0 l 675 0 l 675 138 l 296 138 l 296 419 l 604 419 l 604 556 l 296 556 l 296 824 l 650 824 z "},"Ę":{"ha":736,"x_min":0,"x_max":0,"o":"m 296 138 l 296 419 l 604 419 l 604 556 l 296 556 l 296 824 l 650 824 l 669 960 l 113 960 l 113 0 l 440 0 b 315 -181 360 -44 315 -103 b 506 -332 315 -271 393 -332 b 599 -322 543 -332 569 -328 l 613 -204 b 528 -214 581 -211 556 -214 b 453 -150 475 -214 453 -192 b 619 0 453 -106 481 -56 l 675 0 l 675 138 z "},"Ɛ":{"ha":739,"x_min":0,"x_max":0,"o":"m 397 981 b 79 732 197 981 79 872 b 281 511 79 617 151 539 b 49 272 147 497 49 419 b 410 -21 49 96 200 -21 b 735 113 544 -21 654 25 l 632 211 b 425 122 575 154 511 122 b 243 281 310 122 243 181 b 433 438 243 379 306 438 l 506 438 l 529 575 l 431 575 b 268 713 331 575 268 626 b 415 842 268 783 310 842 b 615 758 486 842 553 814 l 708 857 b 397 981 622 939 522 981 z "},"Ǝ":{"ha":733,"x_min":0,"x_max":0,"o":"m 67 960 l 67 824 l 438 824 l 438 556 l 129 556 l 129 419 l 438 419 l 438 138 l 58 138 l 58 0 l 622 0 l 622 960 z "},"Ʃ":{"ha":699,"x_min":0,"x_max":0,"o":"m 657 960 l 42 960 l 42 821 l 328 471 l 42 139 l 42 0 l 657 0 l 657 142 l 244 142 l 500 429 l 500 518 l 246 821 l 657 821 z "},"Ɇ":{"ha":736,"x_min":0,"x_max":0,"o":"m 675 138 l 379 138 l 454 419 l 604 419 l 604 556 l 490 556 l 561 824 l 650 824 l 669 960 l 597 960 l 615 1029 l 543 1046 l 521 960 l 113 960 l 113 0 l 265 0 l 243 -83 l 317 -100 l 343 0 l 675 0 z m 296 824 l 485 824 l 413 556 l 296 556 z m 296 138 l 296 419 l 378 419 l 303 138 z "},"Ẽ":{"ha":736,"x_min":0,"x_max":0,"o":"m 475 1069 b 642 1213 547 1069 606 1126 l 547 1260 b 474 1200 522 1219 503 1200 b 313 1264 425 1200 394 1264 b 146 1119 235 1264 179 1199 l 242 1072 b 315 1135 264 1113 282 1135 b 475 1069 363 1135 397 1069 z m 669 960 l 113 960 l 113 0 l 675 0 l 675 138 l 296 138 l 296 419 l 604 419 l 604 556 l 296 556 l 296 824 l 650 824 z "},"Ʒ":{"ha":740,"x_min":0,"x_max":0,"o":"m 381 556 l 650 824 l 650 960 l 58 960 l 58 821 l 442 821 l 176 553 l 176 440 l 307 440 b 500 286 433 440 500 397 b 318 121 500 182 435 121 b 108 210 229 121 169 149 l 10 114 b 328 -21 83 26 182 -21 b 692 281 557 -21 692 108 b 381 556 692 449 586 553 z "},"Ǯ":{"ha":740,"x_min":0,"x_max":0,"o":"m 410 1044 l 603 1211 l 535 1289 l 354 1174 l 174 1289 l 106 1211 l 299 1044 z m 381 556 l 650 824 l 650 960 l 58 960 l 58 821 l 442 821 l 176 553 l 176 440 l 307 440 b 500 286 433 440 500 397 b 318 121 500 182 435 121 b 108 210 229 121 169 149 l 10 114 b 328 -21 83 26 182 -21 b 692 281 557 -21 692 108 b 381 556 692 449 586 553 z "},"Ƹ":{"ha":740,"x_min":0,"x_max":0,"o":"m 632 210 b 413 121 571 149 508 121 b 239 278 303 121 239 182 b 433 440 239 385 304 440 l 564 440 l 564 551 l 300 821 l 681 821 l 681 960 l 90 960 l 90 824 l 360 556 b 49 274 161 551 49 438 b 403 -21 49 103 185 -21 b 731 114 557 -21 656 26 z "},"F":{"ha":679,"x_min":0,"x_max":0,"o":"m 656 960 l 113 960 l 113 0 l 296 0 l 296 400 l 592 400 l 592 536 l 296 536 l 296 824 l 636 824 z "},"Ḟ":{"ha":679,"x_min":0,"x_max":0,"o":"m 397 1282 b 286 1174 332 1282 286 1235 b 397 1067 286 1114 332 1067 b 510 1174 464 1067 510 1114 b 397 1282 510 1235 464 1282 z m 656 960 l 113 960 l 113 0 l 296 0 l 296 400 l 592 400 l 592 536 l 296 536 l 296 824 l 636 824 z "},"Ƒ":{"ha":679,"x_min":0,"x_max":0,"o":"m 636 824 l 656 960 l 113 960 l 113 -71 b 32 -164 113 -135 83 -164 b -67 -133 -11 -164 -35 -153 l -131 -246 b 49 -303 -90 -276 -33 -303 b 296 -60 199 -303 296 -222 l 296 400 l 592 400 l 592 536 l 296 536 l 296 824 z "},"G":{"ha":886,"x_min":0,"x_max":0,"o":"m 497 981 b 60 481 261 981 60 806 b 476 -21 60 151 210 -21 b 814 74 607 -21 721 15 l 814 543 l 469 543 l 489 407 l 633 407 l 633 157 b 481 119 588 131 535 119 b 253 481 331 119 253 218 b 506 842 253 739 369 842 b 706 764 588 842 642 817 l 806 868 b 497 981 725 938 633 981 z "},"Ǵ":{"ha":886,"x_min":0,"x_max":0,"o":"m 601 1300 l 308 1138 l 354 1046 l 672 1161 z m 497 981 b 60 481 261 981 60 806 b 476 -21 60 151 210 -21 b 814 74 607 -21 721 15 l 814 543 l 469 543 l 489 407 l 633 407 l 633 157 b 481 119 588 131 535 119 b 253 481 331 119 253 218 b 506 842 253 739 369 842 b 706 764 588 842 642 817 l 806 868 b 497 981 725 938 633 981 z "},"Ɣ":{"ha":781,"x_min":0,"x_max":0,"o":"m 788 960 l 600 960 l 394 236 l 190 960 l -7 960 l 293 114 b 203 -144 232 -3 203 -72 b 393 -303 203 -240 263 -303 b 583 -144 525 -303 583 -240 b 493 114 583 -60 553 8 z m 435 -131 b 393 -178 435 -161 421 -178 b 351 -132 365 -178 351 -161 b 393 10 351 -94 368 -47 b 435 -131 418 -49 435 -93 z "},"Ğ":{"ha":886,"x_min":0,"x_max":0,"o":"m 489 1047 b 717 1247 619 1047 706 1136 l 611 1268 b 489 1175 594 1214 553 1175 b 368 1268 425 1175 386 1214 l 264 1247 b 489 1047 275 1136 358 1047 z m 497 981 b 60 481 261 981 60 806 b 476 -21 60 151 210 -21 b 814 74 607 -21 721 15 l 814 543 l 469 543 l 489 407 l 633 407 l 633 157 b 481 119 588 131 535 119 b 253 481 331 119 253 218 b 506 842 253 739 369 842 b 706 764 588 842 642 817 l 806 868 b 497 981 725 938 633 981 z "},"Ǧ":{"ha":886,"x_min":0,"x_max":0,"o":"m 671 1289 l 490 1174 l 310 1289 l 242 1211 l 435 1044 l 546 1044 l 739 1211 z m 497 981 b 60 481 261 981 60 806 b 476 -21 60 151 210 -21 b 814 74 607 -21 721 15 l 814 543 l 469 543 l 489 407 l 633 407 l 633 157 b 481 119 588 131 535 119 b 253 481 331 119 253 218 b 506 842 253 739 369 842 b 706 764 588 842 642 817 l 806 868 b 497 981 725 938 633 981 z "},"Ĝ":{"ha":886,"x_min":0,"x_max":0,"o":"m 671 1051 l 739 1128 l 546 1296 l 435 1296 l 242 1128 l 310 1051 l 490 1165 z m 497 981 b 60 481 261 981 60 806 b 476 -21 60 151 210 -21 b 814 74 607 -21 721 15 l 814 543 l 469 543 l 489 407 l 633 407 l 633 157 b 481 119 588 131 535 119 b 253 481 331 119 253 218 b 506 842 253 739 369 842 b 706 764 588 842 642 817 l 806 868 b 497 981 725 938 633 981 z "},"Ģ":{"ha":886,"x_min":0,"x_max":0,"o":"m 497 981 b 60 481 261 981 60 806 b 476 -21 60 151 210 -21 b 814 74 607 -21 721 15 l 814 543 l 469 543 l 489 407 l 633 407 l 633 157 b 481 119 588 131 535 119 b 253 481 331 119 253 218 b 506 842 253 739 369 842 b 706 764 588 842 642 817 l 806 868 b 497 981 725 938 633 981 z m 483 -100 b 386 -194 428 -100 386 -142 b 426 -272 386 -228 403 -254 l 388 -433 l 481 -433 l 542 -307 b 579 -194 569 -250 579 -225 b 483 -100 579 -140 538 -100 z "},"Ġ":{"ha":886,"x_min":0,"x_max":0,"o":"m 490 1282 b 379 1174 425 1282 379 1235 b 490 1067 379 1114 425 1067 b 603 1174 557 1067 603 1114 b 490 1282 603 1235 557 1282 z m 497 981 b 60 481 261 981 60 806 b 476 -21 60 151 210 -21 b 814 74 607 -21 721 15 l 814 543 l 469 543 l 489 407 l 633 407 l 633 157 b 481 119 588 131 535 119 b 253 481 331 119 253 218 b 506 842 253 739 369 842 b 706 764 588 842 642 817 l 806 868 b 497 981 725 938 633 981 z "},"Ɠ":{"ha":836,"x_min":0,"x_max":0,"o":"m 867 1171 b 643 947 721 1171 644 1088 b 478 981 599 969 544 981 b 60 481 264 981 60 806 b 476 -21 60 151 210 -21 b 814 74 607 -21 721 15 l 814 543 l 469 543 l 489 407 l 633 407 l 633 157 b 481 119 588 131 535 119 b 253 481 331 119 253 218 b 506 842 253 739 369 842 b 717 775 585 842 649 817 l 806 868 l 806 942 b 886 1035 806 1008 835 1035 b 983 1006 926 1035 951 1024 l 1042 1118 b 867 1171 1001 1144 946 1171 z "},"Ɂ":{"ha":679,"x_min":0,"x_max":0,"o":"m 206 0 l 390 0 l 390 383 l 424 394 b 651 683 550 438 651 507 b 324 981 651 858 526 981 b 10 857 199 981 99 939 l 101 758 b 306 842 168 814 229 842 b 460 675 406 842 460 775 b 293 475 460 556 403 506 l 206 451 z "},"Ǥ":{"ha":908,"x_min":0,"x_max":0,"o":"m 904 365 l 814 365 l 814 556 l 469 556 l 488 431 l 643 431 l 643 365 l 485 365 l 485 238 l 643 238 l 643 157 b 481 119 588 131 535 119 b 253 481 331 119 253 218 b 506 842 253 739 369 842 b 706 764 588 842 642 817 l 806 868 b 497 981 725 938 633 981 b 60 481 261 981 60 806 b 476 -21 60 151 210 -21 b 814 74 607 -21 721 15 l 814 238 l 904 238 z "},"H":{"ha":933,"x_min":0,"x_max":0,"o":"m 638 0 l 822 0 l 822 960 l 638 960 l 638 575 l 296 575 l 296 960 l 113 960 l 113 0 l 296 0 l 296 429 l 638 429 z "},"Ħ":{"ha":947,"x_min":0,"x_max":0,"o":"m 915 813 l 829 813 l 829 960 l 644 960 l 644 813 l 303 813 l 303 960 l 119 960 l 119 813 l 32 813 l 32 700 l 119 700 l 119 0 l 303 0 l 303 429 l 644 429 l 644 0 l 829 0 l 829 700 l 915 700 z m 644 575 l 303 575 l 303 700 l 644 700 z "},"Ȟ":{"ha":933,"x_min":0,"x_max":0,"o":"m 647 1289 l 467 1174 l 286 1289 l 218 1211 l 411 1044 l 522 1044 l 715 1211 z m 638 0 l 822 0 l 822 960 l 638 960 l 638 575 l 296 575 l 296 960 l 113 960 l 113 0 l 296 0 l 296 429 l 638 429 z "},"Ĥ":{"ha":933,"x_min":0,"x_max":0,"o":"m 647 1051 l 715 1128 l 522 1296 l 411 1296 l 218 1128 l 286 1051 l 467 1165 z m 638 0 l 822 0 l 822 960 l 638 960 l 638 575 l 296 575 l 296 960 l 113 960 l 113 0 l 296 0 l 296 429 l 638 429 z "},"Ḥ":{"ha":933,"x_min":0,"x_max":0,"o":"m 638 0 l 822 0 l 822 960 l 638 960 l 638 575 l 296 575 l 296 960 l 113 960 l 113 0 l 296 0 l 296 429 l 638 429 z m 468 -307 b 579 -199 533 -307 579 -260 b 468 -92 579 -139 533 -92 b 356 -199 401 -92 356 -139 b 468 -307 356 -260 401 -307 z "},"Ɦ":{"ha":1093,"x_min":0,"x_max":0,"o":"m 797 960 l 797 575 l 456 575 l 456 960 l 274 960 l 240 960 b 10 769 94 960 10 885 b 68 611 10 706 39 656 l 185 665 b 161 761 171 700 161 728 b 231 824 161 801 183 824 l 272 824 l 272 0 l 456 0 l 456 429 l 797 429 l 797 0 l 981 0 l 981 960 z "},"Ɥ":{"ha":856,"x_min":0,"x_max":0,"o":"m 558 960 l 558 500 b 382 435 519 463 464 435 b 224 608 278 435 224 488 l 224 960 l 42 960 l 42 601 b 332 292 42 411 151 292 b 558 369 424 292 488 315 l 558 0 l 743 0 l 743 960 z "},"Ƕ":{"ha":1332,"x_min":0,"x_max":0,"o":"m 1218 735 l 1040 735 b 1078 364 1065 601 1078 474 b 925 114 1078 172 994 114 b 822 246 860 114 822 154 l 822 960 l 638 960 l 638 575 l 296 575 l 296 960 l 113 960 l 113 0 l 296 0 l 296 429 l 638 429 l 638 240 b 913 -21 638 64 764 -21 b 1256 349 1081 -21 1256 86 b 1218 735 1256 497 1239 618 z "},"I":{"ha":408,"x_min":0,"x_max":0,"o":"m 296 960 l 113 960 l 113 0 l 296 0 z "},"Ĳ":{"ha":842,"x_min":0,"x_max":0,"o":"m 296 960 l 113 960 l 113 0 l 296 0 z m 735 960 l 550 960 l 550 147 b 404 -83 550 26 529 -35 l 453 -215 b 735 140 611 -164 735 -83 z "},"Í":{"ha":408,"x_min":0,"x_max":0,"o":"m 315 1300 l 22 1138 l 68 1046 l 386 1161 z m 296 960 l 113 960 l 113 0 l 296 0 z "},"Ĭ":{"ha":408,"x_min":0,"x_max":0,"o":"m 201 1047 b 429 1247 332 1047 418 1136 l 324 1268 b 201 1175 307 1214 265 1175 b 81 1268 138 1175 99 1214 l -24 1247 b 201 1047 -12 1136 71 1047 z m 296 960 l 113 960 l 113 0 l 296 0 z "},"Ǐ":{"ha":408,"x_min":0,"x_max":0,"o":"m 385 1289 l 204 1174 l 24 1289 l -44 1211 l 149 1044 l 260 1044 l 453 1211 z m 296 960 l 113 960 l 113 0 l 296 0 z "},"Î":{"ha":408,"x_min":0,"x_max":0,"o":"m 383 1051 l 451 1128 l 258 1296 l 147 1296 l -46 1128 l 22 1051 l 203 1165 z m 296 960 l 113 960 l 113 0 l 296 0 z "},"Ȉ":{"ha":408,"x_min":0,"x_max":0,"o":"m 40 1401 l -89 1335 l 71 1099 l 168 1143 z m 269 1401 l 139 1338 l 285 1106 l 385 1147 z m 296 960 l 113 960 l 113 0 l 296 0 z "},"Ï":{"ha":408,"x_min":0,"x_max":0,"o":"m 49 1265 b -49 1169 -6 1265 -49 1224 b 49 1074 -49 1115 -6 1074 b 146 1169 104 1074 146 1115 b 49 1265 146 1224 104 1265 z m 356 1265 b 260 1169 303 1265 260 1224 b 356 1074 260 1115 303 1074 b 454 1169 413 1074 454 1115 b 356 1265 454 1224 413 1265 z m 296 960 l 113 960 l 113 0 l 296 0 z "},"Ḯ":{"ha":408,"x_min":0,"x_max":0,"o":"m 308 1472 l 135 1251 l 204 1189 l 410 1375 z m 46 1229 b -53 1133 -11 1229 -53 1188 b 46 1038 -53 1079 -11 1038 b 142 1133 99 1038 142 1079 b 46 1229 142 1188 99 1229 z m 363 1229 b 265 1133 307 1229 265 1188 b 363 1038 265 1079 307 1038 b 460 1133 417 1038 460 1079 b 363 1229 460 1188 417 1229 z m 296 960 l 113 960 l 113 0 l 296 0 z "},"İ":{"ha":408,"x_min":0,"x_max":0,"o":"m 203 1282 b 92 1174 138 1282 92 1235 b 203 1067 92 1114 138 1067 b 315 1174 269 1067 315 1114 b 203 1282 315 1235 269 1282 z m 296 960 l 113 960 l 113 0 l 296 0 z "},"Ị":{"ha":408,"x_min":0,"x_max":0,"o":"m 296 960 l 113 960 l 113 0 l 296 0 z m 204 -307 b 315 -199 269 -307 315 -260 b 204 -92 315 -139 269 -92 b 92 -199 138 -92 92 -139 b 204 -307 92 -260 138 -307 z "},"Ì":{"ha":408,"x_min":0,"x_max":0,"o":"m 83 1300 l 13 1161 l 331 1046 l 376 1138 z m 296 960 l 113 960 l 113 0 l 296 0 z "},"Ỉ":{"ha":408,"x_min":0,"x_max":0,"o":"m 143 1060 l 257 1060 l 257 1122 b 372 1247 329 1135 372 1176 b 210 1382 372 1328 315 1382 b 68 1347 149 1382 104 1368 l 101 1264 b 183 1283 128 1276 151 1283 b 242 1238 218 1283 242 1268 b 143 1181 242 1197 208 1188 z m 296 960 l 113 960 l 113 0 l 296 0 z "},"Ȋ":{"ha":408,"x_min":0,"x_max":0,"o":"m 201 1303 b -24 1088 71 1303 -12 1213 l 81 1068 b 201 1175 99 1136 138 1175 b 324 1068 265 1175 307 1136 l 429 1088 b 201 1303 418 1213 332 1303 z m 296 960 l 113 960 l 113 0 l 296 0 z "},"Ī":{"ha":408,"x_min":0,"x_max":0,"o":"m 406 1093 l 406 1219 l 1 1219 l 1 1093 z m 296 960 l 113 960 l 113 0 l 296 0 z "},"Į":{"ha":408,"x_min":0,"x_max":0,"o":"m 113 960 l 113 8 b -29 -181 21 -37 -29 -99 b 161 -332 -29 -271 49 -332 b 254 -322 199 -332 225 -328 l 268 -204 b 183 -214 236 -211 211 -214 b 108 -150 131 -214 108 -192 b 275 0 108 -106 136 -56 l 296 0 l 296 960 z "},"Ɩ":{"ha":528,"x_min":0,"x_max":0,"o":"m 463 149 b 363 118 429 129 406 118 b 282 211 311 118 282 147 l 282 960 l 99 960 l 99 222 b 346 -21 99 60 196 -21 b 525 36 428 -21 485 6 z "},"Ɨ":{"ha":447,"x_min":0,"x_max":0,"o":"m 433 568 l 315 568 l 315 960 l 132 960 l 132 568 l 14 568 l 14 431 l 132 431 l 132 0 l 315 0 l 315 431 l 433 431 z "},"Ĩ":{"ha":408,"x_min":0,"x_max":0,"o":"m 285 1069 b 451 1213 357 1069 415 1126 l 357 1260 b 283 1200 332 1219 313 1200 b 122 1264 235 1200 204 1264 b -44 1119 44 1264 -11 1199 l 51 1072 b 125 1135 74 1113 92 1135 b 285 1069 172 1135 207 1069 z m 296 960 l 113 960 l 113 0 l 296 0 z "},"J":{"ha":433,"x_min":0,"x_max":0,"o":"m 326 960 l 142 960 l 142 147 b -4 -83 142 26 121 -35 l 44 -215 b 326 140 203 -164 326 -83 z "},"Ĵ":{"ha":433,"x_min":0,"x_max":0,"o":"m 415 1051 l 483 1128 l 290 1296 l 179 1296 l -14 1128 l 54 1051 l 235 1165 z m 326 960 l 142 960 l 142 147 b -4 -83 142 26 121 -35 l 44 -215 b 326 140 203 -164 326 -83 z "},"Ɉ":{"ha":453,"x_min":0,"x_max":0,"o":"m 443 547 l 326 547 l 326 960 l 142 960 l 142 547 l 24 547 l 24 406 l 142 406 l 142 147 b -4 -83 142 26 121 -35 l 44 -215 b 326 140 203 -164 326 -83 l 326 406 l 443 406 z "},"K":{"ha":851,"x_min":0,"x_max":0,"o":"m 296 960 l 113 960 l 113 0 l 296 0 z m 835 960 l 636 960 l 304 513 l 643 0 l 861 0 l 503 525 z "},"Ǩ":{"ha":851,"x_min":0,"x_max":0,"o":"m 638 1289 l 457 1174 l 276 1289 l 208 1211 l 401 1044 l 513 1044 l 706 1211 z m 296 960 l 113 960 l 113 0 l 296 0 z m 835 960 l 636 960 l 304 513 l 643 0 l 861 0 l 503 525 z "},"Ķ":{"ha":851,"x_min":0,"x_max":0,"o":"m 296 960 l 113 960 l 113 0 l 296 0 z m 835 960 l 636 960 l 304 513 l 643 0 l 861 0 l 503 525 z m 447 -100 b 350 -194 392 -100 350 -142 b 390 -272 350 -228 367 -254 l 351 -433 l 444 -433 l 506 -307 b 543 -194 533 -250 543 -225 b 447 -100 543 -140 501 -100 z "},"Ƙ":{"ha":885,"x_min":0,"x_max":0,"o":"m 660 767 b 767 843 703 832 726 843 b 839 821 801 843 821 832 l 893 931 b 746 981 860 957 814 981 b 515 833 639 981 582 938 l 304 513 l 643 0 l 861 0 l 501 525 z m 296 960 l 113 960 l 113 0 l 296 0 z "},"L":{"ha":703,"x_min":0,"x_max":0,"o":"m 296 960 l 113 960 l 113 0 l 660 0 l 681 150 l 296 150 z "},"Ǉ":{"ha":1136,"x_min":0,"x_max":0,"o":"m 296 960 l 113 960 l 113 0 l 660 0 l 681 150 l 296 150 z m 1029 960 l 844 960 l 844 147 b 699 -83 844 26 824 -35 l 747 -215 b 1029 140 906 -164 1029 -83 z "},"Ĺ":{"ha":703,"x_min":0,"x_max":0,"o":"m 315 1300 l 22 1138 l 68 1046 l 386 1161 z m 296 960 l 113 960 l 113 0 l 660 0 l 681 150 l 296 150 z "},"Ƚ":{"ha":719,"x_min":0,"x_max":0,"o":"m 313 150 l 313 433 l 433 433 l 433 575 l 313 575 l 313 960 l 129 960 l 129 575 l 14 575 l 14 433 l 129 433 l 129 0 l 676 0 l 697 150 z "},"Ľ":{"ha":703,"x_min":0,"x_max":0,"o":"m 393 979 l 364 696 l 463 681 l 536 960 z m 296 960 l 113 960 l 113 0 l 660 0 l 681 150 l 296 150 z "},"Ḽ":{"ha":703,"x_min":0,"x_max":0,"o":"m 296 960 l 113 960 l 113 0 l 660 0 l 681 150 l 296 150 z m 206 -343 l 386 -221 l 567 -343 l 635 -265 l 442 -90 l 329 -90 l 138 -265 z "},"Ļ":{"ha":703,"x_min":0,"x_max":0,"o":"m 296 960 l 113 960 l 113 0 l 660 0 l 681 150 l 296 150 z m 389 -100 b 292 -194 333 -100 292 -142 b 332 -272 292 -228 308 -254 l 293 -433 l 386 -433 l 447 -307 b 485 -194 475 -250 485 -225 b 389 -100 485 -140 443 -100 z "},"Ŀ":{"ha":703,"x_min":0,"x_max":0,"o":"m 296 960 l 113 960 l 113 0 l 660 0 l 681 150 l 296 150 z m 549 656 b 438 547 483 656 438 608 b 549 440 438 488 483 440 b 661 547 615 440 661 488 b 549 656 661 608 615 656 z "},"Ḷ":{"ha":703,"x_min":0,"x_max":0,"o":"m 296 960 l 113 960 l 113 0 l 660 0 l 681 150 l 296 150 z m 388 -307 b 499 -199 453 -307 499 -260 b 388 -92 499 -139 453 -92 b 275 -199 321 -92 275 -139 b 388 -307 275 -260 321 -307 z "},"ǈ":{"ha":1093,"x_min":0,"x_max":0,"o":"m 897 1107 b 786 999 832 1107 786 1060 b 897 892 786 939 832 892 b 1010 999 964 892 1010 939 b 897 1107 1010 1060 964 1107 z m 296 960 l 113 960 l 113 0 l 660 0 l 681 150 l 296 150 z m 986 735 l 808 735 l 808 54 b 661 -172 808 -90 757 -128 l 718 -301 b 986 65 883 -235 986 -160 z "},"Ł":{"ha":743,"x_min":0,"x_max":0,"o":"m 336 150 l 336 446 l 599 608 l 535 713 l 336 589 l 336 960 l 153 960 l 153 475 l 21 394 l 85 290 l 153 332 l 153 0 l 700 0 l 719 150 z "},"M":{"ha":1103,"x_min":0,"x_max":0,"o":"m 947 960 l 708 960 l 547 288 l 376 960 l 140 960 l 64 0 l 242 0 l 265 396 b 271 794 274 533 276 665 l 457 104 l 631 104 l 806 793 b 818 401 803 692 810 543 l 843 0 l 1022 0 z "},"Ḿ":{"ha":1103,"x_min":0,"x_max":0,"o":"m 654 1300 l 361 1138 l 407 1046 l 725 1161 z m 947 960 l 708 960 l 547 288 l 376 960 l 140 960 l 64 0 l 242 0 l 265 396 b 271 794 274 533 276 665 l 457 104 l 631 104 l 806 793 b 818 401 803 692 810 543 l 843 0 l 1022 0 z "},"Ṁ":{"ha":1103,"x_min":0,"x_max":0,"o":"m 542 1282 b 431 1174 476 1282 431 1235 b 542 1067 431 1114 476 1067 b 654 1174 608 1067 654 1114 b 542 1282 654 1235 608 1282 z m 947 960 l 708 960 l 547 288 l 376 960 l 140 960 l 64 0 l 242 0 l 265 396 b 271 794 274 533 276 665 l 457 104 l 631 104 l 806 793 b 818 401 803 692 810 543 l 843 0 l 1022 0 z "},"Ɯ":{"ha":1282,"x_min":0,"x_max":0,"o":"m 986 960 l 986 232 b 826 121 933 154 893 121 b 726 261 763 121 726 174 l 726 960 l 542 960 l 542 254 b 543 231 542 246 542 238 b 383 121 489 158 447 121 b 282 261 318 121 282 174 l 282 960 l 99 960 l 99 254 b 331 -21 99 93 182 -21 b 569 113 425 -21 496 21 b 775 -21 606 31 675 -21 b 996 99 864 -21 932 17 l 1010 0 l 1171 0 l 1171 960 z "},"N":{"ha":933,"x_min":0,"x_max":0,"o":"m 821 960 l 654 960 l 654 510 b 679 182 654 374 671 235 l 344 960 l 113 960 l 113 0 l 279 0 l 279 392 b 254 776 279 569 264 692 l 583 0 l 821 0 z "},"Ǌ":{"ha":1367,"x_min":0,"x_max":0,"o":"m 821 960 l 654 960 l 654 510 b 679 182 654 374 671 235 l 344 960 l 113 960 l 113 0 l 279 0 l 279 392 b 254 776 279 569 264 692 l 583 0 l 821 0 z m 1260 960 l 1075 960 l 1075 147 b 929 -83 1075 26 1054 -35 l 978 -215 b 1260 140 1136 -164 1260 -83 z "},"Ń":{"ha":933,"x_min":0,"x_max":0,"o":"m 589 1300 l 296 1138 l 342 1046 l 660 1161 z m 821 960 l 654 960 l 654 510 b 679 182 654 374 671 235 l 344 960 l 113 960 l 113 0 l 279 0 l 279 392 b 254 776 279 569 264 692 l 583 0 l 821 0 z "},"Ň":{"ha":933,"x_min":0,"x_max":0,"o":"m 658 1289 l 478 1174 l 297 1289 l 229 1211 l 422 1044 l 533 1044 l 726 1211 z m 821 960 l 654 960 l 654 510 b 679 182 654 374 671 235 l 344 960 l 113 960 l 113 0 l 279 0 l 279 392 b 254 776 279 569 264 692 l 583 0 l 821 0 z "},"Ṋ":{"ha":933,"x_min":0,"x_max":0,"o":"m 821 960 l 654 960 l 654 510 b 679 182 654 374 671 235 l 344 960 l 113 960 l 113 0 l 279 0 l 279 392 b 254 776 279 569 264 692 l 583 0 l 821 0 z m 288 -343 l 468 -221 l 649 -343 l 717 -265 l 524 -90 l 411 -90 l 219 -265 z "},"Ņ":{"ha":933,"x_min":0,"x_max":0,"o":"m 821 960 l 654 960 l 654 510 b 679 182 654 374 671 235 l 344 960 l 113 960 l 113 0 l 279 0 l 279 392 b 254 776 279 569 264 692 l 583 0 l 821 0 z m 471 -100 b 374 -194 415 -100 374 -142 b 414 -272 374 -228 390 -254 l 375 -433 l 468 -433 l 529 -307 b 567 -194 557 -250 567 -225 b 471 -100 567 -140 525 -100 z "},"Ṅ":{"ha":933,"x_min":0,"x_max":0,"o":"m 476 1282 b 365 1174 411 1282 365 1235 b 476 1067 365 1114 411 1067 b 589 1174 543 1067 589 1114 b 476 1282 589 1235 543 1282 z m 821 960 l 654 960 l 654 510 b 679 182 654 374 671 235 l 344 960 l 113 960 l 113 0 l 279 0 l 279 392 b 254 776 279 569 264 692 l 583 0 l 821 0 z "},"Ṇ":{"ha":933,"x_min":0,"x_max":0,"o":"m 821 960 l 654 960 l 654 510 b 679 182 654 374 671 235 l 344 960 l 113 960 l 113 0 l 279 0 l 279 392 b 254 776 279 569 264 692 l 583 0 l 821 0 z m 469 -307 b 581 -199 535 -307 581 -260 b 469 -92 581 -139 535 -92 b 357 -199 403 -92 357 -139 b 469 -307 357 -260 403 -307 z "},"Ǹ":{"ha":933,"x_min":0,"x_max":0,"o":"m 357 1300 l 286 1161 l 604 1046 l 650 1138 z m 821 960 l 654 960 l 654 510 b 679 182 654 374 671 235 l 344 960 l 113 960 l 113 0 l 279 0 l 279 392 b 254 776 279 569 264 692 l 583 0 l 821 0 z "},"Ŋ":{"ha":933,"x_min":0,"x_max":0,"o":"m 821 960 l 654 960 l 654 510 b 679 182 654 374 671 235 l 344 960 l 113 960 l 113 0 l 279 0 l 279 392 b 254 776 279 569 264 692 l 583 0 l 638 0 l 638 -71 b 558 -164 638 -135 608 -164 b 458 -133 514 -164 490 -153 l 394 -246 b 574 -303 435 -276 492 -303 b 821 -60 724 -303 821 -222 z "},"Ɲ":{"ha":933,"x_min":0,"x_max":0,"o":"m 654 960 l 654 510 b 679 182 654 374 671 235 l 344 960 l 113 960 l 113 -75 b 29 -168 113 -140 81 -168 b -71 -137 -15 -168 -39 -157 l -135 -246 b 46 -303 -94 -276 -37 -303 b 279 -61 185 -303 279 -222 l 279 392 b 254 776 279 569 264 692 l 583 0 l 821 0 l 821 960 z "},"ǋ":{"ha":1324,"x_min":0,"x_max":0,"o":"m 1128 1107 b 1017 999 1063 1107 1017 1060 b 1128 892 1017 939 1063 892 b 1240 999 1194 892 1240 939 b 1128 1107 1240 1060 1194 1107 z m 821 960 l 654 960 l 654 510 b 679 182 654 374 671 235 l 344 960 l 113 960 l 113 0 l 279 0 l 279 392 b 254 776 279 569 264 692 l 583 0 l 821 0 z m 1217 735 l 1039 735 l 1039 54 b 892 -172 1039 -90 988 -128 l 949 -301 b 1217 65 1114 -235 1217 -160 z "},"Ƞ":{"ha":919,"x_min":0,"x_max":0,"o":"m 564 981 b 288 858 444 981 364 935 l 272 960 l 113 960 l 113 0 l 296 0 l 296 729 b 508 839 363 797 417 839 b 632 686 596 839 632 788 l 632 -286 l 817 -286 l 817 718 b 564 981 817 867 736 981 z "},"Ñ":{"ha":933,"x_min":0,"x_max":0,"o":"m 558 1069 b 725 1213 631 1069 689 1126 l 631 1260 b 557 1200 606 1219 586 1200 b 396 1264 508 1200 478 1264 b 229 1119 318 1264 263 1199 l 325 1072 b 399 1135 347 1113 365 1135 b 558 1069 446 1135 481 1069 z m 821 960 l 654 960 l 654 510 b 679 182 654 374 671 235 l 344 960 l 113 960 l 113 0 l 279 0 l 279 392 b 254 776 279 569 264 692 l 583 0 l 821 0 z "},"O":{"ha":960,"x_min":0,"x_max":0,"o":"m 481 981 b 60 479 224 981 60 794 b 481 -21 60 158 224 -21 b 900 481 738 -21 900 164 b 481 981 900 801 738 981 z m 481 840 b 707 481 625 840 707 738 b 481 119 707 221 624 119 b 253 479 340 119 253 221 b 481 840 253 738 338 840 z "},"Ȣ":{"ha":904,"x_min":0,"x_max":0,"o":"m 661 549 b 789 763 743 594 789 669 l 789 960 l 603 960 l 603 760 b 453 606 603 676 568 606 b 303 760 340 606 303 667 l 303 960 l 119 960 l 119 763 b 243 547 119 665 161 592 b 60 296 125 501 60 411 b 453 -21 60 125 206 -21 b 844 297 700 -21 844 131 b 661 549 844 418 779 506 z m 453 119 b 253 297 322 119 253 183 b 453 469 253 404 319 469 b 651 299 588 469 651 404 b 453 119 651 183 588 119 z "},"Ó":{"ha":960,"x_min":0,"x_max":0,"o":"m 592 1300 l 299 1138 l 344 1046 l 663 1161 z m 481 981 b 60 479 224 981 60 794 b 481 -21 60 158 224 -21 b 900 481 738 -21 900 164 b 481 981 900 801 738 981 z m 481 840 b 707 481 625 840 707 738 b 481 119 707 221 624 119 b 253 479 340 119 253 221 b 481 840 253 738 338 840 z "},"Ŏ":{"ha":960,"x_min":0,"x_max":0,"o":"m 478 1047 b 706 1247 608 1047 694 1136 l 600 1268 b 478 1175 583 1214 542 1175 b 357 1268 414 1175 375 1214 l 253 1247 b 478 1047 264 1136 347 1047 z m 481 981 b 60 479 224 981 60 794 b 481 -21 60 158 224 -21 b 900 481 738 -21 900 164 b 481 981 900 801 738 981 z m 481 840 b 707 481 625 840 707 738 b 481 119 707 221 624 119 b 253 479 340 119 253 221 b 481 840 253 738 338 840 z "},"Ǒ":{"ha":960,"x_min":0,"x_max":0,"o":"m 661 1289 l 481 1174 l 300 1289 l 232 1211 l 425 1044 l 536 1044 l 729 1211 z m 481 981 b 60 479 224 981 60 794 b 481 -21 60 158 224 -21 b 900 481 738 -21 900 164 b 481 981 900 801 738 981 z m 481 840 b 707 481 625 840 707 738 b 481 119 707 221 624 119 b 253 479 340 119 253 221 b 481 840 253 738 338 840 z "},"Ɵ":{"ha":960,"x_min":0,"x_max":0,"o":"m 481 981 b 60 479 224 981 60 794 b 481 -21 60 158 224 -21 b 900 481 738 -21 900 164 b 481 981 900 801 738 981 z m 481 840 b 710 544 613 840 696 756 l 250 544 b 481 840 265 756 350 840 z m 481 119 b 250 431 350 119 261 208 l 711 431 b 481 119 700 208 615 119 z "},"Ô":{"ha":960,"x_min":0,"x_max":0,"o":"m 660 1051 l 728 1128 l 535 1296 l 424 1296 l 231 1128 l 299 1051 l 479 1165 z m 481 981 b 60 479 224 981 60 794 b 481 -21 60 158 224 -21 b 900 481 738 -21 900 164 b 481 981 900 801 738 981 z m 481 840 b 707 481 625 840 707 738 b 481 119 707 221 624 119 b 253 479 340 119 253 221 b 481 840 253 738 338 840 z "},"Ố":{"ha":960,"x_min":0,"x_max":0,"o":"m 788 1471 l 614 1250 l 683 1188 l 889 1374 z m 658 999 l 726 1075 l 533 1243 l 422 1243 l 229 1075 l 297 999 l 478 1113 z m 481 981 b 60 479 224 981 60 794 b 481 -21 60 158 224 -21 b 900 481 738 -21 900 164 b 481 981 900 801 738 981 z m 481 840 b 707 481 625 840 707 738 b 481 119 707 221 624 119 b 253 479 340 119 253 221 b 481 840 253 738 338 840 z "},"Ộ":{"ha":960,"x_min":0,"x_max":0,"o":"m 660 1051 l 728 1128 l 535 1296 l 424 1296 l 231 1128 l 299 1051 l 479 1165 z m 481 981 b 60 479 224 981 60 794 b 481 -21 60 158 224 -21 b 900 481 738 -21 900 164 b 481 981 900 801 738 981 z m 481 840 b 707 481 625 840 707 738 b 481 119 707 221 624 119 b 253 479 340 119 253 221 b 481 840 253 738 338 840 z m 481 -307 b 592 -199 546 -307 592 -260 b 481 -92 592 -139 546 -92 b 368 -199 414 -92 368 -139 b 481 -307 368 -260 414 -307 z "},"Ồ":{"ha":960,"x_min":0,"x_max":0,"o":"m 168 1471 l 68 1374 l 274 1188 l 343 1250 z m 658 999 l 726 1075 l 533 1243 l 422 1243 l 229 1075 l 297 999 l 478 1113 z m 481 981 b 60 479 224 981 60 794 b 481 -21 60 158 224 -21 b 900 481 738 -21 900 164 b 481 981 900 801 738 981 z m 481 840 b 707 481 625 840 707 738 b 481 119 707 221 624 119 b 253 479 340 119 253 221 b 481 840 253 738 338 840 z "},"Ổ":{"ha":960,"x_min":0,"x_max":0,"o":"m 646 1164 l 760 1164 l 760 1226 b 875 1351 832 1239 875 1281 b 713 1486 875 1432 818 1486 b 571 1451 651 1486 607 1472 l 604 1368 b 686 1388 631 1381 654 1388 b 744 1342 721 1388 744 1372 b 646 1285 744 1301 711 1292 z m 658 999 l 726 1075 l 533 1243 l 422 1243 l 229 1075 l 297 999 l 478 1113 z m 481 981 b 60 479 224 981 60 794 b 481 -21 60 158 224 -21 b 900 481 738 -21 900 164 b 481 981 900 801 738 981 z m 481 840 b 707 481 625 840 707 738 b 481 119 707 221 624 119 b 253 479 340 119 253 221 b 481 840 253 738 338 840 z "},"Ỗ":{"ha":960,"x_min":0,"x_max":0,"o":"m 558 1282 b 725 1419 631 1282 689 1336 l 631 1465 b 557 1406 606 1425 586 1406 b 396 1468 508 1406 478 1468 b 229 1328 318 1468 263 1406 l 325 1283 b 399 1343 347 1322 365 1343 b 558 1282 446 1343 481 1282 z m 657 999 l 725 1075 l 532 1243 l 421 1243 l 228 1075 l 296 999 l 476 1113 z m 481 981 b 60 479 224 981 60 794 b 481 -21 60 158 224 -21 b 900 481 738 -21 900 164 b 481 981 900 801 738 981 z m 481 840 b 707 481 625 840 707 738 b 481 119 707 221 624 119 b 253 479 340 119 253 221 b 481 840 253 738 338 840 z "},"Ȍ":{"ha":960,"x_min":0,"x_max":0,"o":"m 317 1401 l 188 1335 l 347 1099 l 444 1143 z m 546 1401 l 415 1338 l 561 1106 l 661 1147 z m 481 981 b 60 479 224 981 60 794 b 481 -21 60 158 224 -21 b 900 481 738 -21 900 164 b 481 981 900 801 738 981 z m 481 840 b 707 481 625 840 707 738 b 481 119 707 221 624 119 b 253 479 340 119 253 221 b 481 840 253 738 338 840 z "},"Ö":{"ha":960,"x_min":0,"x_max":0,"o":"m 325 1265 b 228 1169 271 1265 228 1224 b 325 1074 228 1115 271 1074 b 422 1169 381 1074 422 1115 b 325 1265 422 1224 381 1265 z m 632 1265 b 536 1169 579 1265 536 1224 b 632 1074 536 1115 579 1074 b 731 1169 689 1074 731 1115 b 632 1265 731 1224 689 1265 z m 481 981 b 60 479 224 981 60 794 b 481 -21 60 158 224 -21 b 900 481 738 -21 900 164 b 481 981 900 801 738 981 z m 481 840 b 707 481 625 840 707 738 b 481 119 707 221 624 119 b 253 479 340 119 253 221 b 481 840 253 738 338 840 z "},"Ȫ":{"ha":960,"x_min":0,"x_max":0,"o":"m 686 1283 l 686 1410 l 282 1410 l 282 1283 z m 326 1228 b 229 1132 272 1228 229 1186 b 326 1036 229 1078 272 1036 b 424 1132 382 1036 424 1078 b 326 1228 424 1186 382 1228 z m 633 1228 b 538 1132 581 1228 538 1186 b 633 1036 538 1078 581 1036 b 732 1132 690 1036 732 1078 b 633 1228 732 1186 690 1228 z m 481 981 b 60 479 224 981 60 794 b 481 -21 60 158 224 -21 b 900 481 738 -21 900 164 b 481 981 900 801 738 981 z m 481 840 b 707 481 625 840 707 738 b 481 119 707 221 624 119 b 253 479 340 119 253 221 b 481 840 253 738 338 840 z "},"Ȯ":{"ha":960,"x_min":0,"x_max":0,"o":"m 479 1282 b 368 1174 414 1282 368 1235 b 479 1067 368 1114 414 1067 b 592 1174 546 1067 592 1114 b 479 1282 592 1235 546 1282 z m 481 981 b 60 479 224 981 60 794 b 481 -21 60 158 224 -21 b 900 481 738 -21 900 164 b 481 981 900 801 738 981 z m 481 840 b 707 481 625 840 707 738 b 481 119 707 221 624 119 b 253 479 340 119 253 221 b 481 840 253 738 338 840 z "},"Ȱ":{"ha":960,"x_min":0,"x_max":0,"o":"m 685 1283 l 685 1410 l 281 1410 l 281 1283 z m 479 1240 b 368 1132 414 1240 368 1193 b 479 1025 368 1072 414 1025 b 592 1132 546 1025 592 1072 b 479 1240 592 1193 546 1240 z m 481 981 b 60 479 224 981 60 794 b 481 -21 60 158 224 -21 b 900 481 738 -21 900 164 b 481 981 900 801 738 981 z m 481 840 b 707 481 625 840 707 738 b 481 119 707 221 624 119 b 253 479 340 119 253 221 b 481 840 253 738 338 840 z "},"Ọ":{"ha":960,"x_min":0,"x_max":0,"o":"m 481 981 b 60 479 224 981 60 794 b 481 -21 60 158 224 -21 b 900 481 738 -21 900 164 b 481 981 900 801 738 981 z m 481 840 b 707 481 625 840 707 738 b 481 119 707 221 624 119 b 253 479 340 119 253 221 b 481 840 253 738 338 840 z m 481 -307 b 592 -199 546 -307 592 -260 b 481 -92 592 -139 546 -92 b 368 -199 414 -92 368 -139 b 481 -307 368 -260 414 -307 z "},"Ò":{"ha":960,"x_min":0,"x_max":0,"o":"m 360 1300 l 289 1161 l 607 1046 l 653 1138 z m 481 981 b 60 479 224 981 60 794 b 481 -21 60 158 224 -21 b 900 481 738 -21 900 164 b 481 981 900 801 738 981 z m 481 840 b 707 481 625 840 707 738 b 481 119 707 221 624 119 b 253 479 340 119 253 221 b 481 840 253 738 338 840 z "},"Ỏ":{"ha":960,"x_min":0,"x_max":0,"o":"m 419 1060 l 533 1060 l 533 1122 b 649 1247 606 1135 649 1176 b 486 1382 649 1328 592 1382 b 344 1347 425 1382 381 1368 l 378 1264 b 460 1283 404 1276 428 1283 b 518 1238 494 1283 518 1268 b 419 1181 518 1197 485 1188 z m 481 981 b 60 479 224 981 60 794 b 481 -21 60 158 224 -21 b 900 481 738 -21 900 164 b 481 981 900 801 738 981 z m 481 840 b 707 481 625 840 707 738 b 481 119 707 221 624 119 b 253 479 340 119 253 221 b 481 840 253 738 338 840 z "},"Ơ":{"ha":986,"x_min":0,"x_max":0,"o":"m 960 956 b 933 1074 960 1010 947 1047 l 810 1053 b 829 956 821 1025 829 1000 b 758 881 829 913 808 888 b 481 981 688 946 593 981 b 60 479 224 981 60 794 b 481 -21 60 158 224 -21 b 900 481 738 -21 900 164 b 826 796 900 610 874 715 b 960 956 911 814 960 874 z m 481 119 b 253 479 340 119 253 221 b 481 840 253 738 338 840 b 707 481 625 840 707 738 b 481 119 707 221 624 119 z "},"Ớ":{"ha":986,"x_min":0,"x_max":0,"o":"m 663 1161 l 592 1300 l 299 1138 l 344 1046 z m 960 956 b 933 1074 960 1010 947 1047 l 810 1053 b 829 956 821 1025 829 1000 b 758 881 829 913 808 888 b 481 981 688 946 593 981 b 60 479 224 981 60 794 b 481 -21 60 158 224 -21 b 900 481 738 -21 900 164 b 826 796 900 610 874 715 b 960 956 911 814 960 874 z m 481 119 b 253 479 340 119 253 221 b 481 840 253 738 338 840 b 707 481 625 840 707 738 b 481 119 707 221 624 119 z "},"Ợ":{"ha":986,"x_min":0,"x_max":0,"o":"m 960 956 b 933 1074 960 1010 947 1047 l 810 1053 b 829 956 821 1025 829 1000 b 758 881 829 913 808 888 b 481 981 688 946 593 981 b 60 479 224 981 60 794 b 481 -21 60 158 224 -21 b 900 481 738 -21 900 164 b 826 796 900 610 874 715 b 960 956 911 814 960 874 z m 481 119 b 253 479 340 119 253 221 b 481 840 253 738 338 840 b 707 481 625 840 707 738 b 481 119 707 221 624 119 z m 481 -92 b 368 -199 414 -92 368 -139 b 481 -307 368 -260 414 -307 b 592 -199 546 -307 592 -260 b 481 -92 592 -139 546 -92 z "},"Ờ":{"ha":986,"x_min":0,"x_max":0,"o":"m 653 1138 l 360 1300 l 289 1161 l 607 1046 z m 960 956 b 933 1074 960 1010 947 1047 l 810 1053 b 829 956 821 1025 829 1000 b 758 881 829 913 808 888 b 481 981 688 946 593 981 b 60 479 224 981 60 794 b 481 -21 60 158 224 -21 b 900 481 738 -21 900 164 b 826 796 900 610 874 715 b 960 956 911 814 960 874 z m 481 119 b 253 479 340 119 253 221 b 481 840 253 738 338 840 b 707 481 625 840 707 738 b 481 119 707 221 624 119 z "},"Ở":{"ha":986,"x_min":0,"x_max":0,"o":"m 460 1283 b 518 1238 494 1283 518 1268 b 419 1181 518 1197 485 1188 l 419 1060 l 533 1060 l 533 1122 b 649 1247 606 1135 649 1176 b 486 1382 649 1328 592 1382 b 344 1347 425 1382 381 1368 l 378 1264 b 460 1283 404 1276 428 1283 z m 960 956 b 933 1074 960 1010 947 1047 l 810 1053 b 829 956 821 1025 829 1000 b 758 881 829 913 808 888 b 481 981 688 946 593 981 b 60 479 224 981 60 794 b 481 -21 60 158 224 -21 b 900 481 738 -21 900 164 b 826 796 900 610 874 715 b 960 956 911 814 960 874 z m 481 119 b 253 479 340 119 253 221 b 481 840 253 738 338 840 b 707 481 625 840 707 738 b 481 119 707 221 624 119 z "},"Ỡ":{"ha":986,"x_min":0,"x_max":0,"o":"m 401 1135 b 561 1069 449 1135 483 1069 b 728 1213 633 1069 692 1126 l 633 1260 b 560 1200 608 1219 589 1200 b 399 1264 511 1200 481 1264 b 232 1119 321 1264 265 1199 l 328 1072 b 401 1135 350 1113 368 1135 z m 960 956 b 933 1074 960 1010 947 1047 l 810 1053 b 829 956 821 1025 829 1000 b 758 881 829 913 808 888 b 481 981 688 946 593 981 b 60 479 224 981 60 794 b 481 -21 60 158 224 -21 b 900 481 738 -21 900 164 b 826 796 900 610 874 715 b 960 956 911 814 960 874 z m 481 119 b 253 479 340 119 253 221 b 481 840 253 738 338 840 b 707 481 625 840 707 738 b 481 119 707 221 624 119 z "},"Ő":{"ha":960,"x_min":0,"x_max":0,"o":"m 424 1351 l 308 1097 l 408 1056 l 554 1288 z m 653 1351 l 525 1093 l 622 1049 l 782 1285 z m 481 981 b 60 479 224 981 60 794 b 481 -21 60 158 224 -21 b 900 481 738 -21 900 164 b 481 981 900 801 738 981 z m 481 840 b 707 481 625 840 707 738 b 481 119 707 221 624 119 b 253 479 340 119 253 221 b 481 840 253 738 338 840 z "},"Ƣ":{"ha":1313,"x_min":0,"x_max":0,"o":"m 943 982 b 719 908 856 982 788 957 b 481 981 653 956 571 981 b 60 479 224 981 60 794 b 481 -21 60 158 224 -21 b 900 481 738 -21 900 164 b 807 819 900 622 867 736 b 922 849 847 839 879 849 b 1015 743 982 849 1015 817 l 1015 -286 l 1200 -286 l 1200 736 b 943 982 1200 897 1106 982 z m 481 119 b 253 479 340 119 253 221 b 481 840 253 738 338 840 b 707 481 625 840 707 738 b 481 119 707 221 624 119 z "},"Ȏ":{"ha":960,"x_min":0,"x_max":0,"o":"m 478 1303 b 253 1088 347 1303 264 1213 l 357 1068 b 478 1175 375 1136 414 1175 b 600 1068 542 1175 583 1136 l 706 1088 b 478 1303 694 1213 608 1303 z m 481 981 b 60 479 224 981 60 794 b 481 -21 60 158 224 -21 b 900 481 738 -21 900 164 b 481 981 900 801 738 981 z m 481 840 b 707 481 625 840 707 738 b 481 119 707 221 624 119 b 253 479 340 119 253 221 b 481 840 253 738 338 840 z "},"Ō":{"ha":960,"x_min":0,"x_max":0,"o":"m 682 1093 l 682 1219 l 278 1219 l 278 1093 z m 481 981 b 60 479 224 981 60 794 b 481 -21 60 158 224 -21 b 900 481 738 -21 900 164 b 481 981 900 801 738 981 z m 481 840 b 707 481 625 840 707 738 b 481 119 707 221 624 119 b 253 479 340 119 253 221 b 481 840 253 738 338 840 z "},"Ṓ":{"ha":960,"x_min":0,"x_max":0,"o":"m 593 1489 l 300 1326 l 346 1235 l 664 1350 z m 682 1056 l 682 1182 l 278 1182 l 278 1056 z m 481 981 b 60 479 224 981 60 794 b 481 -21 60 158 224 -21 b 900 481 738 -21 900 164 b 481 981 900 801 738 981 z m 481 840 b 707 481 625 840 707 738 b 481 119 707 221 624 119 b 253 479 340 119 253 221 b 481 840 253 738 338 840 z "},"Ṑ":{"ha":960,"x_min":0,"x_max":0,"o":"m 363 1489 l 292 1350 l 610 1235 l 656 1326 z m 682 1056 l 682 1182 l 278 1182 l 278 1056 z m 481 981 b 60 479 224 981 60 794 b 481 -21 60 158 224 -21 b 900 481 738 -21 900 164 b 481 981 900 801 738 981 z m 481 840 b 707 481 625 840 707 738 b 481 119 707 221 624 119 b 253 479 340 119 253 221 b 481 840 253 738 338 840 z "},"Ǫ":{"ha":960,"x_min":0,"x_max":0,"o":"m 900 481 b 481 981 900 801 738 981 b 60 479 224 981 60 794 b 417 -17 60 186 197 11 b 318 -181 353 -60 318 -112 b 508 -332 318 -271 396 -332 b 601 -322 546 -332 572 -328 l 615 -204 b 531 -214 583 -211 558 -214 b 456 -150 478 -214 456 -192 b 622 0 456 -106 483 -56 l 622 1 b 900 481 796 58 900 228 z m 481 119 b 253 479 340 119 253 221 b 481 840 253 738 338 840 b 707 481 625 840 707 738 b 481 119 707 221 624 119 z "},"Ǭ":{"ha":960,"x_min":0,"x_max":0,"o":"m 682 1219 l 278 1219 l 278 1093 l 682 1093 z m 900 481 b 481 981 900 801 738 981 b 60 479 224 981 60 794 b 417 -17 60 186 197 11 b 318 -181 353 -60 318 -112 b 508 -332 318 -271 396 -332 b 601 -322 546 -332 572 -328 l 615 -204 b 531 -214 583 -211 558 -214 b 456 -150 478 -214 456 -192 b 622 0 456 -106 483 -56 l 622 1 b 900 481 796 58 900 228 z m 481 119 b 253 479 340 119 253 221 b 481 840 253 738 338 840 b 707 481 625 840 707 738 b 481 119 707 221 624 119 z "},"Ɔ":{"ha":789,"x_min":0,"x_max":0,"o":"m 335 981 b 29 879 206 981 113 944 l 121 771 b 324 839 181 814 244 839 b 536 482 444 839 536 742 b 301 126 536 229 436 126 b 104 204 217 126 160 164 l 18 96 b 310 -21 82 36 176 -21 b 729 482 557 -21 729 156 b 335 981 729 804 574 981 z "},"Ø":{"ha":960,"x_min":0,"x_max":0,"o":"m 696 926 l 754 1106 l 610 1144 l 558 975 b 481 981 533 979 507 981 b 60 479 224 981 60 794 b 263 35 60 263 135 110 l 207 -144 l 350 -182 l 400 -14 b 481 -21 426 -18 453 -21 b 900 481 738 -21 900 164 b 696 926 900 699 825 851 z m 481 840 b 535 836 499 840 517 839 l 333 171 b 253 479 282 222 253 317 b 481 840 253 738 338 840 z m 481 119 b 425 125 461 119 443 121 l 625 792 b 707 481 678 740 707 646 b 481 119 707 221 624 119 z "},"Ǿ":{"ha":960,"x_min":0,"x_max":0,"o":"m 657 1196 l 586 1335 l 293 1172 l 339 1081 z m 696 926 l 754 1106 l 610 1144 l 558 975 b 481 981 533 979 507 981 b 60 479 224 981 60 794 b 263 35 60 263 135 110 l 207 -144 l 350 -182 l 400 -14 b 481 -21 426 -18 453 -21 b 900 481 738 -21 900 164 b 696 926 900 699 825 851 z m 481 840 b 535 836 499 840 517 839 l 333 171 b 253 479 282 222 253 317 b 481 840 253 738 338 840 z m 481 119 b 425 125 461 119 443 121 l 625 792 b 707 481 678 740 707 646 b 481 119 707 221 624 119 z "},"Õ":{"ha":960,"x_min":0,"x_max":0,"o":"m 561 1069 b 728 1213 633 1069 692 1126 l 633 1260 b 560 1200 608 1219 589 1200 b 399 1264 511 1200 481 1264 b 232 1119 321 1264 265 1199 l 328 1072 b 401 1135 350 1113 368 1135 b 561 1069 449 1135 483 1069 z m 481 981 b 60 479 224 981 60 794 b 481 -21 60 158 224 -21 b 900 481 738 -21 900 164 b 481 981 900 801 738 981 z m 481 840 b 707 481 625 840 707 738 b 481 119 707 221 624 119 b 253 479 340 119 253 221 b 481 840 253 738 338 840 z "},"Ṍ":{"ha":960,"x_min":0,"x_max":0,"o":"m 592 1524 l 299 1361 l 344 1269 l 663 1385 z m 561 1050 b 728 1193 633 1050 692 1107 l 633 1240 b 560 1181 608 1200 589 1181 b 399 1244 511 1181 481 1244 b 232 1100 321 1244 265 1179 l 328 1053 b 401 1115 350 1093 368 1115 b 561 1050 449 1115 483 1050 z m 481 981 b 60 479 224 981 60 794 b 481 -21 60 158 224 -21 b 900 481 738 -21 900 164 b 481 981 900 801 738 981 z m 481 840 b 707 481 625 840 707 738 b 481 119 707 221 624 119 b 253 479 340 119 253 221 b 481 840 253 738 338 840 z "},"Ȭ":{"ha":960,"x_min":0,"x_max":0,"o":"m 682 1290 l 682 1417 l 278 1417 l 278 1290 z m 561 1050 b 728 1193 633 1050 692 1107 l 633 1240 b 560 1181 608 1200 589 1181 b 399 1244 511 1181 481 1244 b 232 1100 321 1244 265 1179 l 328 1053 b 401 1115 350 1093 368 1115 b 561 1050 449 1115 483 1050 z m 481 981 b 60 479 224 981 60 794 b 481 -21 60 158 224 -21 b 900 481 738 -21 900 164 b 481 981 900 801 738 981 z m 481 840 b 707 481 625 840 707 738 b 481 119 707 221 624 119 b 253 479 340 119 253 221 b 481 840 253 738 338 840 z "},"Œ":{"ha":1263,"x_min":0,"x_max":0,"o":"m 1190 138 l 758 138 b 869 419 822 210 860 308 l 1121 419 l 1121 556 l 869 556 b 765 824 858 661 824 754 l 1165 824 l 1186 960 l 582 960 b 460 981 546 974 504 981 b 60 479 224 981 60 794 b 460 -21 60 158 224 -21 b 576 0 501 -21 542 -14 l 1190 0 z m 253 479 b 467 840 253 738 338 840 b 679 481 597 840 679 738 b 467 119 679 221 596 119 b 253 479 340 119 253 221 z "},"P":{"ha":821,"x_min":0,"x_max":0,"o":"m 396 960 l 113 960 l 113 0 l 296 0 l 296 335 l 408 335 b 785 654 625 335 785 433 b 396 960 785 861 638 960 z m 394 472 l 296 472 l 296 825 l 394 825 b 593 654 519 825 593 775 b 394 472 593 514 517 472 z "},"Ṕ":{"ha":821,"x_min":0,"x_max":0,"o":"m 593 1161 l 522 1300 l 229 1138 l 275 1046 z m 396 960 l 113 960 l 113 0 l 296 0 l 296 335 l 408 335 b 785 654 625 335 785 433 b 396 960 785 861 638 960 z m 394 472 l 296 472 l 296 825 l 394 825 b 593 654 519 825 593 775 b 394 472 593 514 517 472 z "},"Ṗ":{"ha":821,"x_min":0,"x_max":0,"o":"m 410 1067 b 522 1174 476 1067 522 1114 b 410 1282 522 1235 476 1282 b 299 1174 344 1282 299 1235 b 410 1067 299 1114 344 1067 z m 396 960 l 113 960 l 113 0 l 296 0 l 296 335 l 408 335 b 785 654 625 335 785 433 b 396 960 785 861 638 960 z m 394 472 l 296 472 l 296 825 l 394 825 b 593 654 519 825 593 775 b 394 472 593 514 517 472 z "},"Ƥ":{"ha":981,"x_min":0,"x_max":0,"o":"m 556 960 l 274 960 l 240 960 b 10 769 94 960 10 885 b 68 611 10 706 39 656 l 185 665 b 161 761 171 700 161 728 b 231 824 161 801 183 824 l 272 824 l 272 0 l 456 0 l 456 335 l 568 335 b 944 654 785 335 944 433 b 556 960 944 861 796 960 z m 554 472 l 456 472 l 456 825 l 554 825 b 753 654 679 825 753 775 b 554 472 753 514 675 472 z "},"Þ":{"ha":821,"x_min":0,"x_max":0,"o":"m 396 803 l 296 803 l 296 960 l 113 960 l 113 0 l 296 0 l 296 167 l 408 167 b 785 493 625 167 785 265 b 396 803 785 704 638 803 z m 394 304 l 296 304 l 296 668 l 394 668 b 593 493 519 668 593 618 b 394 304 593 346 517 304 z "},"Q":{"ha":957,"x_min":0,"x_max":0,"o":"m 676 58 b 900 481 804 126 900 246 b 481 981 900 801 738 981 b 60 479 224 981 60 794 b 471 -17 60 158 224 -17 b 836 -176 649 -17 739 -78 l 950 -28 b 676 58 878 24 796 58 z m 253 479 b 481 840 253 738 338 840 b 707 481 625 840 707 738 b 481 119 707 221 624 119 b 253 479 340 119 253 221 z "},"Ɋ":{"ha":932,"x_min":0,"x_max":0,"o":"m 1000 -133 b 900 -164 967 -153 943 -164 b 819 -71 849 -164 819 -135 l 819 960 l 656 960 l 646 894 b 433 981 593 946 524 981 b 60 451 226 981 60 792 b 425 -21 60 146 219 -21 b 636 71 514 -21 585 11 l 636 -60 b 883 -303 636 -222 733 -303 b 1063 -246 965 -303 1022 -276 z m 461 118 b 253 451 339 118 253 206 b 469 840 253 733 339 840 b 636 767 539 840 593 814 l 636 196 b 461 118 586 142 529 118 z "},"R":{"ha":849,"x_min":0,"x_max":0,"o":"m 625 0 l 836 0 l 585 418 b 779 678 715 469 779 546 b 399 960 779 868 650 960 l 113 960 l 113 0 l 296 0 l 296 385 l 413 385 z m 296 826 l 394 826 b 588 678 528 826 588 782 b 410 517 588 563 524 517 l 296 517 z "},"Ŕ":{"ha":849,"x_min":0,"x_max":0,"o":"m 604 1161 l 533 1300 l 240 1138 l 286 1046 z m 625 0 l 836 0 l 585 418 b 779 678 715 469 779 546 b 399 960 779 868 650 960 l 113 960 l 113 0 l 296 0 l 296 385 l 413 385 z m 296 826 l 394 826 b 588 678 528 826 588 782 b 410 517 588 563 524 517 l 296 517 z "},"Ř":{"ha":849,"x_min":0,"x_max":0,"o":"m 478 1044 l 671 1211 l 603 1289 l 422 1174 l 242 1289 l 174 1211 l 367 1044 z m 625 0 l 836 0 l 585 418 b 779 678 715 469 779 546 b 399 960 779 868 650 960 l 113 960 l 113 0 l 296 0 l 296 385 l 413 385 z m 296 826 l 394 826 b 588 678 528 826 588 782 b 410 517 588 563 524 517 l 296 517 z "},"Ŗ":{"ha":849,"x_min":0,"x_max":0,"o":"m 585 418 b 779 678 715 469 779 546 b 399 960 779 868 650 960 l 113 960 l 113 0 l 296 0 l 296 385 l 413 385 l 625 0 l 836 0 z m 296 826 l 394 826 b 588 678 528 826 588 782 b 410 517 588 563 524 517 l 296 517 z m 433 -100 b 336 -194 378 -100 336 -142 b 376 -272 336 -228 353 -254 l 338 -433 l 431 -433 l 492 -307 b 529 -194 519 -250 529 -225 b 433 -100 529 -140 488 -100 z "},"Ȑ":{"ha":849,"x_min":0,"x_max":0,"o":"m 386 1143 l 258 1401 l 129 1335 l 289 1099 z m 603 1147 l 488 1401 l 357 1338 l 503 1106 z m 625 0 l 836 0 l 585 418 b 779 678 715 469 779 546 b 399 960 779 868 650 960 l 113 960 l 113 0 l 296 0 l 296 385 l 413 385 z m 296 826 l 394 826 b 588 678 528 826 588 782 b 410 517 588 563 524 517 l 296 517 z "},"Ṛ":{"ha":849,"x_min":0,"x_max":0,"o":"m 585 418 b 779 678 715 469 779 546 b 399 960 779 868 650 960 l 113 960 l 113 0 l 296 0 l 296 385 l 413 385 l 625 0 l 836 0 z m 296 826 l 394 826 b 588 678 528 826 588 782 b 410 517 588 563 524 517 l 296 517 z m 431 -92 b 318 -199 364 -92 318 -139 b 431 -307 318 -260 364 -307 b 542 -199 496 -307 542 -260 b 431 -92 542 -139 496 -92 z "},"Ȓ":{"ha":849,"x_min":0,"x_max":0,"o":"m 419 1175 b 542 1068 483 1175 525 1136 l 647 1088 b 419 1303 636 1213 550 1303 b 194 1088 289 1303 206 1213 l 299 1068 b 419 1175 317 1136 356 1175 z m 625 0 l 836 0 l 585 418 b 779 678 715 469 779 546 b 399 960 779 868 650 960 l 113 960 l 113 0 l 296 0 l 296 385 l 413 385 z m 296 826 l 394 826 b 588 678 528 826 588 782 b 410 517 588 563 524 517 l 296 517 z "},"Ɍ":{"ha":867,"x_min":0,"x_max":0,"o":"m 642 0 l 853 0 l 603 418 b 797 678 733 469 797 547 b 415 960 797 868 668 960 l 129 960 l 129 517 l 24 517 l 24 385 l 129 385 l 129 0 l 314 0 l 314 385 l 431 385 z m 413 826 b 606 678 544 826 606 782 b 428 517 606 563 542 517 l 317 517 l 314 517 l 314 826 z "},"Ɽ":{"ha":849,"x_min":0,"x_max":0,"o":"m 296 -71 l 296 385 l 413 385 l 625 0 l 836 0 l 585 418 b 779 678 715 469 779 546 b 399 960 779 868 650 960 l 113 960 l 113 -60 b 360 -303 113 -222 210 -303 b 539 -246 442 -303 499 -276 l 475 -133 b 376 -164 443 -153 419 -164 b 296 -71 325 -164 296 -135 z m 394 826 b 588 678 528 826 588 782 b 410 517 588 563 524 517 l 296 517 l 296 826 z "},"S":{"ha":778,"x_min":0,"x_max":0,"o":"m 389 981 b 63 715 200 981 63 875 b 351 426 63 569 150 489 b 542 264 501 381 542 344 b 365 121 542 171 468 121 b 119 217 265 121 189 157 l 24 111 b 369 -21 103 33 217 -21 b 733 274 599 -21 733 101 b 449 576 733 454 617 524 b 251 726 289 626 251 657 b 400 840 251 801 314 840 b 615 758 479 840 546 815 l 706 863 b 389 981 622 939 529 981 z "},"Ś":{"ha":778,"x_min":0,"x_max":0,"o":"m 510 1300 l 217 1138 l 263 1046 l 581 1161 z m 389 981 b 63 715 200 981 63 875 b 351 426 63 569 150 489 b 542 264 501 381 542 344 b 365 121 542 171 468 121 b 119 217 265 121 189 157 l 24 111 b 369 -21 103 33 217 -21 b 733 274 599 -21 733 101 b 449 576 733 454 617 524 b 251 726 289 626 251 657 b 400 840 251 801 314 840 b 615 758 479 840 546 815 l 706 863 b 389 981 622 939 529 981 z "},"Ꞌ":{"ha":332,"x_min":0,"x_max":0,"o":"m 97 472 l 233 472 l 257 960 l 74 960 z "},"Š":{"ha":778,"x_min":0,"x_max":0,"o":"m 579 1289 l 399 1174 l 218 1289 l 150 1211 l 343 1044 l 454 1044 l 647 1211 z m 389 981 b 63 715 200 981 63 875 b 351 426 63 569 150 489 b 542 264 501 381 542 344 b 365 121 542 171 468 121 b 119 217 265 121 189 157 l 24 111 b 369 -21 103 33 217 -21 b 733 274 599 -21 733 101 b 449 576 733 454 617 524 b 251 726 289 626 251 657 b 400 840 251 801 314 840 b 615 758 479 840 546 815 l 706 863 b 389 981 622 939 529 981 z "},"Ş":{"ha":778,"x_min":0,"x_max":0,"o":"m 733 274 b 449 576 733 454 617 524 b 251 726 289 626 251 657 b 400 840 251 801 314 840 b 615 758 479 840 546 815 l 706 863 b 389 981 622 939 529 981 b 63 715 200 981 63 875 b 351 426 63 569 150 489 b 542 264 501 381 542 344 b 365 121 542 171 468 121 b 119 217 265 121 189 157 l 24 111 b 325 -19 94 42 194 -10 l 310 -147 b 436 -200 399 -147 436 -164 b 368 -247 436 -235 407 -247 b 281 -225 333 -247 307 -239 l 238 -312 b 381 -351 269 -335 321 -351 b 571 -200 492 -351 571 -293 b 433 -72 571 -133 531 -82 l 433 -17 b 733 274 624 4 733 118 z "},"Ŝ":{"ha":778,"x_min":0,"x_max":0,"o":"m 578 1051 l 646 1128 l 453 1296 l 342 1296 l 149 1128 l 217 1051 l 397 1165 z m 389 981 b 63 715 200 981 63 875 b 351 426 63 569 150 489 b 542 264 501 381 542 344 b 365 121 542 171 468 121 b 119 217 265 121 189 157 l 24 111 b 369 -21 103 33 217 -21 b 733 274 599 -21 733 101 b 449 576 733 454 617 524 b 251 726 289 626 251 657 b 400 840 251 801 314 840 b 615 758 479 840 546 815 l 706 863 b 389 981 622 939 529 981 z "},"Ș":{"ha":778,"x_min":0,"x_max":0,"o":"m 389 981 b 63 715 200 981 63 875 b 351 426 63 569 150 489 b 542 264 501 381 542 344 b 365 121 542 171 468 121 b 119 217 265 121 189 157 l 24 111 b 369 -21 103 33 217 -21 b 733 274 599 -21 733 101 b 449 576 733 454 617 524 b 251 726 289 626 251 657 b 400 840 251 801 314 840 b 615 758 479 840 546 815 l 706 863 b 389 981 622 939 529 981 z m 386 -100 b 289 -194 331 -100 289 -142 b 329 -272 289 -228 306 -254 l 290 -433 l 383 -433 l 444 -307 b 482 -194 472 -250 482 -225 b 386 -100 482 -140 440 -100 z "},"Ṡ":{"ha":778,"x_min":0,"x_max":0,"o":"m 397 1282 b 286 1174 332 1282 286 1235 b 397 1067 286 1114 332 1067 b 510 1174 464 1067 510 1114 b 397 1282 510 1235 464 1282 z m 389 981 b 63 715 200 981 63 875 b 351 426 63 569 150 489 b 542 264 501 381 542 344 b 365 121 542 171 468 121 b 119 217 265 121 189 157 l 24 111 b 369 -21 103 33 217 -21 b 733 274 599 -21 733 101 b 449 576 733 454 617 524 b 251 726 289 626 251 657 b 400 840 251 801 314 840 b 615 758 479 840 546 815 l 706 863 b 389 981 622 939 529 981 z "},"Ṣ":{"ha":778,"x_min":0,"x_max":0,"o":"m 389 981 b 63 715 200 981 63 875 b 351 426 63 569 150 489 b 542 264 501 381 542 344 b 365 121 542 171 468 121 b 119 217 265 121 189 157 l 24 111 b 369 -21 103 33 217 -21 b 733 274 599 -21 733 101 b 449 576 733 454 617 524 b 251 726 289 626 251 657 b 400 840 251 801 314 840 b 615 758 479 840 546 815 l 706 863 b 389 981 622 939 529 981 z m 383 -307 b 494 -199 449 -307 494 -260 b 383 -92 494 -139 449 -92 b 271 -199 317 -92 271 -139 b 383 -307 271 -260 317 -307 z "},"ẞ":{"ha":922,"x_min":0,"x_max":0,"o":"m 433 981 b 113 676 224 981 113 867 l 113 0 l 296 0 l 296 679 b 442 840 296 789 344 840 b 639 801 514 840 578 825 l 424 556 l 424 443 b 681 272 596 436 681 385 b 528 122 681 169 622 122 b 429 139 483 122 454 129 l 375 14 b 547 -21 414 -7 475 -21 b 874 271 733 -21 874 82 b 588 543 874 435 767 521 l 808 786 l 808 882 b 433 981 701 936 581 981 z "},"Ə":{"ha":894,"x_min":0,"x_max":0,"o":"m 433 981 b 100 860 297 981 193 939 l 186 756 b 419 840 249 803 322 840 b 646 550 557 840 639 757 l 51 550 b 46 468 49 524 46 493 b 438 -21 46 161 175 -21 b 835 492 672 -21 835 146 b 433 981 835 819 682 981 z m 433 118 b 225 417 310 118 228 201 l 646 417 b 433 118 636 200 558 118 z "},"T":{"ha":736,"x_min":0,"x_max":0,"o":"m 729 960 l 17 960 l 17 814 l 275 814 l 275 0 l 460 0 l 460 814 l 710 814 z "},"Ŧ":{"ha":738,"x_min":0,"x_max":0,"o":"m 710 811 l 729 958 l 17 958 l 17 811 l 275 811 l 275 539 l 111 539 l 111 425 l 275 425 l 275 -1 l 460 -1 l 460 425 l 626 425 l 626 539 l 460 539 l 460 811 z "},"Ť":{"ha":736,"x_min":0,"x_max":0,"o":"m 549 1289 l 368 1174 l 188 1289 l 119 1211 l 313 1044 l 424 1044 l 617 1211 z m 729 960 l 17 960 l 17 814 l 275 814 l 275 0 l 460 0 l 460 814 l 710 814 z "},"Ţ":{"ha":736,"x_min":0,"x_max":0,"o":"m 460 -72 l 460 814 l 710 814 l 729 960 l 17 960 l 17 814 l 275 814 l 275 0 l 357 0 l 339 -147 b 465 -199 428 -147 465 -164 b 393 -247 465 -235 435 -247 b 310 -225 361 -247 336 -239 l 267 -312 b 406 -351 297 -335 347 -351 b 600 -200 519 -351 600 -293 b 460 -72 600 -133 557 -82 z "},"Ṱ":{"ha":736,"x_min":0,"x_max":0,"o":"m 729 960 l 17 960 l 17 814 l 275 814 l 275 0 l 460 0 l 460 814 l 710 814 z m 188 -343 l 368 -221 l 549 -343 l 617 -265 l 424 -90 l 311 -90 l 119 -265 z "},"Ț":{"ha":736,"x_min":0,"x_max":0,"o":"m 729 960 l 17 960 l 17 814 l 275 814 l 275 0 l 460 0 l 460 814 l 710 814 z m 371 -100 b 274 -194 315 -100 274 -142 b 314 -272 274 -228 290 -254 l 275 -433 l 368 -433 l 429 -307 b 467 -194 457 -250 467 -225 b 371 -100 467 -140 425 -100 z "},"Ⱦ":{"ha":736,"x_min":0,"x_max":0,"o":"m 710 818 l 729 960 l 642 960 l 668 1022 l 603 1051 l 564 960 l 17 960 l 17 818 l 283 818 l 283 308 l 119 -72 l 185 -100 l 283 128 l 283 0 l 451 0 l 451 519 l 581 818 z m 451 700 l 451 818 l 503 818 z "},"Ṫ":{"ha":736,"x_min":0,"x_max":0,"o":"m 367 1282 b 256 1174 301 1282 256 1235 b 367 1067 256 1114 301 1067 b 479 1174 433 1067 479 1114 b 367 1282 479 1235 433 1282 z m 729 960 l 17 960 l 17 814 l 275 814 l 275 0 l 460 0 l 460 814 l 710 814 z "},"Ṭ":{"ha":736,"x_min":0,"x_max":0,"o":"m 729 960 l 17 960 l 17 814 l 275 814 l 275 0 l 460 0 l 460 814 l 710 814 z m 368 -307 b 479 -199 433 -307 479 -260 b 368 -92 479 -139 433 -92 b 256 -199 301 -92 256 -139 b 368 -307 256 -260 301 -307 z "},"Ƭ":{"ha":801,"x_min":0,"x_max":0,"o":"m 794 960 l 247 960 b 10 768 97 960 10 885 b 61 610 10 707 35 653 l 188 668 b 164 754 175 697 164 721 b 232 814 164 790 186 814 l 342 814 l 342 0 l 525 0 l 525 814 l 775 814 z "},"Ṯ":{"ha":736,"x_min":0,"x_max":0,"o":"m 729 960 l 17 960 l 17 814 l 275 814 l 275 0 l 460 0 l 460 814 l 710 814 z m 569 -253 l 569 -126 l 165 -126 l 165 -253 z "},"Ƽ":{"ha":733,"x_min":0,"x_max":0,"o":"m 642 960 l 90 960 l 90 460 l 217 460 b 349 492 267 482 303 492 b 497 313 433 492 497 447 b 322 117 497 183 432 117 b 129 207 244 117 181 149 l 26 111 b 326 -21 99 32 197 -21 b 681 311 543 -21 681 113 b 414 619 681 508 568 619 b 260 583 364 619 314 610 l 260 829 l 621 829 z "},"Ƅ":{"ha":828,"x_min":0,"x_max":0,"o":"m 425 621 l 313 621 l 313 960 l 154 960 b 28 768 121 888 76 819 l 128 703 l 128 0 l 425 0 b 800 318 643 0 800 93 b 425 621 800 524 658 621 z m 421 138 l 313 138 l 313 488 l 415 488 b 607 315 540 488 607 438 b 421 138 607 179 532 138 z "},"Ƨ":{"ha":765,"x_min":0,"x_max":0,"o":"m 400 981 b 75 863 264 981 164 939 l 165 760 b 386 840 235 815 301 840 b 526 729 469 840 526 807 b 329 567 526 654 488 617 b 44 268 160 514 44 442 b 392 -21 44 101 181 -21 b 742 111 549 -21 663 33 l 647 215 b 403 122 578 158 497 122 b 236 261 307 122 236 171 b 425 435 236 339 275 389 b 717 724 624 496 717 574 b 400 981 717 879 589 981 z "},"Ʈ":{"ha":736,"x_min":0,"x_max":0,"o":"m 460 -71 l 460 814 l 710 814 l 729 960 l 17 960 l 17 814 l 275 814 l 275 0 l 276 0 l 276 -60 b 524 -303 276 -222 374 -303 b 703 -246 606 -303 663 -276 l 639 -133 b 540 -164 607 -153 583 -164 b 460 -71 489 -164 460 -135 z "},"U":{"ha":911,"x_min":0,"x_max":0,"o":"m 813 960 l 628 960 l 628 324 b 454 122 628 189 574 122 b 282 324 336 122 282 189 l 282 960 l 99 960 l 99 314 b 454 -21 99 117 218 -21 b 813 314 689 -21 813 121 z "},"Ú":{"ha":911,"x_min":0,"x_max":0,"o":"m 567 1300 l 274 1138 l 319 1046 l 638 1161 z m 813 960 l 628 960 l 628 324 b 454 122 628 189 574 122 b 282 324 336 122 282 189 l 282 960 l 99 960 l 99 314 b 454 -21 99 117 218 -21 b 813 314 689 -21 813 121 z "},"Ʉ":{"ha":951,"x_min":0,"x_max":0,"o":"m 919 813 l 833 813 l 833 960 l 649 960 l 649 813 l 303 813 l 303 960 l 118 960 l 118 813 l 32 813 l 32 700 l 118 700 l 118 314 b 475 -21 118 117 239 -21 b 833 314 710 -21 833 121 l 833 700 l 919 700 z m 649 324 b 475 122 649 189 594 122 b 303 324 357 122 303 189 l 303 700 l 649 700 z "},"Ŭ":{"ha":911,"x_min":0,"x_max":0,"o":"m 454 1047 b 682 1247 585 1047 671 1136 l 576 1268 b 454 1175 560 1214 518 1175 b 333 1268 390 1175 351 1214 l 229 1247 b 454 1047 240 1136 324 1047 z m 813 960 l 628 960 l 628 324 b 454 122 628 189 574 122 b 282 324 336 122 282 189 l 282 960 l 99 960 l 99 314 b 454 -21 99 117 218 -21 b 813 314 689 -21 813 121 z "},"Ǔ":{"ha":911,"x_min":0,"x_max":0,"o":"m 636 1289 l 456 1174 l 275 1289 l 207 1211 l 400 1044 l 511 1044 l 704 1211 z m 813 960 l 628 960 l 628 324 b 454 122 628 189 574 122 b 282 324 336 122 282 189 l 282 960 l 99 960 l 99 314 b 454 -21 99 117 218 -21 b 813 314 689 -21 813 121 z "},"Û":{"ha":911,"x_min":0,"x_max":0,"o":"m 635 1051 l 703 1128 l 510 1296 l 399 1296 l 206 1128 l 274 1051 l 454 1165 z m 813 960 l 628 960 l 628 324 b 454 122 628 189 574 122 b 282 324 336 122 282 189 l 282 960 l 99 960 l 99 314 b 454 -21 99 117 218 -21 b 813 314 689 -21 813 121 z "},"Ȕ":{"ha":911,"x_min":0,"x_max":0,"o":"m 292 1401 l 163 1335 l 322 1099 l 419 1143 z m 521 1401 l 390 1338 l 536 1106 l 636 1147 z m 813 960 l 628 960 l 628 324 b 454 122 628 189 574 122 b 282 324 336 122 282 189 l 282 960 l 99 960 l 99 314 b 454 -21 99 117 218 -21 b 813 314 689 -21 813 121 z "},"Ü":{"ha":911,"x_min":0,"x_max":0,"o":"m 301 1265 b 204 1169 247 1265 204 1224 b 301 1074 204 1115 247 1074 b 399 1169 357 1074 399 1115 b 301 1265 399 1224 357 1265 z m 608 1265 b 513 1169 556 1265 513 1224 b 608 1074 513 1115 556 1074 b 707 1169 665 1074 707 1115 b 608 1265 707 1224 665 1265 z m 813 960 l 628 960 l 628 324 b 454 122 628 189 574 122 b 282 324 336 122 282 189 l 282 960 l 99 960 l 99 314 b 454 -21 99 117 218 -21 b 813 314 689 -21 813 121 z "},"Ǘ":{"ha":911,"x_min":0,"x_max":0,"o":"m 560 1472 l 386 1251 l 456 1189 l 661 1375 z m 297 1229 b 199 1133 240 1229 199 1188 b 297 1038 199 1079 240 1038 b 393 1133 350 1038 393 1079 b 297 1229 393 1188 350 1229 z m 614 1229 b 517 1133 558 1229 517 1188 b 614 1038 517 1079 558 1038 b 711 1133 668 1038 711 1079 b 614 1229 711 1188 668 1229 z m 813 960 l 628 960 l 628 324 b 454 122 628 189 574 122 b 282 324 336 122 282 189 l 282 960 l 99 960 l 99 314 b 454 -21 99 117 218 -21 b 813 314 689 -21 813 121 z "},"Ǚ":{"ha":911,"x_min":0,"x_max":0,"o":"m 633 1478 l 453 1363 l 272 1478 l 204 1400 l 397 1233 l 508 1233 l 701 1400 z m 297 1229 b 199 1133 242 1229 199 1188 b 297 1038 199 1079 242 1038 b 393 1133 351 1038 393 1079 b 297 1229 393 1188 351 1229 z m 614 1229 b 517 1133 560 1229 517 1188 b 614 1038 517 1079 560 1038 b 711 1133 669 1038 711 1079 b 614 1229 711 1188 669 1229 z m 813 960 l 628 960 l 628 324 b 454 122 628 189 574 122 b 282 324 336 122 282 189 l 282 960 l 99 960 l 99 314 b 454 -21 99 117 218 -21 b 813 314 689 -21 813 121 z "},"Ǜ":{"ha":911,"x_min":0,"x_max":0,"o":"m 353 1472 l 253 1375 l 458 1189 l 528 1251 z m 297 1229 b 199 1133 242 1229 199 1188 b 297 1038 199 1079 242 1038 b 393 1133 351 1038 393 1079 b 297 1229 393 1188 351 1229 z m 614 1229 b 517 1133 560 1229 517 1188 b 614 1038 517 1079 560 1038 b 711 1133 669 1038 711 1079 b 614 1229 711 1188 669 1229 z m 813 960 l 628 960 l 628 324 b 454 122 628 189 574 122 b 282 324 336 122 282 189 l 282 960 l 99 960 l 99 314 b 454 -21 99 117 218 -21 b 813 314 689 -21 813 121 z "},"Ǖ":{"ha":911,"x_min":0,"x_max":0,"o":"m 661 1283 l 661 1410 l 257 1410 l 257 1283 z m 301 1228 b 204 1132 247 1228 204 1186 b 301 1036 204 1078 247 1036 b 399 1132 357 1036 399 1078 b 301 1228 399 1186 357 1228 z m 608 1228 b 513 1132 556 1228 513 1186 b 608 1036 513 1078 556 1036 b 707 1132 665 1036 707 1078 b 608 1228 707 1186 665 1228 z m 813 960 l 628 960 l 628 324 b 454 122 628 189 574 122 b 282 324 336 122 282 189 l 282 960 l 99 960 l 99 314 b 454 -21 99 117 218 -21 b 813 314 689 -21 813 121 z "},"Ụ":{"ha":911,"x_min":0,"x_max":0,"o":"m 813 960 l 628 960 l 628 324 b 454 122 628 189 574 122 b 282 324 336 122 282 189 l 282 960 l 99 960 l 99 314 b 454 -21 99 117 218 -21 b 813 314 689 -21 813 121 z m 456 -307 b 567 -199 521 -307 567 -260 b 456 -92 567 -139 521 -92 b 343 -199 389 -92 343 -139 b 456 -307 343 -260 389 -307 z "},"Ù":{"ha":911,"x_min":0,"x_max":0,"o":"m 335 1300 l 264 1161 l 582 1046 l 628 1138 z m 813 960 l 628 960 l 628 324 b 454 122 628 189 574 122 b 282 324 336 122 282 189 l 282 960 l 99 960 l 99 314 b 454 -21 99 117 218 -21 b 813 314 689 -21 813 121 z "},"Ủ":{"ha":911,"x_min":0,"x_max":0,"o":"m 394 1060 l 508 1060 l 508 1122 b 624 1247 581 1135 624 1176 b 461 1382 624 1328 567 1382 b 319 1347 400 1382 356 1368 l 353 1264 b 435 1283 379 1276 403 1283 b 493 1238 469 1283 493 1268 b 394 1181 493 1197 460 1188 z m 813 960 l 628 960 l 628 324 b 454 122 628 189 574 122 b 282 324 336 122 282 189 l 282 960 l 99 960 l 99 314 b 454 -21 99 117 218 -21 b 813 314 689 -21 813 121 z "},"Ư":{"ha":976,"x_min":0,"x_max":0,"o":"m 1004 956 b 978 1074 1004 1010 992 1047 l 854 1053 b 874 956 865 1025 874 1000 b 813 883 874 915 856 892 l 813 960 l 628 960 l 628 324 b 454 122 628 189 574 122 b 282 324 336 122 282 189 l 282 960 l 99 960 l 99 314 b 454 -21 99 117 218 -21 b 813 314 689 -21 813 121 l 813 790 b 1004 956 933 790 1004 857 z "},"Ứ":{"ha":976,"x_min":0,"x_max":0,"o":"m 638 1161 l 567 1300 l 274 1138 l 319 1046 z m 1004 956 b 978 1074 1004 1010 992 1047 l 854 1053 b 874 956 865 1025 874 1000 b 813 883 874 915 856 892 l 813 960 l 628 960 l 628 324 b 454 122 628 189 574 122 b 282 324 336 122 282 189 l 282 960 l 99 960 l 99 314 b 454 -21 99 117 218 -21 b 813 314 689 -21 813 121 l 813 790 b 1004 956 933 790 1004 857 z "},"Ự":{"ha":976,"x_min":0,"x_max":0,"o":"m 1004 956 b 978 1074 1004 1010 992 1047 l 854 1053 b 874 956 865 1025 874 1000 b 813 883 874 915 856 892 l 813 960 l 628 960 l 628 324 b 454 122 628 189 574 122 b 282 324 336 122 282 189 l 282 960 l 99 960 l 99 314 b 454 -21 99 117 218 -21 b 813 314 689 -21 813 121 l 813 790 b 1004 956 933 790 1004 857 z m 456 -92 b 343 -199 389 -92 343 -139 b 456 -307 343 -260 389 -307 b 567 -199 521 -307 567 -260 b 456 -92 567 -139 521 -92 z "},"Ừ":{"ha":976,"x_min":0,"x_max":0,"o":"m 628 1138 l 335 1300 l 264 1161 l 582 1046 z m 1004 956 b 978 1074 1004 1010 992 1047 l 854 1053 b 874 956 865 1025 874 1000 b 813 883 874 915 856 892 l 813 960 l 628 960 l 628 324 b 454 122 628 189 574 122 b 282 324 336 122 282 189 l 282 960 l 99 960 l 99 314 b 454 -21 99 117 218 -21 b 813 314 689 -21 813 121 l 813 790 b 1004 956 933 790 1004 857 z "},"Ử":{"ha":976,"x_min":0,"x_max":0,"o":"m 435 1283 b 493 1238 469 1283 493 1268 b 394 1181 493 1197 460 1188 l 394 1060 l 508 1060 l 508 1122 b 624 1247 581 1135 624 1176 b 461 1382 624 1328 567 1382 b 319 1347 400 1382 356 1368 l 353 1264 b 435 1283 379 1276 403 1283 z m 1004 956 b 978 1074 1004 1010 992 1047 l 854 1053 b 874 956 865 1025 874 1000 b 813 883 874 915 856 892 l 813 960 l 628 960 l 628 324 b 454 122 628 189 574 122 b 282 324 336 122 282 189 l 282 960 l 99 960 l 99 314 b 454 -21 99 117 218 -21 b 813 314 689 -21 813 121 l 813 790 b 1004 956 933 790 1004 857 z "},"Ữ":{"ha":976,"x_min":0,"x_max":0,"o":"m 376 1135 b 536 1069 424 1135 458 1069 b 703 1213 608 1069 667 1126 l 608 1260 b 535 1200 583 1219 564 1200 b 374 1264 486 1200 456 1264 b 207 1119 296 1264 240 1199 l 303 1072 b 376 1135 325 1113 343 1135 z m 1004 956 b 978 1074 1004 1010 992 1047 l 854 1053 b 874 956 865 1025 874 1000 b 813 883 874 915 856 892 l 813 960 l 628 960 l 628 324 b 454 122 628 189 574 122 b 282 324 336 122 282 189 l 282 960 l 99 960 l 99 314 b 454 -21 99 117 218 -21 b 813 314 689 -21 813 121 l 813 790 b 1004 956 933 790 1004 857 z "},"Ű":{"ha":911,"x_min":0,"x_max":0,"o":"m 399 1351 l 283 1097 l 383 1056 l 529 1288 z m 628 1351 l 500 1093 l 597 1049 l 757 1285 z m 813 960 l 628 960 l 628 324 b 454 122 628 189 574 122 b 282 324 336 122 282 189 l 282 960 l 99 960 l 99 314 b 454 -21 99 117 218 -21 b 813 314 689 -21 813 121 z "},"Ȗ":{"ha":911,"x_min":0,"x_max":0,"o":"m 454 1303 b 229 1088 324 1303 240 1213 l 333 1068 b 454 1175 351 1136 390 1175 b 576 1068 518 1175 560 1136 l 682 1088 b 454 1303 671 1213 585 1303 z m 813 960 l 628 960 l 628 324 b 454 122 628 189 574 122 b 282 324 336 122 282 189 l 282 960 l 99 960 l 99 314 b 454 -21 99 117 218 -21 b 813 314 689 -21 813 121 z "},"Ū":{"ha":911,"x_min":0,"x_max":0,"o":"m 657 1093 l 657 1219 l 253 1219 l 253 1093 z m 813 960 l 628 960 l 628 324 b 454 122 628 189 574 122 b 282 324 336 122 282 189 l 282 960 l 99 960 l 99 314 b 454 -21 99 117 218 -21 b 813 314 689 -21 813 121 z "},"Ų":{"ha":911,"x_min":0,"x_max":0,"o":"m 628 960 l 628 324 b 454 122 628 189 574 122 b 282 324 336 122 282 189 l 282 960 l 99 960 l 99 314 b 417 -19 99 128 206 -6 b 292 -181 339 -54 292 -108 b 482 -332 292 -271 369 -332 b 575 -322 519 -332 546 -328 l 589 -204 b 504 -214 557 -211 532 -214 b 429 -150 451 -214 429 -192 b 596 0 429 -106 457 -56 b 813 314 739 46 813 165 l 813 960 z "},"Ʊ":{"ha":960,"x_min":0,"x_max":0,"o":"m 481 -21 b 900 429 736 -21 900 168 b 721 822 900 639 822 750 l 871 822 l 871 960 l 565 960 l 565 826 b 707 429 651 739 707 636 b 481 119 707 222 622 119 b 253 428 335 119 253 222 b 396 826 253 636 303 738 l 396 960 l 90 960 l 90 822 l 240 822 b 60 428 140 743 60 633 b 481 -21 60 163 219 -21 z "},"Ů":{"ha":911,"x_min":0,"x_max":0,"o":"m 456 1360 b 278 1193 347 1360 278 1285 b 456 1026 278 1103 347 1026 b 632 1193 563 1026 632 1103 b 456 1360 632 1285 563 1360 z m 456 1267 b 522 1193 496 1267 522 1240 b 456 1121 522 1146 496 1121 b 388 1193 414 1121 388 1146 b 456 1267 388 1240 414 1267 z m 813 960 l 628 960 l 628 324 b 454 122 628 189 574 122 b 282 324 336 122 282 189 l 282 960 l 99 960 l 99 314 b 454 -21 99 117 218 -21 b 813 314 689 -21 813 121 z "},"Ũ":{"ha":911,"x_min":0,"x_max":0,"o":"m 536 1069 b 703 1213 608 1069 667 1126 l 608 1260 b 535 1200 583 1219 564 1200 b 374 1264 486 1200 456 1264 b 207 1119 296 1264 240 1199 l 303 1072 b 376 1135 325 1113 343 1135 b 536 1069 424 1135 458 1069 z m 813 960 l 628 960 l 628 324 b 454 122 628 189 574 122 b 282 324 336 122 282 189 l 282 960 l 99 960 l 99 314 b 454 -21 99 117 218 -21 b 813 314 689 -21 813 121 z "},"Ṹ":{"ha":911,"x_min":0,"x_max":0,"o":"m 567 1524 l 274 1361 l 319 1269 l 638 1385 z m 536 1050 b 703 1193 608 1050 667 1107 l 608 1240 b 535 1181 583 1200 564 1181 b 374 1244 486 1181 456 1244 b 207 1100 296 1244 240 1179 l 303 1053 b 376 1115 325 1093 343 1115 b 536 1050 424 1115 458 1050 z m 813 960 l 628 960 l 628 324 b 454 122 628 189 574 122 b 282 324 336 122 282 189 l 282 960 l 99 960 l 99 314 b 454 -21 99 117 218 -21 b 813 314 689 -21 813 121 z "},"V":{"ha":783,"x_min":0,"x_max":0,"o":"m 789 960 l 601 960 l 399 163 l 190 960 l -7 960 l 286 0 l 504 0 z "},"Ʋ":{"ha":893,"x_min":0,"x_max":0,"o":"m 622 981 b 501 956 574 981 535 971 l 536 835 b 581 842 549 839 563 842 b 628 779 615 842 628 825 l 628 414 b 431 122 628 215 554 122 b 282 299 335 122 282 188 l 282 960 l 99 960 l 99 296 b 428 -21 99 114 221 -21 b 813 411 660 -21 813 143 l 813 775 b 622 981 813 915 743 981 z "},"Ʌ":{"ha":810,"x_min":0,"x_max":0,"o":"m 518 960 l 292 960 l -7 0 l 183 0 l 403 819 l 621 0 l 815 0 z "},"W":{"ha":1163,"x_min":0,"x_max":0,"o":"m 1140 960 l 967 960 l 833 146 l 679 960 l 485 960 l 328 146 l 206 960 l 24 960 l 197 0 l 429 0 l 579 765 l 725 0 l 964 0 z "},"Ẃ":{"ha":1163,"x_min":0,"x_max":0,"o":"m 694 1300 l 401 1138 l 447 1046 l 765 1161 z m 1140 960 l 967 960 l 833 146 l 679 960 l 485 960 l 328 146 l 206 960 l 24 960 l 197 0 l 429 0 l 579 765 l 725 0 l 964 0 z "},"Ŵ":{"ha":1163,"x_min":0,"x_max":0,"o":"m 763 1051 l 831 1128 l 638 1296 l 526 1296 l 333 1128 l 401 1051 l 582 1165 z m 1140 960 l 967 960 l 833 146 l 679 960 l 485 960 l 328 146 l 206 960 l 24 960 l 197 0 l 429 0 l 579 765 l 725 0 l 964 0 z "},"Ẅ":{"ha":1163,"x_min":0,"x_max":0,"o":"m 428 1265 b 331 1169 374 1265 331 1224 b 428 1074 331 1115 374 1074 b 525 1169 483 1074 525 1115 b 428 1265 525 1224 483 1265 z m 735 1265 b 639 1169 682 1265 639 1224 b 735 1074 639 1115 682 1074 b 833 1169 792 1074 833 1115 b 735 1265 833 1224 792 1265 z m 1140 960 l 967 960 l 833 146 l 679 960 l 485 960 l 328 146 l 206 960 l 24 960 l 197 0 l 429 0 l 579 765 l 725 0 l 964 0 z "},"Ẁ":{"ha":1163,"x_min":0,"x_max":0,"o":"m 463 1300 l 392 1161 l 710 1046 l 756 1138 z m 1140 960 l 967 960 l 833 146 l 679 960 l 485 960 l 328 146 l 206 960 l 24 960 l 197 0 l 429 0 l 579 765 l 725 0 l 964 0 z "},"Ⱳ":{"ha":1235,"x_min":0,"x_max":0,"o":"m 1083 761 b 1164 847 1094 825 1115 847 b 1243 822 1199 847 1221 836 l 1300 926 b 1140 981 1257 958 1211 981 b 926 769 1025 981 946 924 l 833 146 l 679 960 l 485 960 l 328 146 l 206 960 l 24 960 l 197 0 l 429 0 l 579 765 l 725 0 l 961 0 z "},"Ƿ":{"ha":821,"x_min":0,"x_max":0,"o":"m 517 981 b 296 894 428 981 353 950 l 296 960 l 113 960 l 113 0 l 296 0 l 296 281 l 408 322 b 785 714 613 400 785 494 b 517 981 785 882 663 981 z m 381 451 l 296 417 l 296 774 b 463 842 343 818 399 842 b 593 707 543 842 593 797 b 381 451 593 585 510 506 z "},"X":{"ha":781,"x_min":0,"x_max":0,"o":"m 497 518 l 754 960 l 558 960 l 389 628 l 226 960 l 22 960 l 278 511 l 0 0 l 196 0 l 386 393 l 578 0 l 782 0 z "},"Y":{"ha":797,"x_min":0,"x_max":0,"o":"m 800 960 l 606 960 l 403 514 l 200 960 l -3 960 l 306 363 l 306 0 l 492 0 l 492 364 z "},"Ý":{"ha":797,"x_min":0,"x_max":0,"o":"m 510 1300 l 217 1138 l 263 1046 l 581 1161 z m 800 960 l 606 960 l 403 514 l 200 960 l -3 960 l 306 363 l 306 0 l 492 0 l 492 364 z "},"Ŷ":{"ha":797,"x_min":0,"x_max":0,"o":"m 578 1051 l 646 1128 l 453 1296 l 342 1296 l 149 1128 l 217 1051 l 397 1165 z m 800 960 l 606 960 l 403 514 l 200 960 l -3 960 l 306 363 l 306 0 l 492 0 l 492 364 z "},"Ÿ":{"ha":797,"x_min":0,"x_max":0,"o":"m 244 1265 b 147 1169 190 1265 147 1224 b 244 1074 147 1115 190 1074 b 342 1169 300 1074 342 1115 b 244 1265 342 1224 300 1265 z m 551 1265 b 456 1169 499 1265 456 1224 b 551 1074 456 1115 499 1074 b 650 1169 608 1074 650 1115 b 551 1265 650 1224 608 1265 z m 800 960 l 606 960 l 403 514 l 200 960 l -3 960 l 306 363 l 306 0 l 492 0 l 492 364 z "},"Ỵ":{"ha":797,"x_min":0,"x_max":0,"o":"m 800 960 l 606 960 l 403 514 l 200 960 l -3 960 l 306 363 l 306 0 l 492 0 l 492 364 z m 399 -307 b 510 -199 464 -307 510 -260 b 399 -92 510 -139 464 -92 b 286 -199 332 -92 286 -139 b 399 -307 286 -260 332 -307 z "},"Ỳ":{"ha":797,"x_min":0,"x_max":0,"o":"m 278 1300 l 207 1161 l 525 1046 l 571 1138 z m 800 960 l 606 960 l 403 514 l 200 960 l -3 960 l 306 363 l 306 0 l 492 0 l 492 364 z "},"Ƴ":{"ha":849,"x_min":0,"x_max":0,"o":"m 306 0 l 492 0 l 492 364 l 679 763 b 776 847 710 828 733 847 b 857 822 811 847 836 836 l 914 928 b 754 981 871 958 825 981 b 525 799 639 981 576 929 l 403 514 l 200 960 l -3 960 l 306 363 z "},"Ỷ":{"ha":797,"x_min":0,"x_max":0,"o":"m 338 1060 l 451 1060 l 451 1122 b 567 1247 524 1135 567 1176 b 404 1382 567 1328 510 1382 b 263 1347 343 1382 299 1368 l 296 1264 b 378 1283 322 1276 346 1283 b 436 1238 413 1283 436 1268 b 338 1181 436 1197 403 1188 z m 800 960 l 606 960 l 403 514 l 200 960 l -3 960 l 306 363 l 306 0 l 492 0 l 492 364 z "},"Ȳ":{"ha":797,"x_min":0,"x_max":0,"o":"m 600 1093 l 600 1219 l 196 1219 l 196 1093 z m 800 960 l 606 960 l 403 514 l 200 960 l -3 960 l 306 363 l 306 0 l 492 0 l 492 364 z "},"Ȝ":{"ha":713,"x_min":0,"x_max":0,"o":"m 322 981 b 4 857 199 981 93 939 l 93 758 b 301 842 163 814 229 842 b 443 706 403 842 443 783 b 282 561 443 613 382 561 l 206 561 l 183 424 l 279 424 b 469 278 407 424 469 374 b 79 -8 469 158 393 67 l 94 -150 b 664 271 501 -76 664 86 b 432 497 664 417 565 483 b 633 724 560 525 633 601 b 322 981 633 871 524 981 z "},"Ʀ":{"ha":849,"x_min":0,"x_max":0,"o":"m 625 -164 l 836 -164 l 585 254 b 779 514 715 306 779 383 b 399 796 779 704 650 796 l 296 796 l 296 960 l 113 960 l 113 0 l 296 0 l 296 221 l 413 221 z m 296 663 l 394 663 b 588 514 528 663 588 618 b 410 353 588 399 524 353 l 296 353 z "},"Ɏ":{"ha":797,"x_min":0,"x_max":0,"o":"m 742 847 l 800 960 l 611 960 l 560 847 l 247 847 l 196 960 l -1 960 l 57 847 l 3 847 l 3 733 l 115 733 l 307 363 l 307 0 l 492 0 l 492 364 l 682 733 l 800 733 l 800 847 z m 403 504 l 299 733 l 508 733 z "},"Ỹ":{"ha":797,"x_min":0,"x_max":0,"o":"m 479 1069 b 646 1213 551 1069 610 1126 l 551 1260 b 478 1200 526 1219 507 1200 b 317 1264 429 1200 399 1264 b 150 1119 239 1264 183 1199 l 246 1072 b 319 1135 268 1113 286 1135 b 479 1069 367 1135 401 1069 z m 800 960 l 606 960 l 403 514 l 200 960 l -3 960 l 306 363 l 306 0 l 492 0 l 492 364 z "},"Z":{"ha":742,"x_min":0,"x_max":0,"o":"m 689 960 l 78 960 l 78 814 l 483 814 l 32 140 l 32 0 l 674 0 l 693 150 l 246 150 l 689 818 z "},"Ź":{"ha":742,"x_min":0,"x_max":0,"o":"m 493 1300 l 200 1138 l 246 1046 l 564 1161 z m 689 960 l 78 960 l 78 814 l 483 814 l 32 140 l 32 0 l 674 0 l 693 150 l 246 150 l 689 818 z "},"Ž":{"ha":742,"x_min":0,"x_max":0,"o":"m 561 1289 l 381 1174 l 200 1289 l 132 1211 l 325 1044 l 436 1044 l 629 1211 z m 689 960 l 78 960 l 78 814 l 483 814 l 32 140 l 32 0 l 674 0 l 693 150 l 246 150 l 689 818 z "},"Ż":{"ha":742,"x_min":0,"x_max":0,"o":"m 381 1282 b 269 1174 315 1282 269 1235 b 381 1067 269 1114 315 1067 b 493 1174 447 1067 493 1114 b 381 1282 493 1235 447 1282 z m 689 960 l 78 960 l 78 814 l 483 814 l 32 140 l 32 0 l 674 0 l 693 150 l 246 150 l 689 818 z "},"Ẓ":{"ha":742,"x_min":0,"x_max":0,"o":"m 689 960 l 78 960 l 78 814 l 483 814 l 32 140 l 32 0 l 674 0 l 693 150 l 246 150 l 689 818 z m 364 -307 b 475 -199 429 -307 475 -260 b 364 -92 475 -139 429 -92 b 251 -199 297 -92 251 -139 b 364 -307 251 -260 297 -307 z "},"Ȥ":{"ha":738,"x_min":0,"x_max":0,"o":"m 689 960 l 78 960 l 78 814 l 483 814 l 32 140 l 32 0 l 507 0 l 507 -71 b 424 -164 507 -135 478 -164 b 319 -133 376 -164 351 -153 l 257 -246 b 436 -303 296 -276 353 -303 b 683 -60 586 -303 683 -222 l 683 150 l 246 150 l 689 818 z "},"Ƶ":{"ha":742,"x_min":0,"x_max":0,"o":"m 232 150 l 414 418 l 628 418 l 628 546 l 501 546 l 689 822 l 689 960 l 78 960 l 78 814 l 496 814 l 313 546 l 108 546 l 108 418 l 225 418 l 32 136 l 32 0 l 674 0 l 693 150 z "},"Ɬ":{"ha":813,"x_min":0,"x_max":0,"o":"m 406 150 l 406 360 b 590 385 469 363 531 371 l 574 489 b 406 468 517 476 467 469 l 406 960 l 221 960 l 221 676 b 172 682 208 679 192 682 b 7 526 81 682 7 628 b 221 354 7 425 76 358 l 221 0 l 769 0 l 789 150 z m 221 465 b 133 528 167 465 133 485 b 185 579 133 561 153 579 b 221 576 200 579 210 578 z "},"ʙ":{"ha":778,"x_min":0,"x_max":0,"o":"m 529 401 b 682 561 639 426 682 482 b 375 756 682 689 561 756 b 107 726 288 756 199 744 l 107 0 l 397 0 b 718 219 582 0 718 65 b 529 401 718 326 658 388 z m 375 635 b 506 540 460 635 506 606 b 385 442 506 468 457 442 l 285 442 l 285 628 b 375 635 315 632 342 635 z m 379 124 l 285 124 l 285 336 l 396 336 b 533 229 476 336 533 313 b 379 124 533 140 456 124 z "},"ɢ":{"ha":778,"x_min":0,"x_max":0,"o":"m 424 756 b 60 371 224 756 60 610 b 408 -18 60 114 183 -18 b 700 63 529 -18 628 18 l 700 424 l 400 424 l 418 300 l 531 300 l 531 138 b 410 113 493 121 454 113 b 246 371 307 113 246 178 b 432 622 246 542 326 622 b 606 561 500 622 550 601 l 694 660 b 424 756 625 717 547 756 z "},"ʛ":{"ha":778,"x_min":0,"x_max":0,"o":"m 756 1049 b 531 821 611 1049 531 968 l 531 735 b 414 756 497 749 460 756 b 60 371 224 756 60 610 b 408 -18 60 114 183 -18 b 700 63 529 -18 628 18 l 700 424 l 400 424 l 418 300 l 531 300 l 531 138 b 410 113 493 121 454 113 b 246 371 307 113 246 178 b 433 622 246 542 324 622 b 614 571 508 622 557 603 l 694 660 l 694 819 b 774 914 694 886 724 914 b 872 885 815 914 840 903 l 929 996 b 756 1049 890 1022 835 1049 z "},"ʜ":{"ha":818,"x_min":0,"x_max":0,"o":"m 533 0 l 711 0 l 711 735 l 533 735 l 533 442 l 285 442 l 285 735 l 107 735 l 107 0 l 285 0 l 285 307 l 533 307 z "},"ɪ":{"ha":465,"x_min":0,"x_max":0,"o":"m 438 604 l 438 735 l 28 735 l 28 604 l 143 604 l 143 132 l 28 132 l 28 0 l 438 0 l 438 132 l 321 132 l 321 604 z "},"ʟ":{"ha":617,"x_min":0,"x_max":0,"o":"m 285 735 l 107 735 l 107 0 l 581 0 l 600 142 l 285 142 z "},"ɴ":{"ha":821,"x_min":0,"x_max":0,"o":"m 714 735 l 554 735 l 554 422 b 579 160 554 300 567 231 l 324 735 l 107 735 l 107 0 l 267 0 l 267 246 b 242 574 267 392 254 490 l 496 0 l 714 0 z "},"ɶ":{"ha":1061,"x_min":0,"x_max":0,"o":"m 1019 128 l 661 128 b 744 310 704 172 735 235 l 961 310 l 961 436 l 742 436 b 667 608 731 503 704 563 l 1000 608 l 1018 735 l 533 735 b 407 756 489 750 456 756 b 60 368 189 756 60 599 b 406 -21 60 126 189 -21 b 525 0 447 -21 488 -12 l 1019 0 z m 247 368 b 407 621 247 542 303 621 b 565 368 500 621 565 546 b 407 114 565 192 501 114 b 247 368 303 114 247 192 z "},"ʀ":{"ha":736,"x_min":0,"x_max":0,"o":"m 515 0 l 710 0 l 517 297 b 658 501 608 336 658 400 b 342 735 658 657 544 735 l 107 735 l 107 0 l 281 0 l 281 267 l 357 267 z m 281 608 l 339 608 b 479 503 431 608 479 579 b 350 390 479 421 432 390 l 281 390 z "},"ʁ":{"ha":735,"x_min":0,"x_max":0,"o":"m 517 443 l 707 735 l 525 735 l 367 469 l 281 469 l 281 735 l 107 735 l 107 0 l 342 0 b 658 240 544 0 658 78 b 517 443 658 343 601 408 z m 339 126 l 281 126 l 281 346 l 350 346 b 479 238 432 346 479 314 b 339 126 479 157 431 126 z "},"ʏ":{"ha":667,"x_min":0,"x_max":0,"o":"m 676 735 l 488 735 l 338 396 l 183 735 l -10 735 l 244 269 l 244 0 l 422 0 l 422 271 z "},"a":{"ha":758,"x_min":0,"x_max":0,"o":"m 650 194 l 650 503 b 368 756 650 665 564 756 b 101 703 285 756 192 738 l 143 582 b 338 621 217 607 288 621 b 475 493 432 621 475 589 l 475 451 l 383 451 b 49 206 169 451 49 365 b 286 -21 49 72 139 -21 b 506 89 374 -21 454 11 b 668 -18 535 17 588 -11 l 706 100 b 650 194 669 114 650 135 z m 333 108 b 229 219 265 108 229 149 b 401 347 229 306 286 347 l 475 347 l 475 199 b 333 108 442 140 396 108 z "},"á":{"ha":758,"x_min":0,"x_max":0,"o":"m 547 1000 l 475 1139 l 183 965 l 233 875 z m 650 194 l 650 503 b 368 756 650 665 564 756 b 101 703 285 756 192 738 l 143 582 b 338 621 217 607 288 621 b 475 493 432 621 475 589 l 475 451 l 383 451 b 49 206 169 451 49 365 b 286 -21 49 72 139 -21 b 506 89 374 -21 454 11 b 668 -18 535 17 588 -11 l 706 100 b 650 194 669 114 650 135 z m 333 108 b 229 219 265 108 229 149 b 401 347 229 306 286 347 l 475 347 l 475 199 b 333 108 442 140 396 108 z "},"ă":{"ha":758,"x_min":0,"x_max":0,"o":"m 368 885 b 596 1100 499 885 585 975 l 490 1119 b 368 1013 474 1051 432 1013 b 247 1119 304 1013 265 1051 l 143 1100 b 368 885 154 975 238 885 z m 650 194 l 650 503 b 368 756 650 665 564 756 b 101 703 285 756 192 738 l 143 582 b 338 621 217 607 288 621 b 475 493 432 621 475 589 l 475 451 l 383 451 b 49 206 169 451 49 365 b 286 -21 49 72 139 -21 b 506 89 374 -21 454 11 b 668 -18 535 17 588 -11 l 706 100 b 650 194 669 114 650 135 z m 333 108 b 229 219 265 108 229 149 b 401 347 229 306 286 347 l 475 347 l 475 199 b 333 108 442 140 396 108 z "},"ắ":{"ha":758,"x_min":0,"x_max":0,"o":"m 578 1226 l 476 1324 l 303 1103 l 372 1040 z m 368 833 b 596 1033 499 833 585 922 l 490 1054 b 368 961 474 1000 432 961 b 247 1054 304 961 265 1000 l 143 1033 b 368 833 154 922 238 833 z m 650 194 l 650 503 b 368 756 650 665 564 756 b 101 703 285 756 192 738 l 143 582 b 338 621 217 607 288 621 b 475 493 432 621 475 589 l 475 451 l 383 451 b 49 206 169 451 49 365 b 286 -21 49 72 139 -21 b 506 89 374 -21 454 11 b 668 -18 535 17 588 -11 l 706 100 b 650 194 669 114 650 135 z m 333 108 b 229 219 265 108 229 149 b 401 347 229 306 286 347 l 475 347 l 475 199 b 333 108 442 140 396 108 z "},"ặ":{"ha":758,"x_min":0,"x_max":0,"o":"m 368 885 b 596 1100 499 885 585 975 l 490 1119 b 368 1013 474 1051 432 1013 b 247 1119 304 1013 265 1051 l 143 1100 b 368 885 154 975 238 885 z m 650 194 l 650 503 b 368 756 650 665 564 756 b 101 703 285 756 192 738 l 143 582 b 338 621 217 607 288 621 b 475 493 432 621 475 589 l 475 451 l 383 451 b 49 206 169 451 49 365 b 286 -21 49 72 139 -21 b 506 89 374 -21 454 11 b 668 -18 535 17 588 -11 l 706 100 b 650 194 669 114 650 135 z m 333 108 b 229 219 265 108 229 149 b 401 347 229 306 286 347 l 475 347 l 475 199 b 333 108 442 140 396 108 z m 371 -92 b 258 -199 304 -92 258 -139 b 371 -307 258 -260 304 -307 b 482 -199 436 -307 482 -260 b 371 -92 482 -139 436 -92 z "},"ằ":{"ha":758,"x_min":0,"x_max":0,"o":"m 439 1103 l 264 1324 l 164 1226 l 369 1040 z m 368 833 b 596 1033 499 833 585 922 l 490 1054 b 368 961 474 1000 432 961 b 247 1054 304 961 265 1000 l 143 1033 b 368 833 154 922 238 833 z m 650 194 l 650 503 b 368 756 650 665 564 756 b 101 703 285 756 192 738 l 143 582 b 338 621 217 607 288 621 b 475 493 432 621 475 589 l 475 451 l 383 451 b 49 206 169 451 49 365 b 286 -21 49 72 139 -21 b 506 89 374 -21 454 11 b 668 -18 535 17 588 -11 l 706 100 b 650 194 669 114 650 135 z m 333 108 b 229 219 265 108 229 149 b 401 347 229 306 286 347 l 475 347 l 475 199 b 333 108 442 140 396 108 z "},"ẳ":{"ha":758,"x_min":0,"x_max":0,"o":"m 353 1269 b 411 1224 388 1269 411 1256 b 313 1168 411 1183 378 1174 l 313 1033 l 426 1033 l 426 1110 b 542 1235 499 1122 542 1164 b 379 1368 542 1315 485 1368 b 238 1333 318 1368 274 1354 l 271 1250 b 353 1269 297 1263 321 1269 z m 368 833 b 596 1033 499 833 585 922 l 490 1054 b 368 961 474 1000 432 961 b 247 1054 304 961 265 1000 l 143 1033 b 368 833 154 922 238 833 z m 650 194 l 650 503 b 368 756 650 665 564 756 b 101 703 285 756 192 738 l 143 582 b 338 621 217 607 288 621 b 475 493 432 621 475 589 l 475 451 l 383 451 b 49 206 169 451 49 365 b 286 -21 49 72 139 -21 b 506 89 374 -21 454 11 b 668 -18 535 17 588 -11 l 706 100 b 650 194 669 114 650 135 z m 333 108 b 229 219 265 108 229 149 b 401 347 229 306 286 347 l 475 347 l 475 199 b 333 108 442 140 396 108 z "},"ẵ":{"ha":758,"x_min":0,"x_max":0,"o":"m 294 1153 b 454 1092 342 1153 376 1092 b 621 1229 526 1092 585 1146 l 526 1275 b 453 1215 501 1235 482 1215 b 292 1278 404 1215 374 1278 b 125 1138 214 1278 158 1215 l 221 1093 b 294 1153 243 1132 261 1153 z m 369 961 b 249 1054 306 961 267 1000 l 144 1033 b 369 833 156 922 239 833 b 597 1033 500 833 586 922 l 492 1054 b 369 961 475 1000 433 961 z m 650 194 l 650 503 b 368 756 650 665 564 756 b 101 703 285 756 192 738 l 143 582 b 338 621 217 607 288 621 b 475 493 432 621 475 589 l 475 451 l 383 451 b 49 206 169 451 49 365 b 286 -21 49 72 139 -21 b 506 89 374 -21 454 11 b 668 -18 535 17 588 -11 l 706 100 b 650 194 669 114 650 135 z m 333 108 b 229 219 265 108 229 149 b 401 347 229 306 286 347 l 475 347 l 475 199 b 333 108 442 140 396 108 z "},"ǎ":{"ha":758,"x_min":0,"x_max":0,"o":"m 426 860 l 619 1033 l 551 1111 l 371 989 l 190 1111 l 122 1033 l 315 860 z m 650 194 l 650 503 b 368 756 650 665 564 756 b 101 703 285 756 192 738 l 143 582 b 338 621 217 607 288 621 b 475 493 432 621 475 589 l 475 451 l 383 451 b 49 206 169 451 49 365 b 286 -21 49 72 139 -21 b 506 89 374 -21 454 11 b 668 -18 535 17 588 -11 l 706 100 b 650 194 669 114 650 135 z m 333 108 b 229 219 265 108 229 149 b 401 347 229 306 286 347 l 475 347 l 475 199 b 333 108 442 140 396 108 z "},"â":{"ha":758,"x_min":0,"x_max":0,"o":"m 371 993 l 551 871 l 619 947 l 426 1122 l 314 1122 l 122 947 l 190 871 z m 650 194 l 650 503 b 368 756 650 665 564 756 b 101 703 285 756 192 738 l 143 582 b 338 621 217 607 288 621 b 475 493 432 621 475 589 l 475 451 l 383 451 b 49 206 169 451 49 365 b 286 -21 49 72 139 -21 b 506 89 374 -21 454 11 b 668 -18 535 17 588 -11 l 706 100 b 650 194 669 114 650 135 z m 333 108 b 229 219 265 108 229 149 b 401 347 229 306 286 347 l 475 347 l 475 199 b 333 108 442 140 396 108 z "},"ấ":{"ha":758,"x_min":0,"x_max":0,"o":"m 776 1190 l 675 1288 l 501 1067 l 571 1004 z m 365 929 l 546 815 l 614 892 l 421 1060 l 310 1060 l 117 892 l 185 815 z m 650 194 l 650 503 b 368 756 650 665 564 756 b 101 703 285 756 192 738 l 143 582 b 338 621 217 607 288 621 b 475 493 432 621 475 589 l 475 451 l 383 451 b 49 206 169 451 49 365 b 286 -21 49 72 139 -21 b 506 89 374 -21 454 11 b 668 -18 535 17 588 -11 l 706 100 b 650 194 669 114 650 135 z m 333 108 b 229 219 265 108 229 149 b 401 347 229 306 286 347 l 475 347 l 475 199 b 333 108 442 140 396 108 z "},"ậ":{"ha":758,"x_min":0,"x_max":0,"o":"m 371 993 l 551 871 l 619 947 l 426 1122 l 314 1122 l 122 947 l 190 871 z m 650 194 l 650 503 b 368 756 650 665 564 756 b 101 703 285 756 192 738 l 143 582 b 338 621 217 607 288 621 b 475 493 432 621 475 589 l 475 451 l 383 451 b 49 206 169 451 49 365 b 286 -21 49 72 139 -21 b 506 89 374 -21 454 11 b 668 -18 535 17 588 -11 l 706 100 b 650 194 669 114 650 135 z m 333 108 b 229 219 265 108 229 149 b 401 347 229 306 286 347 l 475 347 l 475 199 b 333 108 442 140 396 108 z m 371 -92 b 258 -199 304 -92 258 -139 b 371 -307 258 -260 304 -307 b 482 -199 436 -307 482 -260 b 371 -92 482 -139 436 -92 z "},"ầ":{"ha":758,"x_min":0,"x_max":0,"o":"m 231 1067 l 56 1288 l -44 1190 l 161 1004 z m 185 815 l 365 929 l 546 815 l 614 892 l 421 1060 l 310 1060 l 117 892 z m 650 194 l 650 503 b 368 756 650 665 564 756 b 101 703 285 756 192 738 l 143 582 b 338 621 217 607 288 621 b 475 493 432 621 475 589 l 475 451 l 383 451 b 49 206 169 451 49 365 b 286 -21 49 72 139 -21 b 506 89 374 -21 454 11 b 668 -18 535 17 588 -11 l 706 100 b 650 194 669 114 650 135 z m 333 108 b 229 219 265 108 229 149 b 401 347 229 306 286 347 l 475 347 l 475 199 b 333 108 442 140 396 108 z "},"ẩ":{"ha":758,"x_min":0,"x_max":0,"o":"m 583 1358 b 442 1324 522 1358 478 1344 l 475 1240 b 557 1260 501 1253 525 1260 b 615 1214 592 1260 615 1246 b 517 1158 615 1174 582 1164 l 517 1024 l 631 1024 l 631 1100 b 746 1225 703 1113 746 1154 b 583 1358 746 1306 689 1358 z m 365 929 l 546 815 l 614 892 l 421 1060 l 310 1060 l 117 892 l 185 815 z m 650 194 l 650 503 b 368 756 650 665 564 756 b 101 703 285 756 192 738 l 143 582 b 338 621 217 607 288 621 b 475 493 432 621 475 589 l 475 451 l 383 451 b 49 206 169 451 49 365 b 286 -21 49 72 139 -21 b 506 89 374 -21 454 11 b 668 -18 535 17 588 -11 l 706 100 b 650 194 669 114 650 135 z m 333 108 b 229 219 265 108 229 149 b 401 347 229 306 286 347 l 475 347 l 475 199 b 333 108 442 140 396 108 z "},"ẫ":{"ha":758,"x_min":0,"x_max":0,"o":"m 288 1150 b 447 1089 335 1150 369 1089 b 614 1226 519 1089 578 1143 l 519 1272 b 446 1213 494 1232 475 1213 b 285 1275 397 1213 367 1275 b 118 1135 207 1275 151 1213 l 214 1090 b 288 1150 236 1129 254 1150 z m 365 919 l 546 806 l 614 882 l 421 1050 l 310 1050 l 117 882 l 185 806 z m 650 194 l 650 503 b 368 756 650 665 564 756 b 101 703 285 756 192 738 l 143 582 b 338 621 217 607 288 621 b 475 493 432 621 475 589 l 475 451 l 383 451 b 49 206 169 451 49 365 b 286 -21 49 72 139 -21 b 506 89 374 -21 454 11 b 668 -18 535 17 588 -11 l 706 100 b 650 194 669 114 650 135 z m 333 108 b 229 219 265 108 229 149 b 401 347 229 306 286 347 l 475 347 l 475 199 b 333 108 442 140 396 108 z "},"ȁ":{"ha":758,"x_min":0,"x_max":0,"o":"m 335 918 l 207 1176 l 78 1110 l 238 874 z m 551 922 l 436 1176 l 306 1113 l 451 881 z m 650 194 l 650 503 b 368 756 650 665 564 756 b 101 703 285 756 192 738 l 143 582 b 338 621 217 607 288 621 b 475 493 432 621 475 589 l 475 451 l 383 451 b 49 206 169 451 49 365 b 286 -21 49 72 139 -21 b 506 89 374 -21 454 11 b 668 -18 535 17 588 -11 l 706 100 b 650 194 669 114 650 135 z m 333 108 b 229 219 265 108 229 149 b 401 347 229 306 286 347 l 475 347 l 475 199 b 333 108 442 140 396 108 z "},"ä":{"ha":758,"x_min":0,"x_max":0,"o":"m 215 899 b 313 994 271 899 313 940 b 215 1090 313 1049 271 1090 b 118 994 161 1090 118 1049 b 215 899 118 940 161 899 z m 522 899 b 621 994 579 899 621 940 b 522 1090 621 1049 579 1090 b 426 994 469 1090 426 1049 b 522 899 426 940 469 899 z m 650 194 l 650 503 b 368 756 650 665 564 756 b 101 703 285 756 192 738 l 143 582 b 338 621 217 607 288 621 b 475 493 432 621 475 589 l 475 451 l 383 451 b 49 206 169 451 49 365 b 286 -21 49 72 139 -21 b 506 89 374 -21 454 11 b 668 -18 535 17 588 -11 l 706 100 b 650 194 669 114 650 135 z m 333 108 b 229 219 265 108 229 149 b 401 347 229 306 286 347 l 475 347 l 475 199 b 333 108 442 140 396 108 z "},"ǟ":{"ha":758,"x_min":0,"x_max":0,"o":"m 574 1233 l 169 1233 l 169 1107 l 574 1107 z m 214 850 b 311 946 269 850 311 892 b 214 1042 311 1000 269 1042 b 117 946 160 1042 117 1000 b 214 850 117 892 160 850 z m 425 946 b 521 850 425 892 468 850 b 619 946 578 850 619 892 b 521 1042 619 1000 578 1042 b 425 946 468 1042 425 1000 z m 650 194 l 650 503 b 368 756 650 665 564 756 b 101 703 285 756 192 738 l 143 582 b 338 621 217 607 288 621 b 475 493 432 621 475 589 l 475 451 l 383 451 b 49 206 169 451 49 365 b 286 -21 49 72 139 -21 b 506 89 374 -21 454 11 b 668 -18 535 17 588 -11 l 706 100 b 650 194 669 114 650 135 z m 333 108 b 229 219 265 108 229 149 b 401 347 229 306 286 347 l 475 347 l 475 199 b 333 108 442 140 396 108 z "},"ȧ":{"ha":758,"x_min":0,"x_max":0,"o":"m 369 892 b 482 999 436 892 482 939 b 369 1107 482 1060 436 1107 b 258 999 304 1107 258 1060 b 369 892 258 939 304 892 z m 650 194 l 650 503 b 368 756 650 665 564 756 b 101 703 285 756 192 738 l 143 582 b 338 621 217 607 288 621 b 475 493 432 621 475 589 l 475 451 l 383 451 b 49 206 169 451 49 365 b 286 -21 49 72 139 -21 b 506 89 374 -21 454 11 b 668 -18 535 17 588 -11 l 706 100 b 650 194 669 114 650 135 z m 333 108 b 229 219 265 108 229 149 b 401 347 229 306 286 347 l 475 347 l 475 199 b 333 108 442 140 396 108 z "},"ạ":{"ha":758,"x_min":0,"x_max":0,"o":"m 650 194 l 650 503 b 368 756 650 665 564 756 b 101 703 285 756 192 738 l 143 582 b 338 621 217 607 288 621 b 475 493 432 621 475 589 l 475 451 l 383 451 b 49 206 169 451 49 365 b 286 -21 49 72 139 -21 b 506 89 374 -21 454 11 b 668 -18 535 17 588 -11 l 706 100 b 650 194 669 114 650 135 z m 333 108 b 229 219 265 108 229 149 b 401 347 229 306 286 347 l 475 347 l 475 199 b 333 108 442 140 396 108 z m 371 -92 b 258 -199 304 -92 258 -139 b 371 -307 258 -260 304 -307 b 482 -199 436 -307 482 -260 b 371 -92 482 -139 436 -92 z "},"ǡ":{"ha":758,"x_min":0,"x_max":0,"o":"m 578 1221 l 174 1221 l 174 1094 l 578 1094 z m 261 939 b 372 832 261 879 307 832 b 485 939 439 832 485 879 b 372 1047 485 1000 439 1047 b 261 939 307 1047 261 1000 z m 650 194 l 650 503 b 368 756 650 665 564 756 b 101 703 285 756 192 738 l 143 582 b 338 621 217 607 288 621 b 475 493 432 621 475 589 l 475 451 l 383 451 b 49 206 169 451 49 365 b 286 -21 49 72 139 -21 b 506 89 374 -21 454 11 b 668 -18 535 17 588 -11 l 706 100 b 650 194 669 114 650 135 z m 333 108 b 229 219 265 108 229 149 b 401 347 229 306 286 347 l 475 347 l 475 199 b 333 108 442 140 396 108 z "},"à":{"ha":758,"x_min":0,"x_max":0,"o":"m 567 965 l 275 1139 l 203 1000 l 515 875 z m 650 194 l 650 503 b 368 756 650 665 564 756 b 101 703 285 756 192 738 l 143 582 b 338 621 217 607 288 621 b 475 493 432 621 475 589 l 475 451 l 383 451 b 49 206 169 451 49 365 b 286 -21 49 72 139 -21 b 506 89 374 -21 454 11 b 668 -18 535 17 588 -11 l 706 100 b 650 194 669 114 650 135 z m 333 108 b 229 219 265 108 229 149 b 401 347 229 306 286 347 l 475 347 l 475 199 b 333 108 442 140 396 108 z "},"ả":{"ha":758,"x_min":0,"x_max":0,"o":"m 350 1081 b 408 1035 385 1081 408 1067 b 310 979 408 994 375 985 l 310 844 l 424 844 l 424 921 b 539 1046 496 933 539 975 b 376 1179 539 1126 482 1179 b 235 1144 315 1179 271 1165 l 268 1061 b 350 1081 294 1074 318 1081 z m 650 194 l 650 503 b 368 756 650 665 564 756 b 101 703 285 756 192 738 l 143 582 b 338 621 217 607 288 621 b 475 493 432 621 475 589 l 475 451 l 383 451 b 49 206 169 451 49 365 b 286 -21 49 72 139 -21 b 506 89 374 -21 454 11 b 668 -18 535 17 588 -11 l 706 100 b 650 194 669 114 650 135 z m 333 108 b 229 219 265 108 229 149 b 401 347 229 306 286 347 l 475 347 l 475 199 b 333 108 442 140 396 108 z "},"ȃ":{"ha":758,"x_min":0,"x_max":0,"o":"m 368 950 b 490 843 432 950 474 911 l 596 863 b 368 1078 585 988 499 1078 b 143 863 238 1078 154 988 l 247 843 b 368 950 265 911 304 950 z m 650 194 l 650 503 b 368 756 650 665 564 756 b 101 703 285 756 192 738 l 143 582 b 338 621 217 607 288 621 b 475 493 432 621 475 589 l 475 451 l 383 451 b 49 206 169 451 49 365 b 286 -21 49 72 139 -21 b 506 89 374 -21 454 11 b 668 -18 535 17 588 -11 l 706 100 b 650 194 669 114 650 135 z m 333 108 b 229 219 265 108 229 149 b 401 347 229 306 286 347 l 475 347 l 475 199 b 333 108 442 140 396 108 z "},"ɑ":{"ha":831,"x_min":0,"x_max":0,"o":"m 717 222 l 717 735 l 563 735 l 551 663 b 363 756 507 718 447 756 b 60 367 174 756 60 593 b 344 -21 60 133 163 -21 b 558 92 432 -21 508 22 b 725 -21 583 35 631 -1 l 778 110 b 717 222 733 131 717 154 z m 388 114 b 247 368 301 114 247 179 b 399 622 247 544 308 622 b 539 544 458 622 500 593 l 539 208 b 388 114 497 146 453 114 z "},"ɒ":{"ha":831,"x_min":0,"x_max":0,"o":"m 486 756 b 272 643 400 756 322 711 b 106 756 247 700 200 736 l 53 625 b 114 513 97 604 114 581 l 114 0 l 268 0 l 278 71 b 468 -21 324 17 382 -21 b 771 368 657 -21 771 142 b 486 756 771 601 668 756 z m 432 113 b 292 190 372 113 331 143 l 292 525 b 443 621 333 588 376 621 b 583 367 529 621 583 556 b 432 113 583 190 522 113 z "},"ā":{"ha":758,"x_min":0,"x_max":0,"o":"m 572 1044 l 168 1044 l 168 918 l 572 918 z m 650 194 l 650 503 b 368 756 650 665 564 756 b 101 703 285 756 192 738 l 143 582 b 338 621 217 607 288 621 b 475 493 432 621 475 589 l 475 451 l 383 451 b 49 206 169 451 49 365 b 286 -21 49 72 139 -21 b 506 89 374 -21 454 11 b 668 -18 535 17 588 -11 l 706 100 b 650 194 669 114 650 135 z m 333 108 b 229 219 265 108 229 149 b 401 347 229 306 286 347 l 475 347 l 475 199 b 333 108 442 140 396 108 z "},"ą":{"ha":758,"x_min":0,"x_max":0,"o":"m 668 -18 l 706 100 b 650 194 669 114 650 135 l 650 503 b 368 756 650 665 564 756 b 101 703 285 756 192 738 l 143 582 b 338 621 217 607 288 621 b 475 493 432 621 475 589 l 475 451 l 383 451 b 49 206 169 451 49 365 b 286 -21 49 72 139 -21 b 506 89 374 -21 454 11 b 561 15 518 56 538 32 b 364 -199 435 -33 364 -101 b 554 -350 364 -289 442 -350 b 647 -340 592 -350 618 -346 l 661 -222 b 576 -232 629 -229 604 -232 b 501 -168 524 -232 501 -210 b 667 -18 501 -124 529 -74 l 668 -18 z m 333 108 b 229 219 265 108 229 149 b 401 347 229 306 286 347 l 475 347 l 475 199 b 333 108 442 140 396 108 z "},"å":{"ha":758,"x_min":0,"x_max":0,"o":"m 371 851 b 547 1018 478 851 547 928 b 371 1185 547 1110 478 1185 b 193 1018 263 1185 193 1110 b 371 851 193 928 263 851 z m 371 1092 b 438 1018 411 1092 438 1065 b 371 946 438 971 411 946 b 303 1018 329 946 303 971 b 371 1092 303 1065 329 1092 z m 650 194 l 650 503 b 368 756 650 665 564 756 b 101 703 285 756 192 738 l 143 582 b 338 621 217 607 288 621 b 475 493 432 621 475 589 l 475 451 l 383 451 b 49 206 169 451 49 365 b 286 -21 49 72 139 -21 b 506 89 374 -21 454 11 b 668 -18 535 17 588 -11 l 706 100 b 650 194 669 114 650 135 z m 333 108 b 229 219 265 108 229 149 b 401 347 229 306 286 347 l 475 347 l 475 199 b 333 108 442 140 396 108 z "},"ǻ":{"ha":758,"x_min":0,"x_max":0,"o":"m 556 1261 l 485 1400 l 192 1238 l 238 1146 z m 193 972 b 371 806 193 882 263 806 b 547 972 478 806 547 882 b 371 1139 547 1064 478 1139 b 193 972 263 1139 193 1064 z m 438 972 b 371 900 438 925 411 900 b 303 972 329 900 303 925 b 371 1046 303 1019 329 1046 b 438 972 411 1046 438 1019 z m 650 194 l 650 503 b 368 756 650 665 564 756 b 101 703 285 756 192 738 l 143 582 b 338 621 217 607 288 621 b 475 493 432 621 475 589 l 475 451 l 383 451 b 49 206 169 451 49 365 b 286 -21 49 72 139 -21 b 506 89 374 -21 454 11 b 668 -18 535 17 588 -11 l 706 100 b 650 194 669 114 650 135 z m 333 108 b 229 219 265 108 229 149 b 401 347 229 306 286 347 l 475 347 l 475 199 b 333 108 442 140 396 108 z "},"ⱥ":{"ha":758,"x_min":0,"x_max":0,"o":"m 650 194 l 650 503 b 503 736 650 621 604 701 l 524 814 l 457 831 l 436 751 b 368 756 415 754 392 756 b 101 703 285 756 192 738 l 143 589 b 351 628 217 614 297 628 b 403 624 371 628 388 626 l 357 446 b 49 206 158 439 49 354 b 236 -17 49 89 118 1 l 218 -85 l 286 -100 l 307 -19 b 506 89 386 -15 458 17 b 668 -18 535 17 588 -11 l 706 100 b 650 194 669 114 650 135 z m 489 500 l 489 447 l 428 447 l 465 590 b 489 500 482 571 489 542 z m 339 104 l 401 347 l 489 347 l 489 199 b 339 104 450 140 401 107 z m 219 217 b 329 342 219 286 256 328 l 271 115 b 219 217 236 132 219 167 z "},"ã":{"ha":758,"x_min":0,"x_max":0,"o":"m 292 960 b 451 894 339 960 374 894 b 618 1038 524 894 582 951 l 524 1085 b 450 1025 499 1044 479 1025 b 289 1089 401 1025 371 1089 b 122 944 211 1089 156 1024 l 218 897 b 292 960 240 938 258 960 z m 650 194 l 650 503 b 368 756 650 665 564 756 b 101 703 285 756 192 738 l 143 582 b 338 621 217 607 288 621 b 475 493 432 621 475 589 l 475 451 l 383 451 b 49 206 169 451 49 365 b 286 -21 49 72 139 -21 b 506 89 374 -21 454 11 b 668 -18 535 17 588 -11 l 706 100 b 650 194 669 114 650 135 z m 333 108 b 229 219 265 108 229 149 b 401 347 229 306 286 347 l 475 347 l 475 199 b 333 108 442 140 396 108 z "},"ɐ":{"ha":760,"x_min":0,"x_max":0,"o":"m 421 114 b 283 242 326 114 283 146 l 283 283 l 375 283 b 710 529 589 283 710 369 b 472 756 710 663 619 756 b 253 646 385 756 304 724 b 90 753 224 717 171 746 l 53 635 b 108 540 89 621 108 600 l 108 232 b 390 -21 108 69 194 -21 b 657 32 474 -21 567 -3 l 615 153 b 421 114 542 128 471 114 z m 425 626 b 529 515 493 626 529 586 b 357 388 529 429 472 388 l 283 388 l 283 536 b 425 626 317 594 363 626 z "},"æ":{"ha":1189,"x_min":0,"x_max":0,"o":"m 1131 385 b 819 756 1131 617 1013 756 b 597 653 719 756 649 717 b 374 756 556 715 488 756 b 108 703 292 756 199 738 l 149 581 b 344 619 224 606 294 619 b 482 493 439 619 482 588 l 482 451 l 389 451 b 49 206 171 451 49 365 b 290 -21 49 72 140 -21 b 551 110 397 -21 485 14 b 831 -21 610 28 704 -21 b 1104 78 942 -21 1031 19 l 1029 179 b 846 114 965 135 913 114 b 665 313 749 114 679 163 l 1126 313 b 1131 385 1129 332 1131 361 z m 956 428 l 665 428 b 811 629 676 574 728 629 b 956 436 913 629 954 557 z m 342 108 b 238 217 274 108 238 147 b 410 344 238 304 296 344 l 483 344 l 483 339 b 501 215 485 294 490 254 b 342 108 456 144 408 108 z "},"ǽ":{"ha":1189,"x_min":0,"x_max":0,"o":"m 772 1000 l 700 1139 l 408 965 l 458 875 z m 1131 385 b 819 756 1131 617 1013 756 b 597 653 719 756 649 717 b 374 756 556 715 488 756 b 108 703 292 756 199 738 l 149 581 b 344 619 224 606 294 619 b 482 493 439 619 482 588 l 482 451 l 389 451 b 49 206 171 451 49 365 b 290 -21 49 72 140 -21 b 551 110 397 -21 485 14 b 831 -21 610 28 704 -21 b 1104 78 942 -21 1031 19 l 1029 179 b 846 114 965 135 913 114 b 665 313 749 114 679 163 l 1126 313 b 1131 385 1129 332 1131 361 z m 956 428 l 665 428 b 811 629 676 574 728 629 b 956 436 913 629 954 557 z m 342 108 b 238 217 274 108 238 147 b 410 344 238 304 296 344 l 483 344 l 483 339 b 501 215 485 294 490 254 b 342 108 456 144 408 108 z "},"ǣ":{"ha":1189,"x_min":0,"x_max":0,"o":"m 796 1044 l 392 1044 l 392 918 l 796 918 z m 1131 385 b 819 756 1131 617 1013 756 b 597 653 719 756 649 717 b 374 756 556 715 488 756 b 108 703 292 756 199 738 l 149 581 b 344 619 224 606 294 619 b 482 493 439 619 482 588 l 482 451 l 389 451 b 49 206 171 451 49 365 b 290 -21 49 72 140 -21 b 551 110 397 -21 485 14 b 831 -21 610 28 704 -21 b 1104 78 942 -21 1031 19 l 1029 179 b 846 114 965 135 913 114 b 665 313 749 114 679 163 l 1126 313 b 1131 385 1129 332 1131 361 z m 956 428 l 665 428 b 811 629 676 574 728 629 b 956 436 913 629 954 557 z m 342 108 b 238 217 274 108 238 147 b 410 344 238 304 296 344 l 483 344 l 483 339 b 501 215 485 294 490 254 b 342 108 456 144 408 108 z "},"b":{"ha":828,"x_min":0,"x_max":0,"o":"m 485 756 b 285 653 403 756 332 717 l 285 1049 l 107 1029 l 107 0 l 264 0 l 275 75 b 469 -21 322 15 389 -21 b 760 368 650 -21 760 139 b 485 756 760 614 660 756 z m 422 113 b 285 197 365 113 318 146 l 285 522 b 431 622 319 579 367 622 b 574 368 515 622 574 564 b 422 113 574 183 511 113 z "},"ḃ":{"ha":828,"x_min":0,"x_max":0,"o":"m 438 1135 b 550 1242 504 1135 550 1182 b 438 1350 550 1303 504 1350 b 326 1242 372 1350 326 1303 b 438 1135 326 1182 372 1135 z m 485 756 b 285 653 403 756 332 717 l 285 1049 l 107 1029 l 107 0 l 264 0 l 275 75 b 469 -21 322 15 389 -21 b 760 368 650 -21 760 139 b 485 756 760 614 660 756 z m 422 113 b 285 197 365 113 318 146 l 285 522 b 431 622 319 579 367 622 b 574 368 515 622 574 564 b 422 113 574 183 511 113 z "},"ḅ":{"ha":828,"x_min":0,"x_max":0,"o":"m 485 756 b 285 653 403 756 332 717 l 285 1049 l 107 1029 l 107 0 l 264 0 l 275 75 b 469 -21 322 15 389 -21 b 760 368 650 -21 760 139 b 485 756 760 614 660 756 z m 422 113 b 285 197 365 113 318 146 l 285 522 b 431 622 319 579 367 622 b 574 368 515 622 574 564 b 422 113 574 183 511 113 z m 428 -92 b 315 -199 361 -92 315 -139 b 428 -307 315 -260 361 -307 b 539 -199 493 -307 539 -260 b 428 -92 539 -139 493 -92 z "},"ɓ":{"ha":828,"x_min":0,"x_max":0,"o":"m 485 756 b 285 653 403 756 332 717 l 285 813 b 382 914 285 882 311 914 b 503 886 417 914 458 907 l 554 1006 b 365 1049 499 1032 438 1049 b 107 815 194 1049 107 949 l 107 0 l 264 0 l 275 75 b 469 -21 322 15 389 -21 b 760 368 650 -21 760 139 b 485 756 760 614 660 756 z m 422 113 b 285 197 365 113 318 146 l 285 522 b 431 622 319 579 367 622 b 574 368 515 622 574 564 b 422 113 574 183 511 113 z "},"ʭ":{"ha":492,"x_min":0,"x_max":0,"o":"m 42 556 l 153 556 l 153 675 l 339 675 l 339 556 l 450 556 l 450 774 l 42 774 z m 42 0 l 153 0 l 153 119 l 339 119 l 339 0 l 450 0 l 450 218 l 42 218 z "},"ʘ":{"ha":1104,"x_min":0,"x_max":0,"o":"m 553 981 b 60 481 264 981 60 783 b 553 -21 60 167 264 -21 b 1044 481 842 -21 1044 175 b 553 981 1044 793 842 981 z m 553 850 b 871 481 740 850 871 736 b 553 110 871 222 744 110 b 233 481 365 110 233 222 b 553 850 233 736 363 850 z m 553 581 b 450 481 492 581 450 538 b 553 381 450 425 492 381 b 658 481 615 381 658 425 b 553 581 658 538 615 581 z "},"ʬ":{"ha":650,"x_min":0,"x_max":0,"o":"m 608 925 l 504 925 l 450 642 l 392 925 l 271 925 l 207 643 l 154 925 l 42 925 l 133 556 l 269 556 l 329 825 l 386 556 l 519 556 z m 608 369 l 504 369 l 450 86 l 392 369 l 271 369 l 207 88 l 154 369 l 42 369 l 133 0 l 269 0 l 329 269 l 386 0 l 519 0 z "},"ƀ":{"ha":840,"x_min":0,"x_max":0,"o":"m 499 756 b 297 651 417 756 344 717 l 297 835 l 492 835 l 492 949 l 297 949 l 297 1049 l 119 1029 l 119 949 l 24 949 l 24 835 l 119 835 l 119 0 l 278 0 l 289 75 b 482 -21 336 15 401 -21 b 774 368 664 -21 774 139 b 499 756 774 614 672 756 z m 435 113 b 297 197 378 113 331 144 l 297 522 b 444 622 332 579 379 622 b 586 368 528 622 586 564 b 435 113 586 183 524 113 z "},"ƃ":{"ha":828,"x_min":0,"x_max":0,"o":"m 485 746 b 285 643 403 746 332 707 l 285 899 l 571 899 l 592 1029 l 107 1029 l 107 0 l 264 0 l 275 75 b 469 -21 322 15 389 -21 b 760 363 650 -21 760 139 b 485 746 760 604 660 746 z m 422 113 b 285 197 365 113 318 146 l 285 514 b 431 613 319 569 367 613 b 574 363 515 613 574 554 b 422 113 574 183 511 113 z "},"c":{"ha":664,"x_min":0,"x_max":0,"o":"m 403 756 b 60 361 192 756 60 596 b 404 -21 60 126 192 -21 b 642 64 499 -21 575 10 l 563 176 b 414 124 508 142 469 124 b 249 364 314 124 249 186 b 414 615 249 540 311 615 b 563 563 469 615 514 599 l 642 669 b 403 756 572 729 499 756 z "},"ć":{"ha":664,"x_min":0,"x_max":0,"o":"m 508 1139 l 217 965 l 267 875 l 581 1000 z m 403 756 b 60 361 192 756 60 596 b 404 -21 60 126 192 -21 b 642 64 499 -21 575 10 l 563 176 b 414 124 508 142 469 124 b 249 364 314 124 249 186 b 414 615 249 540 311 615 b 563 563 469 615 514 599 l 642 669 b 403 756 572 729 499 756 z "},"č":{"ha":664,"x_min":0,"x_max":0,"o":"m 583 1111 l 403 989 l 222 1111 l 154 1033 l 347 860 l 458 860 l 651 1033 z m 403 756 b 60 361 192 756 60 596 b 404 -21 60 126 192 -21 b 642 64 499 -21 575 10 l 563 176 b 414 124 508 142 469 124 b 249 364 314 124 249 186 b 414 615 249 540 311 615 b 563 563 469 615 514 599 l 642 669 b 403 756 572 729 499 756 z "},"ç":{"ha":664,"x_min":0,"x_max":0,"o":"m 642 64 l 563 176 b 414 124 508 142 469 124 b 249 364 314 124 249 186 b 414 615 249 540 311 615 b 563 563 469 615 514 599 l 642 669 b 403 756 572 729 499 756 b 60 361 192 756 60 596 b 332 -14 60 156 163 17 l 315 -147 b 442 -200 404 -147 442 -164 b 374 -247 442 -235 413 -247 b 286 -225 339 -247 313 -239 l 243 -312 b 386 -351 275 -335 326 -351 b 576 -200 497 -351 576 -293 b 439 -72 576 -133 536 -82 l 439 -19 b 642 64 518 -12 583 17 z "},"ĉ":{"ha":664,"x_min":0,"x_max":0,"o":"m 222 871 l 403 993 l 583 871 l 651 947 l 458 1122 l 346 1122 l 154 947 z m 403 756 b 60 361 192 756 60 596 b 404 -21 60 126 192 -21 b 642 64 499 -21 575 10 l 563 176 b 414 124 508 142 469 124 b 249 364 314 124 249 186 b 414 615 249 540 311 615 b 563 563 469 615 514 599 l 642 669 b 403 756 572 729 499 756 z "},"ɕ":{"ha":688,"x_min":0,"x_max":0,"o":"m 496 340 b 290 178 394 340 336 290 b 249 364 264 217 249 276 b 414 615 249 540 311 615 b 561 561 469 615 514 599 l 642 669 b 403 756 572 729 499 756 b 60 361 192 756 60 596 b 218 31 60 208 117 90 l 171 -72 l 268 -111 l 313 -10 b 413 -21 340 -15 369 -21 b 667 182 556 -21 667 49 b 496 340 667 282 594 340 z m 433 115 b 372 124 408 115 390 118 b 483 233 411 208 438 233 b 532 185 515 233 532 215 b 433 115 532 138 494 115 z "},"ċ":{"ha":664,"x_min":0,"x_max":0,"o":"m 401 1107 b 290 999 336 1107 290 1060 b 401 892 290 939 336 892 b 514 999 468 892 514 939 b 401 1107 514 1060 468 1107 z m 403 756 b 60 361 192 756 60 596 b 404 -21 60 126 192 -21 b 642 64 499 -21 575 10 l 563 176 b 414 124 508 142 469 124 b 249 364 314 124 249 186 b 414 615 249 540 311 615 b 563 563 469 615 514 599 l 642 669 b 403 756 572 729 499 756 z "},"ƈ":{"ha":664,"x_min":0,"x_max":0,"o":"m 701 1049 b 478 821 558 1049 478 968 l 478 742 b 389 756 453 751 422 756 b 60 361 193 756 60 596 b 404 -21 60 126 192 -21 b 642 64 499 -21 575 10 l 560 181 b 414 124 508 142 469 124 b 249 364 314 124 249 186 b 417 615 249 540 311 615 b 574 576 485 615 529 600 l 642 669 l 642 819 b 721 914 642 886 671 914 b 819 885 761 914 788 903 l 876 996 b 701 1049 838 1022 781 1049 z "},"ʗ":{"ha":682,"x_min":0,"x_max":0,"o":"m 435 756 b 78 221 210 756 78 554 b 432 -300 78 -111 207 -300 b 660 -217 517 -300 593 -269 l 581 -104 b 436 -157 529 -139 489 -157 b 267 224 332 -157 267 -53 b 440 615 267 499 331 615 b 583 565 494 615 536 599 l 660 669 b 435 756 593 729 521 756 z "},"ȼ":{"ha":664,"x_min":0,"x_max":0,"o":"m 414 124 b 367 129 397 124 382 125 l 494 601 b 563 563 518 593 540 579 l 642 669 b 531 735 607 700 571 721 l 553 814 l 483 831 l 463 751 b 403 756 443 754 424 756 b 60 361 192 756 60 596 b 261 7 60 186 133 58 l 236 -83 l 306 -100 l 329 -14 b 404 -21 353 -18 378 -21 b 642 64 499 -21 575 10 l 563 176 b 414 124 508 142 469 124 z m 249 364 b 414 615 249 540 311 615 l 425 615 l 303 165 b 249 364 268 201 249 265 z "},"d":{"ha":832,"x_min":0,"x_max":0,"o":"m 547 1049 l 547 676 b 365 756 501 724 440 756 b 67 367 179 756 67 593 b 346 -21 67 133 163 -21 b 556 93 442 -21 511 26 l 568 0 l 725 0 l 725 1029 z m 396 114 b 254 368 308 114 254 179 b 408 622 254 544 315 622 b 547 544 467 622 508 593 l 547 208 b 396 114 506 146 461 114 z "},"ð":{"ha":799,"x_min":0,"x_max":0,"o":"m 486 926 l 568 1011 l 472 1094 l 374 989 b 168 1047 300 1019 239 1035 l 132 925 b 274 886 178 917 224 906 l 183 793 l 299 739 l 385 824 b 538 586 471 757 514 682 b 344 663 489 633 428 663 b 60 325 167 663 60 504 b 390 -21 60 106 206 -21 b 731 376 601 -21 731 146 b 486 926 731 618 669 793 z m 390 113 b 242 331 301 113 242 182 b 386 533 242 446 276 533 b 549 454 456 533 508 506 b 550 363 550 424 550 394 b 390 113 550 196 492 113 z "},"ȸ":{"ha":1213,"x_min":0,"x_max":0,"o":"m 890 756 b 697 651 806 756 743 717 l 697 1049 l 519 1029 l 519 660 b 344 756 474 722 411 756 b 67 367 178 756 67 593 b 332 -21 67 133 163 -21 b 528 92 414 -21 483 26 l 540 0 l 676 0 l 689 90 b 868 -21 729 24 790 -21 b 1144 368 1035 -21 1144 139 b 890 756 1144 614 1046 756 z m 382 114 b 254 368 308 114 254 179 b 388 622 254 544 311 622 b 519 536 439 622 482 592 l 519 208 b 382 114 478 146 435 114 z m 826 113 b 697 213 765 113 732 151 l 697 529 b 833 622 729 578 769 622 b 958 368 904 622 958 564 b 826 113 958 183 896 113 z "},"ď":{"ha":897,"x_min":0,"x_max":0,"o":"m 547 676 b 365 756 501 724 440 756 b 67 367 179 756 67 593 b 346 -21 67 133 163 -21 b 556 93 442 -21 511 26 l 568 0 l 725 0 l 725 1029 l 547 1049 z m 813 1047 l 783 764 l 882 749 l 956 1028 z m 396 114 b 254 368 308 114 254 179 b 408 622 254 544 315 622 b 547 544 467 622 508 593 l 547 208 b 396 114 506 146 461 114 z "},"ḓ":{"ha":832,"x_min":0,"x_max":0,"o":"m 547 1049 l 547 676 b 365 756 501 724 440 756 b 67 367 179 756 67 593 b 346 -21 67 133 163 -21 b 556 93 442 -21 511 26 l 568 0 l 725 0 l 725 1029 z m 396 114 b 254 368 308 114 254 179 b 408 622 254 544 315 622 b 547 544 467 622 508 593 l 547 208 b 396 114 506 146 461 114 z m 371 -90 l 179 -265 l 247 -343 l 428 -221 l 608 -343 l 676 -265 l 483 -90 z "},"đ":{"ha":844,"x_min":0,"x_max":0,"o":"m 725 949 l 725 1029 l 547 1049 l 547 949 l 344 949 l 344 835 l 547 835 l 547 676 b 365 756 501 724 440 756 b 67 367 179 756 67 593 b 346 -21 67 133 163 -21 b 556 93 442 -21 511 26 l 568 0 l 725 0 l 725 835 l 822 835 l 822 949 z m 396 114 b 254 368 308 114 254 179 b 408 622 254 544 315 622 b 547 544 467 622 508 593 l 547 208 b 396 114 506 146 461 114 z "},"ȡ":{"ha":1064,"x_min":0,"x_max":0,"o":"m 921 328 b 731 176 828 328 775 276 b 725 232 726 190 725 210 l 725 1029 l 547 1049 l 547 676 b 365 756 501 724 440 756 b 67 367 179 756 67 593 b 346 -21 67 133 163 -21 b 572 117 447 -21 522 32 b 656 22 592 75 621 44 l 611 -72 l 707 -111 l 751 -12 b 829 -21 776 -18 803 -21 b 1082 175 974 -21 1082 47 b 921 328 1082 269 1014 328 z m 396 114 b 254 368 308 114 254 179 b 408 622 254 544 315 622 b 547 544 467 622 508 593 l 547 242 b 549 210 547 231 547 219 b 396 114 507 147 463 114 z m 846 115 b 808 117 832 115 819 115 b 904 221 844 197 867 221 b 947 178 932 221 947 204 b 846 115 947 136 914 115 z "},"ḋ":{"ha":832,"x_min":0,"x_max":0,"o":"m 415 1135 b 528 1242 482 1135 528 1182 b 415 1350 528 1303 482 1350 b 304 1242 350 1350 304 1303 b 415 1135 304 1182 350 1135 z m 547 1049 l 547 676 b 365 756 501 724 440 756 b 67 367 179 756 67 593 b 346 -21 67 133 163 -21 b 556 93 442 -21 511 26 l 568 0 l 725 0 l 725 1029 z m 396 114 b 254 368 308 114 254 179 b 408 622 254 544 315 622 b 547 544 467 622 508 593 l 547 208 b 396 114 506 146 461 114 z "},"ḍ":{"ha":832,"x_min":0,"x_max":0,"o":"m 547 1049 l 547 676 b 365 756 501 724 440 756 b 67 367 179 756 67 593 b 346 -21 67 133 163 -21 b 556 93 442 -21 511 26 l 568 0 l 725 0 l 725 1029 z m 396 114 b 254 368 308 114 254 179 b 408 622 254 544 315 622 b 547 544 467 622 508 593 l 547 208 b 396 114 506 146 461 114 z m 428 -92 b 315 -199 361 -92 315 -139 b 428 -307 315 -260 361 -307 b 539 -199 493 -307 539 -260 b 428 -92 539 -139 493 -92 z "},"ƍ":{"ha":803,"x_min":0,"x_max":0,"o":"m 425 -174 b 311 -99 342 -174 311 -137 b 463 26 311 -51 335 -28 b 743 394 650 104 743 197 b 401 756 743 600 614 756 b 60 401 193 756 60 624 b 271 88 60 251 142 150 b 136 -101 163 31 136 -29 b 410 -303 136 -206 224 -303 b 667 -222 522 -303 603 -269 l 582 -122 b 425 -174 531 -157 485 -174 z m 400 621 b 556 393 501 621 556 546 b 369 132 556 254 518 197 b 246 396 285 194 246 271 b 400 621 246 544 296 621 z "},"ʤ":{"ha":1374,"x_min":0,"x_max":0,"o":"m 1028 292 l 1301 608 l 1301 735 l 725 735 l 725 1029 l 547 1049 l 547 676 b 365 756 501 724 440 756 b 67 367 179 756 67 593 b 346 -21 67 133 163 -21 b 556 93 442 -21 511 26 l 568 0 l 725 0 l 725 597 l 1100 597 l 842 290 l 842 178 l 961 178 b 1154 19 1094 178 1154 135 b 978 -164 1154 -103 1089 -164 b 772 -75 894 -164 836 -136 l 674 -168 b 986 -303 747 -253 844 -303 b 1340 11 1206 -303 1340 -172 b 1028 292 1340 193 1228 285 z m 396 114 b 254 368 308 114 254 179 b 408 622 254 544 315 622 b 547 544 467 622 508 593 l 547 208 b 396 114 506 146 461 114 z "},"ɗ":{"ha":832,"x_min":0,"x_max":0,"o":"m 785 1049 b 547 811 633 1049 547 958 l 547 676 b 365 756 501 724 440 756 b 67 367 179 756 67 593 b 346 -21 67 133 163 -21 b 556 93 442 -21 511 26 l 568 0 l 725 0 l 725 819 b 804 914 725 886 754 914 b 903 885 844 914 871 903 l 960 996 b 785 1049 921 1022 864 1049 z m 396 114 b 254 368 308 114 254 179 b 408 622 254 544 315 622 b 547 544 467 622 508 593 l 547 208 b 396 114 506 146 461 114 z "},"ḏ":{"ha":832,"x_min":0,"x_max":0,"o":"m 547 1049 l 547 676 b 365 756 501 724 440 756 b 67 367 179 756 67 593 b 346 -21 67 133 163 -21 b 556 93 442 -21 511 26 l 568 0 l 725 0 l 725 1029 z m 396 114 b 254 368 308 114 254 179 b 408 622 254 544 315 622 b 547 544 467 622 508 593 l 547 208 b 396 114 506 146 461 114 z m 225 -253 l 629 -253 l 629 -126 l 225 -126 z "},"ɖ":{"ha":832,"x_min":0,"x_max":0,"o":"m 908 -139 b 808 -168 876 -157 851 -168 b 725 -75 757 -168 725 -140 l 725 1029 l 547 1049 l 547 676 b 365 756 501 724 440 756 b 67 367 179 756 67 593 b 346 -21 67 133 163 -21 b 547 81 435 -21 503 21 l 547 -60 b 792 -303 547 -221 646 -303 b 971 -246 875 -303 932 -276 z m 396 114 b 254 368 308 114 254 179 b 408 622 254 544 315 622 b 547 544 467 622 508 593 l 547 208 b 396 114 506 146 461 114 z "},"ƌ":{"ha":832,"x_min":0,"x_max":0,"o":"m 725 1029 l 251 1029 l 251 899 l 547 899 l 547 667 b 365 746 501 714 440 746 b 67 363 179 746 67 583 b 346 -21 67 133 163 -21 b 556 93 442 -21 511 26 l 568 0 l 725 0 z m 396 114 b 254 363 308 114 254 179 b 408 613 254 535 315 613 b 547 536 467 613 508 583 l 547 208 b 396 114 506 146 461 114 z "},"ǳ":{"ha":1456,"x_min":0,"x_max":0,"o":"m 547 676 b 365 756 501 724 440 756 b 67 367 179 756 67 593 b 346 -21 67 133 163 -21 b 556 93 442 -21 511 26 l 568 0 l 725 0 l 725 1029 l 547 1049 z m 1061 139 l 1417 607 l 1417 735 l 888 735 l 888 596 l 1214 596 l 857 128 l 857 0 l 1406 0 l 1424 139 z m 396 114 b 254 368 308 114 254 179 b 408 622 254 544 315 622 b 547 544 467 622 508 593 l 547 208 b 396 114 506 146 461 114 z "},"ʣ":{"ha":1321,"x_min":0,"x_max":0,"o":"m 918 139 l 1283 607 l 1283 735 l 725 735 l 725 1029 l 547 1049 l 547 676 b 365 756 501 724 440 756 b 67 367 179 756 67 593 b 346 -21 67 133 163 -21 b 556 93 442 -21 511 26 l 568 0 l 1271 0 l 1289 139 z m 396 114 b 254 368 308 114 254 179 b 408 622 254 544 315 622 b 547 544 467 622 508 593 l 547 208 b 396 114 506 146 461 114 z m 725 596 l 1089 596 l 725 128 z "},"ǆ":{"ha":1456,"x_min":0,"x_max":0,"o":"m 1203 860 l 1396 1033 l 1328 1111 l 1147 989 l 967 1111 l 899 1033 l 1092 860 z m 547 676 b 365 756 501 724 440 756 b 67 367 179 756 67 593 b 346 -21 67 133 163 -21 b 556 93 442 -21 511 26 l 568 0 l 725 0 l 725 1029 l 547 1049 z m 1061 139 l 1417 607 l 1417 735 l 888 735 l 888 596 l 1214 596 l 857 128 l 857 0 l 1406 0 l 1424 139 z m 396 114 b 254 368 308 114 254 179 b 408 622 254 544 315 622 b 547 544 467 622 508 593 l 547 208 b 396 114 506 146 461 114 z "},"ʥ":{"ha":1394,"x_min":0,"x_max":0,"o":"m 1419 188 b 1260 336 1419 282 1350 336 b 1053 139 1161 336 1085 282 l 917 139 l 1282 611 l 1282 735 l 725 735 l 725 1029 l 547 1049 l 547 676 b 365 756 501 724 440 756 b 67 367 179 756 67 593 b 346 -21 67 133 163 -21 b 556 93 442 -21 511 26 l 568 0 l 1032 0 b 1025 -174 1026 -54 1025 -112 l 1136 -174 b 1143 0 1136 -111 1136 -54 b 1419 188 1326 1 1419 63 z m 396 114 b 254 368 308 114 254 179 b 408 622 254 544 315 622 b 547 544 467 622 508 593 l 547 208 b 396 114 506 146 461 114 z m 725 596 l 1083 596 l 725 132 z m 1247 235 b 1289 194 1274 235 1289 221 b 1165 139 1289 151 1251 140 b 1247 235 1182 214 1213 235 z "},"e":{"ha":767,"x_min":0,"x_max":0,"o":"m 710 385 b 386 756 710 617 592 756 b 60 363 178 756 60 586 b 410 -21 60 131 182 -21 b 682 78 521 -21 610 19 l 608 179 b 425 114 544 135 490 114 b 244 313 328 114 258 163 l 706 313 b 710 385 707 332 710 361 z m 533 428 l 244 428 b 390 629 254 574 307 629 b 533 436 490 629 533 557 z "},"é":{"ha":767,"x_min":0,"x_max":0,"o":"m 568 1000 l 496 1139 l 204 965 l 254 875 z m 710 385 b 386 756 710 617 592 756 b 60 363 178 756 60 586 b 410 -21 60 131 182 -21 b 682 78 521 -21 610 19 l 608 179 b 425 114 544 135 490 114 b 244 313 328 114 258 163 l 706 313 b 710 385 707 332 710 361 z m 533 428 l 244 428 b 390 629 254 574 307 629 b 533 436 490 629 533 557 z "},"ĕ":{"ha":767,"x_min":0,"x_max":0,"o":"m 389 885 b 617 1100 519 885 606 975 l 511 1119 b 389 1013 494 1051 453 1013 b 268 1119 325 1013 286 1051 l 164 1100 b 389 885 175 975 258 885 z m 710 385 b 386 756 710 617 592 756 b 60 363 178 756 60 586 b 410 -21 60 131 182 -21 b 682 78 521 -21 610 19 l 608 179 b 425 114 544 135 490 114 b 244 313 328 114 258 163 l 706 313 b 710 385 707 332 710 361 z m 533 428 l 244 428 b 390 629 254 574 307 629 b 533 436 490 629 533 557 z "},"ě":{"ha":767,"x_min":0,"x_max":0,"o":"m 446 860 l 639 1033 l 571 1111 l 390 989 l 210 1111 l 142 1033 l 335 860 z m 710 385 b 386 756 710 617 592 756 b 60 363 178 756 60 586 b 410 -21 60 131 182 -21 b 682 78 521 -21 610 19 l 608 179 b 425 114 544 135 490 114 b 244 313 328 114 258 163 l 706 313 b 710 385 707 332 710 361 z m 533 428 l 244 428 b 390 629 254 574 307 629 b 533 436 490 629 533 557 z "},"ȩ":{"ha":767,"x_min":0,"x_max":0,"o":"m 710 385 b 386 756 710 617 592 756 b 60 363 178 756 60 586 b 349 -17 60 153 161 8 l 332 -147 b 458 -200 421 -147 458 -164 b 390 -247 458 -235 429 -247 b 303 -225 356 -247 329 -239 l 260 -312 b 403 -351 292 -335 343 -351 b 593 -200 514 -351 593 -293 b 456 -72 593 -133 553 -82 l 456 -18 b 682 78 546 -8 619 28 l 608 179 b 425 114 544 135 490 114 b 244 313 328 114 258 163 l 706 313 b 710 385 707 332 710 361 z m 533 428 l 244 428 b 390 629 254 574 307 629 b 533 436 490 629 533 557 z "},"ê":{"ha":767,"x_min":0,"x_max":0,"o":"m 390 993 l 571 871 l 639 947 l 446 1122 l 333 1122 l 142 947 l 210 871 z m 710 385 b 386 756 710 617 592 756 b 60 363 178 756 60 586 b 410 -21 60 131 182 -21 b 682 78 521 -21 610 19 l 608 179 b 425 114 544 135 490 114 b 244 313 328 114 258 163 l 706 313 b 710 385 707 332 710 361 z m 533 428 l 244 428 b 390 629 254 574 307 629 b 533 436 490 629 533 557 z "},"ế":{"ha":767,"x_min":0,"x_max":0,"o":"m 797 1190 l 696 1288 l 522 1067 l 592 1004 z m 386 929 l 567 815 l 635 892 l 442 1060 l 331 1060 l 138 892 l 206 815 z m 386 756 b 60 363 178 756 60 586 b 410 -21 60 131 182 -21 b 682 78 521 -21 610 19 l 608 179 b 425 114 544 135 490 114 b 244 313 328 114 258 163 l 706 313 b 710 385 707 332 710 361 b 386 756 710 617 592 756 z m 533 428 l 244 428 b 390 629 254 574 307 629 b 533 436 490 629 533 557 z "},"ệ":{"ha":767,"x_min":0,"x_max":0,"o":"m 390 993 l 571 871 l 639 947 l 446 1122 l 333 1122 l 142 947 l 210 871 z m 710 385 b 386 756 710 617 592 756 b 60 363 178 756 60 586 b 410 -21 60 131 182 -21 b 682 78 521 -21 610 19 l 608 179 b 425 114 544 135 490 114 b 244 313 328 114 258 163 l 706 313 b 710 385 707 332 710 361 z m 533 428 l 244 428 b 390 629 254 574 307 629 b 533 436 490 629 533 557 z m 408 -92 b 296 -199 342 -92 296 -139 b 408 -307 296 -260 342 -307 b 519 -199 474 -307 519 -260 b 408 -92 519 -139 474 -92 z "},"ề":{"ha":767,"x_min":0,"x_max":0,"o":"m 251 1067 l 76 1288 l -24 1190 l 182 1004 z m 206 815 l 386 929 l 567 815 l 635 892 l 442 1060 l 331 1060 l 138 892 z m 710 385 b 386 756 710 617 592 756 b 60 363 178 756 60 586 b 410 -21 60 131 182 -21 b 682 78 521 -21 610 19 l 608 179 b 425 114 544 135 490 114 b 244 313 328 114 258 163 l 706 313 b 710 385 707 332 710 361 z m 533 428 l 244 428 b 390 629 254 574 307 629 b 533 436 490 629 533 557 z "},"ể":{"ha":767,"x_min":0,"x_max":0,"o":"m 604 1358 b 463 1324 543 1358 499 1344 l 496 1240 b 578 1260 522 1253 546 1260 b 636 1214 613 1260 636 1246 b 538 1158 636 1174 603 1164 l 538 1024 l 651 1024 l 651 1100 b 767 1225 724 1113 767 1154 b 604 1358 767 1306 710 1358 z m 386 929 l 567 815 l 635 892 l 442 1060 l 331 1060 l 138 892 l 206 815 z m 386 756 b 60 363 178 756 60 586 b 410 -21 60 131 182 -21 b 682 78 521 -21 610 19 l 608 179 b 425 114 544 135 490 114 b 244 313 328 114 258 163 l 706 313 b 710 385 707 332 710 361 b 386 756 710 617 592 756 z m 533 428 l 244 428 b 390 629 254 574 307 629 b 533 436 490 629 533 557 z "},"ễ":{"ha":767,"x_min":0,"x_max":0,"o":"m 308 1150 b 468 1089 356 1150 390 1089 b 635 1226 540 1089 599 1143 l 540 1272 b 467 1213 515 1232 496 1213 b 306 1275 418 1213 388 1275 b 139 1135 228 1275 172 1213 l 235 1090 b 308 1150 257 1129 275 1150 z m 386 919 l 567 806 l 635 882 l 442 1050 l 331 1050 l 138 882 l 206 806 z m 710 385 b 386 756 710 617 592 756 b 60 363 178 756 60 586 b 410 -21 60 131 182 -21 b 682 78 521 -21 610 19 l 608 179 b 425 114 544 135 490 114 b 244 313 328 114 258 163 l 706 313 b 710 385 707 332 710 361 z m 533 428 l 244 428 b 390 629 254 574 307 629 b 533 436 490 629 533 557 z "},"ȅ":{"ha":767,"x_min":0,"x_max":0,"o":"m 354 918 l 226 1176 l 97 1110 l 257 874 z m 571 922 l 456 1176 l 325 1113 l 471 881 z m 710 385 b 386 756 710 617 592 756 b 60 363 178 756 60 586 b 410 -21 60 131 182 -21 b 682 78 521 -21 610 19 l 608 179 b 425 114 544 135 490 114 b 244 313 328 114 258 163 l 706 313 b 710 385 707 332 710 361 z m 533 428 l 244 428 b 390 629 254 574 307 629 b 533 436 490 629 533 557 z "},"ë":{"ha":767,"x_min":0,"x_max":0,"o":"m 236 899 b 333 994 292 899 333 940 b 236 1090 333 1049 292 1090 b 139 994 182 1090 139 1049 b 236 899 139 940 182 899 z m 543 899 b 642 994 600 899 642 940 b 543 1090 642 1049 600 1090 b 447 994 490 1090 447 1049 b 543 899 447 940 490 899 z m 710 385 b 386 756 710 617 592 756 b 60 363 178 756 60 586 b 410 -21 60 131 182 -21 b 682 78 521 -21 610 19 l 608 179 b 425 114 544 135 490 114 b 244 313 328 114 258 163 l 706 313 b 710 385 707 332 710 361 z m 533 428 l 244 428 b 390 629 254 574 307 629 b 533 436 490 629 533 557 z "},"ė":{"ha":767,"x_min":0,"x_max":0,"o":"m 389 892 b 501 999 456 892 501 939 b 389 1107 501 1060 456 1107 b 278 999 324 1107 278 1060 b 389 892 278 939 324 892 z m 710 385 b 386 756 710 617 592 756 b 60 363 178 756 60 586 b 410 -21 60 131 182 -21 b 682 78 521 -21 610 19 l 608 179 b 425 114 544 135 490 114 b 244 313 328 114 258 163 l 706 313 b 710 385 707 332 710 361 z m 533 428 l 244 428 b 390 629 254 574 307 629 b 533 436 490 629 533 557 z "},"ẹ":{"ha":767,"x_min":0,"x_max":0,"o":"m 710 385 b 386 756 710 617 592 756 b 60 363 178 756 60 586 b 410 -21 60 131 182 -21 b 682 78 521 -21 610 19 l 608 179 b 425 114 544 135 490 114 b 244 313 328 114 258 163 l 706 313 b 710 385 707 332 710 361 z m 533 428 l 244 428 b 390 629 254 574 307 629 b 533 436 490 629 533 557 z m 408 -92 b 296 -199 342 -92 296 -139 b 408 -307 296 -260 342 -307 b 519 -199 474 -307 519 -260 b 408 -92 519 -139 474 -92 z "},"è":{"ha":767,"x_min":0,"x_max":0,"o":"m 586 965 l 294 1139 l 222 1000 l 535 875 z m 710 385 b 386 756 710 617 592 756 b 60 363 178 756 60 586 b 410 -21 60 131 182 -21 b 682 78 521 -21 610 19 l 608 179 b 425 114 544 135 490 114 b 244 313 328 114 258 163 l 706 313 b 710 385 707 332 710 361 z m 533 428 l 244 428 b 390 629 254 574 307 629 b 533 436 490 629 533 557 z "},"ẻ":{"ha":767,"x_min":0,"x_max":0,"o":"m 369 1081 b 428 1035 404 1081 428 1067 b 329 979 428 994 394 985 l 329 844 l 443 844 l 443 921 b 558 1046 515 933 558 975 b 396 1179 558 1126 501 1179 b 254 1144 335 1179 290 1165 l 288 1061 b 369 1081 314 1074 338 1081 z m 710 385 b 386 756 710 617 592 756 b 60 363 178 756 60 586 b 410 -21 60 131 182 -21 b 682 78 521 -21 610 19 l 608 179 b 425 114 544 135 490 114 b 244 313 328 114 258 163 l 706 313 b 710 385 707 332 710 361 z m 533 428 l 244 428 b 390 629 254 574 307 629 b 533 436 490 629 533 557 z "},"ȇ":{"ha":767,"x_min":0,"x_max":0,"o":"m 389 950 b 511 843 453 950 494 911 l 617 863 b 389 1078 606 988 519 1078 b 164 863 258 1078 175 988 l 268 843 b 389 950 286 911 325 950 z m 710 385 b 386 756 710 617 592 756 b 60 363 178 756 60 586 b 410 -21 60 131 182 -21 b 682 78 521 -21 610 19 l 608 179 b 425 114 544 135 490 114 b 244 313 328 114 258 163 l 706 313 b 710 385 707 332 710 361 z m 533 428 l 244 428 b 390 629 254 574 307 629 b 533 436 490 629 533 557 z "},"ē":{"ha":767,"x_min":0,"x_max":0,"o":"m 592 1044 l 188 1044 l 188 918 l 592 918 z m 710 385 b 386 756 710 617 592 756 b 60 363 178 756 60 586 b 410 -21 60 131 182 -21 b 682 78 521 -21 610 19 l 608 179 b 425 114 544 135 490 114 b 244 313 328 114 258 163 l 706 313 b 710 385 707 332 710 361 z m 533 428 l 244 428 b 390 629 254 574 307 629 b 533 436 490 629 533 557 z "},"ę":{"ha":767,"x_min":0,"x_max":0,"o":"m 710 385 b 386 756 710 617 592 756 b 60 363 178 756 60 586 b 367 -18 60 146 167 0 b 263 -169 301 -54 263 -104 b 453 -321 263 -260 340 -321 b 546 -311 490 -321 517 -317 l 560 -193 b 475 -203 528 -200 503 -203 b 400 -139 422 -203 400 -181 b 538 -1 400 -97 424 -51 b 682 78 592 15 640 43 l 608 179 b 425 114 544 135 490 114 b 244 313 328 114 258 163 l 706 313 b 710 385 707 332 710 361 z m 533 428 l 244 428 b 390 629 254 574 307 629 b 533 436 490 629 533 557 z "},"ɛ":{"ha":660,"x_min":0,"x_max":0,"o":"m 368 756 b 89 556 200 756 89 679 b 251 392 89 468 144 413 b 60 204 132 376 60 319 b 367 -21 60 58 188 -21 b 649 67 479 -21 578 13 l 571 171 b 385 111 508 132 453 111 b 247 217 293 111 247 154 b 383 319 247 286 283 319 l 463 319 l 481 442 l 392 442 b 269 535 315 442 269 479 b 388 628 269 594 314 628 b 547 582 451 628 496 611 l 624 679 b 368 756 554 731 474 756 z "},"ʚ":{"ha":794,"x_min":0,"x_max":0,"o":"m 379 -21 b 733 368 614 -21 733 126 b 382 756 733 599 606 756 b 97 551 219 756 97 678 b 253 393 97 472 147 419 b 60 214 129 374 60 322 b 379 -21 60 64 193 -21 z m 382 111 b 243 222 300 111 243 143 b 392 319 243 297 307 319 l 442 319 l 432 442 l 407 442 b 275 539 333 442 275 471 b 385 628 275 596 319 628 b 551 368 496 628 551 547 b 382 111 551 189 507 111 z "},"ɜ":{"ha":693,"x_min":0,"x_max":0,"o":"m 317 756 b 38 671 201 756 114 726 l 119 572 b 294 628 171 607 221 628 b 414 540 361 628 414 604 b 274 442 414 471 357 442 l 193 442 l 182 319 l 289 319 b 446 221 382 319 446 294 b 297 111 446 139 382 111 b 99 174 218 111 163 131 l 11 69 b 304 -21 86 14 179 -21 b 632 214 490 -21 632 56 b 439 393 632 322 564 374 b 594 554 546 419 594 472 b 317 756 594 683 467 756 z "},"ɞ":{"ha":793,"x_min":0,"x_max":0,"o":"m 414 -21 b 733 214 600 -21 733 64 b 540 393 733 322 664 374 b 696 551 646 419 696 472 b 411 756 696 678 575 756 b 60 368 188 756 60 599 b 414 -21 60 126 179 -21 z m 411 111 b 242 368 286 111 242 189 b 408 628 242 547 299 628 b 518 539 475 628 518 596 b 386 442 518 471 461 442 l 363 442 l 351 319 l 401 319 b 551 222 488 319 551 297 b 411 111 551 143 493 111 z "},"ɝ":{"ha":1021,"x_min":0,"x_max":0,"o":"m 988 588 b 893 560 958 571 935 560 b 814 646 846 560 814 585 l 814 735 l 660 735 l 546 675 b 317 756 494 728 410 756 b 38 671 201 756 114 726 l 119 572 b 294 628 171 607 221 628 b 414 540 361 628 414 604 b 274 442 414 471 357 442 l 193 442 l 182 319 l 289 319 b 446 221 382 319 446 294 b 297 111 446 139 382 111 b 99 174 218 111 163 131 l 11 69 b 304 -21 86 14 179 -21 b 632 214 490 -21 632 56 b 439 393 632 322 564 374 b 594 554 546 419 594 472 l 594 574 l 667 614 l 667 606 b 875 431 675 497 746 431 b 1044 482 953 431 1007 456 z "},"ɘ":{"ha":767,"x_min":0,"x_max":0,"o":"m 382 756 b 58 385 179 756 58 617 b 61 313 58 361 60 332 l 524 313 b 351 114 511 163 449 114 b 160 179 276 114 224 135 l 85 78 b 357 -21 157 19 246 -21 b 707 363 583 -21 707 131 b 382 756 707 596 604 756 z m 233 436 b 379 629 233 557 279 629 b 524 428 474 629 515 581 l 233 428 z "},"ʃ":{"ha":435,"x_min":0,"x_max":0,"o":"m 367 1049 b 128 811 215 1049 128 958 l 128 -75 b 46 -168 128 -140 96 -168 b -54 -139 1 -168 -22 -157 l -118 -246 b 61 -303 -78 -276 -21 -303 b 306 -60 208 -303 306 -221 l 306 819 b 386 914 306 886 335 914 b 483 885 426 914 451 903 l 542 996 b 367 1049 501 1022 446 1049 z "},"ʆ":{"ha":469,"x_min":0,"x_max":0,"o":"m 421 914 b 519 885 461 914 488 903 l 576 996 b 401 1049 538 1022 481 1049 b 164 811 250 1049 164 958 l 164 24 b 94 26 144 25 122 26 b -118 -146 -35 26 -118 -35 b 72 -303 -118 -240 -47 -303 b 331 -101 214 -303 301 -237 b 453 -144 375 -114 414 -128 l 489 -64 b 342 -8 440 -40 396 -24 b 343 17 343 0 343 8 l 342 735 l 342 819 b 421 914 342 886 371 914 z m 67 -200 b -1 -139 22 -200 -1 -179 b 94 -67 -1 -92 32 -67 b 164 -74 124 -67 146 -69 b 67 -200 158 -160 132 -200 z "},"ƪ":{"ha":521,"x_min":0,"x_max":0,"o":"m 576 -139 b 476 -168 543 -157 519 -168 b 393 -75 425 -168 393 -140 l 393 815 b 157 1049 393 958 301 1049 b -69 831 22 1049 -69 960 b 138 617 -69 703 19 617 b 215 632 167 617 192 624 l 215 -60 b 460 -303 215 -221 313 -303 b 639 -246 542 -303 599 -276 z m 165 746 b 93 835 117 746 93 772 b 154 919 93 889 113 919 b 215 838 193 919 215 893 l 215 753 b 165 746 197 749 181 746 z "},"ʅ":{"ha":644,"x_min":0,"x_max":0,"o":"m 228 528 l 228 283 l 406 283 l 406 518 b 168 756 406 667 319 756 b -7 703 89 756 32 731 l 50 592 b 149 621 82 610 108 621 b 228 528 199 621 228 593 z m 589 143 b 489 114 557 125 532 114 b 406 207 438 114 406 142 l 406 283 l 228 283 l 228 222 b 474 -21 228 61 326 -21 b 653 36 556 -21 613 6 z "},"ɇ":{"ha":767,"x_min":0,"x_max":0,"o":"m 706 315 b 710 385 707 335 710 361 b 511 735 710 565 639 689 l 532 814 l 465 831 l 444 751 b 386 756 426 754 407 756 b 60 363 178 756 60 586 b 244 14 60 196 124 71 l 218 -83 l 286 -100 l 311 -10 b 410 -21 340 -17 374 -21 b 682 78 521 -21 610 19 l 608 179 b 425 114 544 135 490 114 b 347 126 396 114 371 118 l 399 315 z m 390 632 b 413 631 397 632 406 632 l 356 425 l 235 425 b 390 632 244 574 297 632 z m 546 433 l 546 425 l 428 425 l 478 610 b 546 433 525 579 546 517 z m 286 167 b 235 315 258 199 240 246 l 326 315 z "},"ẽ":{"ha":767,"x_min":0,"x_max":0,"o":"m 311 960 b 471 894 358 960 393 894 b 638 1038 543 894 601 951 l 543 1085 b 469 1025 518 1044 499 1025 b 308 1089 421 1025 390 1089 b 142 944 231 1089 175 1024 l 238 897 b 311 960 260 938 278 960 z m 710 385 b 386 756 710 617 592 756 b 60 363 178 756 60 586 b 410 -21 60 131 182 -21 b 682 78 521 -21 610 19 l 608 179 b 425 114 544 135 490 114 b 244 313 328 114 258 163 l 706 313 b 710 385 707 332 710 361 z m 533 428 l 244 428 b 390 629 254 574 307 629 b 533 436 490 629 533 557 z "},"ǝ":{"ha":775,"x_min":0,"x_max":0,"o":"m 378 756 b 110 664 267 756 179 721 l 186 558 b 372 624 249 607 306 624 b 538 424 472 624 529 563 l 61 424 b 58 350 58 401 58 374 b 382 -21 58 117 186 -21 b 715 368 593 -21 715 139 b 378 756 715 600 610 756 z m 382 110 b 228 297 285 110 229 179 l 228 308 l 538 308 b 382 110 531 163 475 110 z "},"ʒ":{"ha":690,"x_min":0,"x_max":0,"o":"m 344 292 l 618 608 l 618 735 l 40 735 l 40 597 l 417 597 l 158 290 l 158 178 l 278 178 b 471 19 411 178 471 135 b 294 -164 471 -103 404 -164 b 89 -75 211 -164 153 -136 l -10 -168 b 303 -303 64 -253 161 -303 b 657 11 522 -303 657 -172 b 344 292 657 193 543 285 z "},"ǯ":{"ha":690,"x_min":0,"x_max":0,"o":"m 385 860 l 578 1033 l 510 1111 l 329 989 l 149 1111 l 81 1033 l 274 860 z m 344 292 l 618 608 l 618 735 l 40 735 l 40 597 l 417 597 l 158 290 l 158 178 l 278 178 b 471 19 411 178 471 135 b 294 -164 471 -103 404 -164 b 89 -75 211 -164 153 -136 l -10 -168 b 303 -303 64 -253 161 -303 b 657 11 522 -303 657 -172 b 344 292 657 193 543 285 z "},"ʓ":{"ha":690,"x_min":0,"x_max":0,"o":"m 657 13 b 343 296 657 197 543 290 l 618 608 l 618 735 l 40 735 l 40 597 l 418 597 l 158 294 l 158 183 l 278 183 b 471 19 411 183 471 140 b 360 -151 471 -71 439 -128 b 131 61 296 6 239 61 b -40 -103 32 61 -40 -1 b 260 -303 -40 -231 64 -303 b 314 -300 278 -303 296 -301 l 357 -396 l 457 -357 l 422 -282 b 657 13 579 -239 657 -129 z m 92 -96 b 144 -46 92 -64 111 -46 b 254 -164 188 -46 213 -72 b 92 -96 133 -164 92 -144 z "},"ƹ":{"ha":690,"x_min":0,"x_max":0,"o":"m 604 -78 b 393 -164 538 -137 478 -164 b 218 6 285 -164 218 -103 b 413 178 218 124 279 178 l 532 178 l 532 288 l 274 597 l 650 597 l 650 735 l 72 735 l 72 608 l 346 292 b 32 -1 149 285 32 181 b 385 -303 32 -174 169 -303 b 699 -168 526 -303 624 -253 z "},"ƺ":{"ha":682,"x_min":0,"x_max":0,"o":"m 243 -304 l 293 -200 b 208 -119 239 -174 208 -149 b 372 -47 208 -85 238 -68 b 650 188 526 -25 650 38 b 401 383 650 313 556 383 l 347 383 l 606 614 l 606 735 l 32 735 l 32 603 l 396 603 l 154 379 l 154 272 l 350 272 b 464 192 425 272 464 247 b 274 75 464 119 404 94 b 39 -100 114 50 39 -1 b 243 -304 39 -192 115 -258 z "},"f":{"ha":482,"x_min":0,"x_max":0,"o":"m 404 914 b 525 886 439 914 481 907 l 576 1006 b 386 1049 519 1032 460 1049 b 128 815 217 1049 128 949 l 128 735 l 8 735 l 8 607 l 128 607 l 128 0 l 306 0 l 306 607 l 463 607 l 482 735 l 306 735 l 306 813 b 404 914 306 882 332 914 z "},"ḟ":{"ha":482,"x_min":0,"x_max":0,"o":"m 365 1135 b 478 1242 432 1135 478 1182 b 365 1350 478 1303 432 1350 b 254 1242 300 1350 254 1303 b 365 1135 254 1182 300 1135 z m 404 914 b 525 886 439 914 481 907 l 576 1006 b 386 1049 519 1032 460 1049 b 128 815 217 1049 128 949 l 128 735 l 8 735 l 8 607 l 128 607 l 128 0 l 306 0 l 306 607 l 463 607 l 482 735 l 306 735 l 306 813 b 404 914 306 882 332 914 z "},"ʩ":{"ha":1219,"x_min":0,"x_max":0,"o":"m 911 756 b 688 639 818 756 744 713 l 674 735 l 579 735 l 306 735 l 306 813 b 404 914 306 882 332 914 b 525 886 439 914 481 907 l 576 1006 b 386 1049 519 1032 460 1049 b 128 815 217 1049 128 949 l 128 735 l 8 735 l 8 607 l 128 607 l 128 0 l 306 0 l 306 607 l 519 607 l 519 0 l 697 0 l 697 511 b 851 622 740 579 788 622 b 942 504 907 622 942 596 l 942 -75 b 858 -168 942 -140 910 -168 b 758 -139 815 -168 790 -157 l 696 -246 b 875 -303 735 -276 792 -303 b 1119 -60 1021 -303 1119 -221 l 1119 532 b 911 756 1119 672 1043 756 z "},"g":{"ha":746,"x_min":0,"x_max":0,"o":"m 701 838 b 358 756 613 790 532 751 b 54 492 181 756 54 651 b 183 285 54 397 93 332 b 97 149 129 251 97 200 b 307 7 97 72 160 7 l 418 7 b 543 -81 500 7 543 -26 b 358 -178 543 -139 501 -178 b 181 -72 213 -178 181 -146 l 21 -72 b 356 -303 21 -219 94 -303 b 722 -68 596 -303 722 -215 b 454 140 722 53 617 140 l 342 140 b 253 192 268 140 253 165 b 283 246 253 214 265 233 b 371 235 311 238 339 235 b 667 482 556 235 667 339 b 533 671 667 574 622 631 b 746 696 621 671 690 676 z m 361 635 b 494 496 450 635 494 589 b 364 350 494 403 449 350 b 233 494 282 350 233 406 b 361 635 233 579 281 635 z "},"ǵ":{"ha":746,"x_min":0,"x_max":0,"o":"m 478 1139 l 186 965 l 236 875 l 550 1000 z m 701 838 b 358 756 613 790 532 751 b 54 492 181 756 54 651 b 183 285 54 397 93 332 b 97 149 129 251 97 200 b 307 7 97 72 160 7 l 418 7 b 543 -81 500 7 543 -26 b 358 -178 543 -139 501 -178 b 181 -72 213 -178 181 -146 l 21 -72 b 356 -303 21 -219 94 -303 b 722 -68 596 -303 722 -215 b 454 140 722 53 617 140 l 342 140 b 253 192 268 140 253 165 b 283 246 253 214 265 233 b 371 235 311 238 339 235 b 667 482 556 235 667 339 b 533 671 667 574 622 631 b 746 696 621 671 690 676 z m 361 635 b 494 496 450 635 494 589 b 364 350 494 403 449 350 b 233 494 282 350 233 406 b 361 635 233 579 281 635 z "},"ɣ":{"ha":703,"x_min":0,"x_max":0,"o":"m 701 735 l 518 735 l 354 217 l 192 735 l 3 735 l 265 101 b 172 -149 201 -10 172 -78 b 354 -303 172 -242 231 -303 b 538 -149 478 -303 538 -242 b 444 103 538 -67 506 1 z m 397 -139 b 354 -185 397 -168 382 -185 b 313 -140 328 -185 313 -168 b 354 -4 313 -97 331 -57 b 397 -139 379 -57 397 -96 z "},"ğ":{"ha":746,"x_min":0,"x_max":0,"o":"m 371 885 b 599 1100 501 885 588 975 l 493 1119 b 371 1013 476 1051 435 1013 b 250 1119 307 1013 268 1051 l 146 1100 b 371 885 157 975 240 885 z m 701 838 b 358 756 613 790 532 751 b 54 492 181 756 54 651 b 183 285 54 397 93 332 b 97 149 129 251 97 200 b 307 7 97 72 160 7 l 418 7 b 543 -81 500 7 543 -26 b 358 -178 543 -139 501 -178 b 181 -72 213 -178 181 -146 l 21 -72 b 356 -303 21 -219 94 -303 b 722 -68 596 -303 722 -215 b 454 140 722 53 617 140 l 342 140 b 253 192 268 140 253 165 b 283 246 253 214 265 233 b 371 235 311 238 339 235 b 667 482 556 235 667 339 b 533 671 667 574 622 631 b 746 696 621 671 690 676 z m 361 635 b 494 496 450 635 494 589 b 364 350 494 403 449 350 b 233 494 282 350 233 406 b 361 635 233 579 281 635 z "},"ǧ":{"ha":746,"x_min":0,"x_max":0,"o":"m 554 1111 l 374 989 l 193 1111 l 125 1033 l 318 860 l 429 860 l 622 1033 z m 701 838 b 358 756 613 790 532 751 b 54 492 181 756 54 651 b 183 285 54 397 93 332 b 97 149 129 251 97 200 b 307 7 97 72 160 7 l 418 7 b 543 -81 500 7 543 -26 b 358 -178 543 -139 501 -178 b 181 -72 213 -178 181 -146 l 21 -72 b 356 -303 21 -219 94 -303 b 722 -68 596 -303 722 -215 b 454 140 722 53 617 140 l 342 140 b 253 192 268 140 253 165 b 283 246 253 214 265 233 b 371 235 311 238 339 235 b 667 482 556 235 667 339 b 533 671 667 574 622 631 b 746 696 621 671 690 676 z m 361 635 b 494 496 450 635 494 589 b 364 350 494 403 449 350 b 233 494 282 350 233 406 b 361 635 233 579 281 635 z "},"ĝ":{"ha":746,"x_min":0,"x_max":0,"o":"m 193 871 l 374 993 l 554 871 l 622 947 l 429 1122 l 317 1122 l 125 947 z m 701 838 b 358 756 613 790 532 751 b 54 492 181 756 54 651 b 183 285 54 397 93 332 b 97 149 129 251 97 200 b 307 7 97 72 160 7 l 418 7 b 543 -81 500 7 543 -26 b 358 -178 543 -139 501 -178 b 181 -72 213 -178 181 -146 l 21 -72 b 356 -303 21 -219 94 -303 b 722 -68 596 -303 722 -215 b 454 140 722 53 617 140 l 342 140 b 253 192 268 140 253 165 b 283 246 253 214 265 233 b 371 235 311 238 339 235 b 667 482 556 235 667 339 b 533 671 667 574 622 631 b 746 696 621 671 690 676 z m 361 635 b 494 496 450 635 494 589 b 364 350 494 403 449 350 b 233 494 282 350 233 406 b 361 635 233 579 281 635 z "},"ģ":{"ha":746,"x_min":0,"x_max":0,"o":"m 371 806 b 468 900 426 806 468 847 b 428 978 468 933 451 960 l 467 1139 l 374 1139 l 313 1013 b 275 900 285 956 275 931 b 371 806 275 846 317 806 z m 701 838 b 358 756 613 790 532 751 b 54 492 181 756 54 651 b 183 285 54 397 93 332 b 97 149 129 251 97 200 b 307 7 97 72 160 7 l 418 7 b 543 -81 500 7 543 -26 b 358 -178 543 -139 501 -178 b 181 -72 213 -178 181 -146 l 21 -72 b 356 -303 21 -219 94 -303 b 722 -68 596 -303 722 -215 b 454 140 722 53 617 140 l 342 140 b 253 192 268 140 253 165 b 283 246 253 214 265 233 b 371 235 311 238 339 235 b 667 482 556 235 667 339 b 533 671 667 574 622 631 b 746 696 621 671 690 676 z m 361 635 b 494 496 450 635 494 589 b 364 350 494 403 449 350 b 233 494 282 350 233 406 b 361 635 233 579 281 635 z "},"ġ":{"ha":746,"x_min":0,"x_max":0,"o":"m 372 1107 b 261 999 307 1107 261 1060 b 372 892 261 939 307 892 b 485 999 439 892 485 939 b 372 1107 485 1060 439 1107 z m 701 838 b 358 756 613 790 532 751 b 54 492 181 756 54 651 b 183 285 54 397 93 332 b 97 149 129 251 97 200 b 307 7 97 72 160 7 l 418 7 b 543 -81 500 7 543 -26 b 358 -178 543 -139 501 -178 b 181 -72 213 -178 181 -146 l 21 -72 b 356 -303 21 -219 94 -303 b 722 -68 596 -303 722 -215 b 454 140 722 53 617 140 l 342 140 b 253 192 268 140 253 165 b 283 246 253 214 265 233 b 371 235 311 238 339 235 b 667 482 556 235 667 339 b 533 671 667 574 622 631 b 746 696 621 671 690 676 z m 361 635 b 494 496 450 635 494 589 b 364 350 494 403 449 350 b 233 494 282 350 233 406 b 361 635 233 579 281 635 z "},"ɠ":{"ha":832,"x_min":0,"x_max":0,"o":"m 785 1049 b 547 811 633 1049 547 958 l 547 676 b 365 756 499 725 439 756 b 67 381 179 756 67 593 b 346 7 67 161 163 7 b 547 108 435 7 503 49 l 547 -7 b 376 -168 547 -118 501 -168 b 196 -124 296 -168 240 -147 l 139 -237 b 390 -303 186 -268 265 -303 b 725 14 608 -303 725 -197 l 725 819 b 804 914 725 886 754 914 b 903 885 844 914 871 903 l 960 996 b 785 1049 921 1022 864 1049 z m 396 142 b 254 382 308 142 254 207 b 408 622 254 544 315 622 b 547 544 467 622 508 593 l 547 236 b 396 142 506 174 461 142 z "},"ƾ":{"ha":713,"x_min":0,"x_max":0,"o":"m 426 603 l 388 610 l 388 746 l 529 746 l 529 860 l 388 860 l 388 1046 l 210 1028 l 210 860 l 107 860 l 107 746 l 210 746 l 210 542 l 296 522 b 467 304 410 493 467 431 b 303 115 467 186 411 115 b 114 197 231 115 174 143 l 22 104 b 321 -19 108 22 200 -19 b 651 301 521 -19 651 113 b 426 603 651 486 546 571 z "},"ʔ":{"ha":640,"x_min":0,"x_max":0,"o":"m 182 0 l 360 0 l 360 419 l 383 428 b 610 728 501 468 610 540 b 281 1049 610 919 483 1049 b -18 925 158 1049 67 1007 l 72 832 b 261 914 133 886 189 914 b 425 725 369 914 425 843 b 253 508 425 596 358 540 l 182 488 z "},"ʖ":{"ha":713,"x_min":0,"x_max":0,"o":"m 210 1028 l 210 542 l 296 522 b 467 304 410 493 467 431 b 303 115 467 186 411 115 b 114 197 231 115 174 143 l 22 104 b 321 -19 108 22 200 -19 b 651 301 521 -19 651 113 b 426 603 651 486 546 571 l 388 610 l 388 1046 z "},"ʕ":{"ha":642,"x_min":0,"x_max":0,"o":"m 460 0 l 460 488 l 389 508 b 215 724 282 540 215 596 b 383 914 215 843 278 914 b 569 832 457 914 510 885 l 660 925 b 367 1049 576 1006 486 1049 b 31 728 167 1049 31 919 b 258 428 31 540 139 468 l 282 419 l 282 0 z "},"ɂ":{"ha":629,"x_min":0,"x_max":0,"o":"m 160 0 l 338 0 l 338 210 l 375 219 b 583 475 489 253 583 322 b 274 756 583 633 463 756 b 0 644 154 756 74 714 l 89 549 b 260 617 142 590 185 617 b 396 472 346 617 396 556 b 244 301 396 376 339 326 l 160 278 z "},"ʡ":{"ha":640,"x_min":0,"x_max":0,"o":"m 383 428 b 610 728 501 468 610 540 b 281 1049 610 919 483 1049 b -18 925 158 1049 67 1007 l 72 832 b 261 914 133 886 189 914 b 425 725 369 914 425 843 b 253 508 425 596 358 540 l 182 488 l 182 304 l 89 304 l 89 190 l 182 190 l 182 0 l 360 0 l 360 190 l 501 190 l 501 304 l 360 304 l 360 419 z "},"ʢ":{"ha":642,"x_min":0,"x_max":0,"o":"m 383 914 b 569 832 457 914 510 885 l 660 925 b 367 1049 576 1006 486 1049 b 31 728 167 1049 31 919 b 258 428 31 540 139 468 l 282 419 l 282 304 l 140 304 l 140 190 l 282 190 l 282 0 l 460 0 l 460 190 l 553 190 l 553 304 l 460 304 l 460 488 l 389 508 b 215 724 282 540 215 596 b 383 914 215 843 278 914 z "},"ɡ":{"ha":832,"x_min":0,"x_max":0,"o":"m 571 735 l 560 663 b 365 756 510 718 444 756 b 67 381 179 756 67 593 b 346 7 67 161 163 7 b 547 108 435 7 503 49 l 547 -7 b 376 -168 547 -118 501 -168 b 196 -124 296 -168 240 -147 l 139 -237 b 390 -303 186 -268 265 -303 b 725 14 608 -303 725 -197 l 725 735 z m 396 142 b 254 382 308 142 254 207 b 408 622 254 544 315 622 b 547 544 467 622 508 593 l 547 236 b 396 142 506 174 461 142 z "},"ǥ":{"ha":746,"x_min":0,"x_max":0,"o":"m 790 -28 l 718 -28 b 454 143 697 74 599 143 l 342 143 b 253 192 268 143 253 165 b 283 246 253 214 265 233 b 371 235 311 238 339 235 b 667 482 556 235 667 339 b 533 671 667 574 622 631 b 746 696 621 671 690 676 l 701 838 b 358 756 613 790 532 751 b 54 492 181 756 54 651 b 183 285 54 397 93 332 b 97 153 129 251 97 204 b 307 21 97 81 160 21 l 418 21 b 553 -28 483 21 531 6 l 371 -28 l 371 -122 l 556 -122 b 358 -182 533 -162 472 -182 b 181 -72 213 -182 181 -150 l 21 -72 b 356 -303 21 -219 94 -303 b 715 -122 565 -303 688 -236 l 790 -122 z m 361 635 b 494 496 450 635 494 589 b 364 350 494 403 449 350 b 233 494 282 350 233 406 b 361 635 233 579 281 635 z "},"h":{"ha":807,"x_min":0,"x_max":0,"o":"m 499 756 b 285 646 411 756 340 715 l 285 1046 l 107 1028 l 107 0 l 285 0 l 285 513 b 439 622 328 579 376 622 b 529 504 493 622 529 596 l 529 0 l 707 0 l 707 532 b 499 756 707 671 629 756 z "},"ħ":{"ha":818,"x_min":0,"x_max":0,"o":"m 510 756 b 294 646 421 756 350 717 l 294 835 l 492 835 l 492 949 l 294 949 l 294 1046 l 117 1028 l 117 949 l 24 949 l 24 835 l 117 835 l 117 0 l 294 0 l 294 513 b 449 622 338 579 386 622 b 540 504 503 622 540 596 l 540 0 l 718 0 l 718 532 b 510 756 718 671 639 756 z "},"ȟ":{"ha":807,"x_min":0,"x_max":0,"o":"m 458 1113 l 651 1279 l 583 1357 l 403 1242 l 222 1357 l 154 1279 l 347 1113 z m 499 756 b 285 646 411 756 340 715 l 285 1046 l 107 1028 l 107 0 l 285 0 l 285 513 b 439 622 328 579 376 622 b 529 504 493 622 529 596 l 529 0 l 707 0 l 707 532 b 499 756 707 671 629 756 z "},"ĥ":{"ha":807,"x_min":0,"x_max":0,"o":"m 401 1233 l 582 1119 l 650 1196 l 457 1364 l 346 1364 l 153 1196 l 221 1119 z m 499 756 b 285 646 411 756 340 715 l 285 1046 l 107 1028 l 107 0 l 285 0 l 285 513 b 439 622 328 579 376 622 b 529 504 493 622 529 596 l 529 0 l 707 0 l 707 532 b 499 756 707 671 629 756 z "},"ḥ":{"ha":807,"x_min":0,"x_max":0,"o":"m 499 756 b 285 646 411 756 340 715 l 285 1046 l 107 1028 l 107 0 l 285 0 l 285 513 b 439 622 328 579 376 622 b 529 504 493 622 529 596 l 529 0 l 707 0 l 707 532 b 499 756 707 671 629 756 z m 408 -92 b 296 -199 342 -92 296 -139 b 408 -307 296 -260 342 -307 b 519 -199 474 -307 519 -260 b 408 -92 519 -139 474 -92 z "},"ɧ":{"ha":807,"x_min":0,"x_max":0,"o":"m 707 532 b 499 756 707 671 629 756 b 285 646 411 756 340 715 l 285 813 b 382 914 285 882 311 914 b 503 886 417 914 458 907 l 554 1006 b 365 1049 499 1032 438 1049 b 107 815 194 1049 107 949 l 107 0 l 285 0 l 285 513 b 439 622 328 579 376 622 b 529 504 493 622 529 596 l 529 -75 b 446 -168 529 -140 497 -168 b 346 -139 403 -168 379 -157 l 283 -246 b 463 -303 324 -276 381 -303 b 707 -60 610 -303 707 -221 z "},"ɦ":{"ha":807,"x_min":0,"x_max":0,"o":"m 499 756 b 285 646 411 756 340 715 l 285 813 b 382 914 285 882 311 914 b 503 886 417 914 458 907 l 554 1006 b 365 1049 499 1032 438 1049 b 107 815 194 1049 107 949 l 107 0 l 285 0 l 285 513 b 439 622 328 579 376 622 b 529 504 493 622 529 596 l 529 0 l 707 0 l 707 532 b 499 756 707 671 629 756 z "},"ɥ":{"ha":807,"x_min":0,"x_max":0,"o":"m 522 735 l 522 222 b 369 114 479 156 431 114 b 278 232 315 114 278 139 l 278 735 l 100 735 l 100 203 b 308 -21 100 64 178 -21 b 522 89 397 -21 467 19 l 522 -283 l 700 -303 l 700 735 z "},"ƕ":{"ha":1218,"x_min":0,"x_max":0,"o":"m 1103 735 l 926 735 b 963 364 951 601 963 474 b 810 114 963 172 881 114 b 707 246 744 114 707 154 l 707 532 b 499 756 707 671 629 756 b 285 646 411 756 340 715 l 285 1046 l 107 1028 l 107 0 l 285 0 l 285 513 b 439 622 328 579 376 622 b 529 504 493 622 529 596 l 529 240 b 799 -21 529 63 653 -21 b 1142 349 967 -21 1142 86 b 1103 735 1142 497 1125 618 z "},"i":{"ha":392,"x_min":0,"x_max":0,"o":"m 194 1107 b 83 999 129 1107 83 1060 b 194 892 83 939 129 892 b 307 999 261 892 307 939 b 194 1107 307 1060 261 1107 z m 285 735 l 107 735 l 107 0 l 285 0 z "},"ı":{"ha":392,"x_min":0,"x_max":0,"o":"m 285 735 l 107 735 l 107 0 l 285 0 z "},"í":{"ha":392,"x_min":0,"x_max":0,"o":"m 301 1139 l 10 965 l 60 875 l 374 1000 z m 285 735 l 107 735 l 107 0 l 285 0 z "},"ĭ":{"ha":392,"x_min":0,"x_max":0,"o":"m 194 885 b 422 1100 325 885 411 975 l 317 1119 b 194 1013 300 1051 258 1013 b 74 1119 131 1013 92 1051 l -31 1100 b 194 885 -19 975 64 885 z m 285 735 l 107 735 l 107 0 l 285 0 z "},"ǐ":{"ha":392,"x_min":0,"x_max":0,"o":"m 376 1111 l 196 989 l 15 1111 l -53 1033 l 140 860 l 251 860 l 444 1033 z m 285 735 l 107 735 l 107 0 l 285 0 z "},"î":{"ha":392,"x_min":0,"x_max":0,"o":"m 15 871 l 196 993 l 376 871 l 444 947 l 251 1122 l 139 1122 l -53 947 z m 285 735 l 107 735 l 107 0 l 285 0 z "},"ȉ":{"ha":392,"x_min":0,"x_max":0,"o":"m 32 1176 l -97 1110 l 63 874 l 160 918 z m 261 1176 l 131 1113 l 276 881 l 376 922 z m 285 735 l 107 735 l 107 0 l 285 0 z "},"ï":{"ha":392,"x_min":0,"x_max":0,"o":"m 42 1090 b -56 994 -12 1090 -56 1049 b 42 899 -56 940 -12 899 b 139 994 97 899 139 940 b 42 1090 139 1049 97 1090 z m 349 1090 b 253 994 296 1090 253 1049 b 349 899 253 940 296 899 b 447 994 406 899 447 940 b 349 1090 447 1049 406 1090 z m 285 735 l 107 735 l 107 0 l 285 0 z "},"ḯ":{"ha":392,"x_min":0,"x_max":0,"o":"m 300 1283 l 126 1063 l 196 1000 l 401 1186 z m 38 1042 b -61 946 -19 1042 -61 999 b 38 849 -61 892 -19 849 b 133 946 90 849 133 892 b 38 1042 133 999 90 1042 z m 354 1042 b 257 946 299 1042 257 999 b 354 849 257 892 299 849 b 451 946 408 849 451 892 b 354 1042 451 999 408 1042 z m 285 735 l 107 735 l 107 0 l 285 0 z "},"ị":{"ha":392,"x_min":0,"x_max":0,"o":"m 194 1107 b 83 999 129 1107 83 1060 b 194 892 83 939 129 892 b 307 999 261 892 307 939 b 194 1107 307 1060 261 1107 z m 285 735 l 107 735 l 107 0 l 285 0 z m 196 -307 b 307 -199 261 -307 307 -260 b 196 -92 307 -139 261 -92 b 83 -199 129 -92 83 -139 b 196 -307 83 -260 129 -307 z "},"ì":{"ha":392,"x_min":0,"x_max":0,"o":"m 100 1139 l 28 1000 l 340 875 l 392 965 z m 285 735 l 107 735 l 107 0 l 285 0 z "},"ỉ":{"ha":392,"x_min":0,"x_max":0,"o":"m 135 844 l 249 844 l 249 921 b 364 1046 321 933 364 975 b 201 1179 364 1126 307 1179 b 60 1144 140 1179 96 1165 l 93 1061 b 175 1081 119 1074 143 1081 b 233 1035 210 1081 233 1067 b 135 979 233 994 200 985 z m 285 735 l 107 735 l 107 0 l 285 0 z "},"ȋ":{"ha":392,"x_min":0,"x_max":0,"o":"m 194 1078 b -31 863 64 1078 -19 988 l 74 843 b 194 950 92 911 131 950 b 317 843 258 950 300 911 l 422 863 b 194 1078 411 988 325 1078 z m 285 735 l 107 735 l 107 0 l 285 0 z "},"ĳ":{"ha":782,"x_min":0,"x_max":0,"o":"m 194 1107 b 83 999 129 1107 83 1060 b 194 892 83 939 129 892 b 307 999 261 892 307 939 b 194 1107 307 1060 261 1107 z m 586 1107 b 475 999 521 1107 475 1060 b 586 892 475 939 521 892 b 699 999 653 892 699 939 b 586 1107 699 1060 653 1107 z m 285 735 l 107 735 l 107 0 l 285 0 z m 675 735 l 497 735 l 497 54 b 350 -172 497 -90 446 -128 l 407 -301 b 675 65 572 -235 675 -160 z "},"ī":{"ha":392,"x_min":0,"x_max":0,"o":"m 397 918 l 397 1044 l -7 1044 l -7 918 z m 285 735 l 107 735 l 107 0 l 285 0 z "},"į":{"ha":392,"x_min":0,"x_max":0,"o":"m 194 892 b 307 999 261 892 307 939 b 194 1107 307 1060 261 1107 b 83 999 129 1107 83 1060 b 194 892 83 939 129 892 z m 107 11 b -39 -181 13 -36 -39 -97 b 151 -332 -39 -271 39 -332 b 244 -322 189 -332 215 -328 l 258 -204 b 174 -214 226 -211 201 -214 b 99 -150 121 -214 99 -192 b 265 0 99 -106 126 -56 l 285 0 l 285 735 l 107 735 z "},"ɩ":{"ha":410,"x_min":0,"x_max":0,"o":"m 281 -21 b 399 4 326 -21 368 -10 l 361 129 b 319 122 347 125 335 122 b 278 174 290 122 278 139 l 278 735 l 100 735 l 100 168 b 281 -21 100 47 168 -21 z "},"ɨ":{"ha":447,"x_min":0,"x_max":0,"o":"m 222 892 b 335 999 289 892 335 939 b 222 1107 335 1060 289 1107 b 111 999 157 1107 111 1060 b 222 892 111 939 157 892 z m 433 456 l 313 456 l 313 735 l 135 735 l 135 456 l 14 456 l 14 328 l 135 328 l 135 0 l 313 0 l 313 328 l 433 328 z "},"ĩ":{"ha":392,"x_min":0,"x_max":0,"o":"m 276 894 b 443 1038 349 894 407 951 l 349 1085 b 275 1025 324 1044 304 1025 b 114 1089 226 1025 196 1089 b -53 944 36 1089 -19 1024 l 43 897 b 117 960 65 938 83 960 b 276 894 164 960 199 894 z m 285 735 l 107 735 l 107 0 l 285 0 z "},"j":{"ha":390,"x_min":0,"x_max":0,"o":"m 194 1107 b 83 999 129 1107 83 1060 b 194 892 83 939 129 892 b 307 999 261 892 307 939 b 194 1107 307 1060 261 1107 z m 283 735 l 106 735 l 106 54 b -42 -172 106 -90 54 -128 l 15 -301 b 283 65 181 -235 283 -160 z "},"ȷ":{"ha":390,"x_min":0,"x_max":0,"o":"m 283 735 l 106 735 l 106 54 b -42 -172 106 -90 54 -128 l 15 -301 b 283 65 181 -235 283 -160 z "},"ǰ":{"ha":390,"x_min":0,"x_max":0,"o":"m 375 1111 l 194 989 l 14 1111 l -54 1033 l 139 860 l 250 860 l 443 1033 z m 283 735 l 106 735 l 106 54 b -42 -172 106 -90 54 -128 l 15 -301 b 283 65 181 -235 283 -160 z "},"ĵ":{"ha":390,"x_min":0,"x_max":0,"o":"m 14 871 l 194 993 l 375 871 l 443 947 l 250 1122 l 138 1122 l -54 947 z m 283 735 l 106 735 l 106 54 b -42 -172 106 -90 54 -128 l 15 -301 b 283 65 181 -235 283 -160 z "},"ʝ":{"ha":447,"x_min":0,"x_max":0,"o":"m 253 892 b 365 999 319 892 365 939 b 253 1107 365 1060 319 1107 b 142 999 188 1107 142 1060 b 253 892 142 939 188 892 z m 489 -64 b 342 -8 440 -40 396 -24 b 343 17 343 0 343 8 l 343 735 l 165 735 l 165 24 b 94 26 146 25 122 26 b -118 -146 -35 26 -118 -35 b 72 -303 -118 -240 -47 -303 b 331 -101 214 -303 301 -237 b 453 -144 375 -114 414 -128 z m 67 -200 b -1 -139 22 -200 -1 -179 b 94 -67 -1 -92 32 -67 b 164 -74 124 -67 146 -69 b 67 -200 158 -160 132 -200 z "},"ɟ":{"ha":449,"x_min":0,"x_max":0,"o":"m 435 418 l 314 418 l 314 735 l 136 735 l 136 418 l 15 418 l 15 290 l 136 290 l 136 54 b -10 -172 136 -90 85 -128 l 47 -301 b 314 65 211 -235 314 -160 l 314 290 l 435 290 z "},"ʄ":{"ha":449,"x_min":0,"x_max":0,"o":"m 393 914 b 492 885 435 914 460 903 l 549 996 b 374 1049 510 1022 454 1049 b 136 811 222 1049 136 958 l 136 128 l 13 128 l 13 0 l 135 0 b -8 -178 128 -103 78 -140 l 47 -301 b 311 0 194 -242 292 -175 l 433 0 l 433 128 l 314 128 l 314 819 b 393 914 314 886 343 914 z "},"ɉ":{"ha":449,"x_min":0,"x_max":0,"o":"m 225 892 b 338 999 292 892 338 939 b 225 1107 338 1060 292 1107 b 114 999 160 1107 114 1060 b 225 892 114 939 160 892 z m 435 418 l 314 418 l 314 735 l 136 735 l 136 418 l 15 418 l 15 290 l 136 290 l 136 54 b -10 -172 136 -90 85 -128 l 47 -301 b 314 65 211 -235 314 -160 l 314 290 l 435 290 z "},"k":{"ha":742,"x_min":0,"x_max":0,"o":"m 285 1049 l 107 1029 l 107 0 l 285 0 z m 725 735 l 538 735 l 292 401 l 544 0 l 749 0 l 481 411 z "},"ǩ":{"ha":742,"x_min":0,"x_max":0,"o":"m 582 1357 l 401 1242 l 221 1357 l 153 1279 l 346 1113 l 457 1113 l 650 1279 z m 285 1049 l 107 1029 l 107 0 l 285 0 z m 725 735 l 538 735 l 292 401 l 544 0 l 749 0 l 481 411 z "},"ķ":{"ha":742,"x_min":0,"x_max":0,"o":"m 285 1049 l 107 1029 l 107 0 l 285 0 z m 725 735 l 538 735 l 292 401 l 544 0 l 749 0 l 481 411 z m 372 -100 b 275 -194 317 -100 275 -142 b 315 -272 275 -228 292 -254 l 276 -433 l 369 -433 l 431 -307 b 468 -194 458 -250 468 -225 b 372 -100 468 -140 426 -100 z "},"ĸ":{"ha":739,"x_min":0,"x_max":0,"o":"m 285 735 l 107 735 l 107 0 l 285 0 z m 722 735 l 535 735 l 289 388 l 542 0 l 746 0 l 478 397 z "},"ƙ":{"ha":742,"x_min":0,"x_max":0,"o":"m 382 914 b 503 886 417 914 458 907 l 554 1006 b 365 1049 499 1032 438 1049 b 107 815 194 1049 107 949 l 107 0 l 285 0 l 285 813 b 382 914 285 882 311 914 z m 481 411 l 725 735 l 538 735 l 292 401 l 544 0 l 749 0 z "},"ʞ":{"ha":742,"x_min":0,"x_max":0,"o":"m 17 0 l 204 0 l 449 333 l 197 735 l -7 735 l 261 324 z m 457 -283 l 635 -303 l 635 735 l 457 735 z "},"l":{"ha":410,"x_min":0,"x_max":0,"o":"m 281 -21 b 399 4 326 -21 368 -10 l 361 129 b 319 122 349 125 336 122 b 278 174 290 122 278 139 l 278 1049 l 100 1029 l 100 168 b 281 -21 100 47 168 -21 z "},"ĺ":{"ha":410,"x_min":0,"x_max":0,"o":"m 300 1368 l 7 1206 l 53 1114 l 371 1229 z m 281 -21 b 399 4 326 -21 368 -10 l 361 129 b 319 122 349 125 336 122 b 278 174 290 122 278 139 l 278 1049 l 100 1029 l 100 168 b 281 -21 100 47 168 -21 z "},"ƛ":{"ha":710,"x_min":0,"x_max":0,"o":"m 503 644 b 400 903 475 761 443 843 l 492 988 l 408 1074 l 313 983 b 113 1049 261 1017 196 1036 l 90 926 b 208 893 139 919 178 910 l 101 793 l 207 732 l 290 808 b 332 685 307 776 319 736 l 242 685 l 18 21 l 193 -21 l 354 563 b 564 -21 418 244 469 118 l 733 39 b 503 644 633 167 585 293 z "},"ƚ":{"ha":453,"x_min":0,"x_max":0,"o":"m 396 129 b 356 122 385 125 371 122 b 314 174 325 122 314 139 l 314 453 l 433 453 l 433 581 l 314 581 l 314 1049 l 136 1029 l 136 581 l 14 581 l 14 453 l 136 453 l 136 168 b 315 -21 136 47 204 -21 b 435 4 363 -21 404 -10 z "},"ɬ":{"ha":554,"x_min":0,"x_max":0,"o":"m 472 129 b 431 122 460 125 447 122 b 389 174 401 122 389 139 l 389 347 b 507 367 428 350 471 358 l 490 464 b 389 449 457 457 425 451 l 389 1049 l 211 1029 l 211 654 b 164 660 200 657 183 660 b 0 508 74 660 0 606 b 211 343 0 411 68 347 l 211 168 b 392 -21 211 47 279 -21 b 510 4 438 -21 479 -10 z m 125 510 b 176 561 125 543 144 561 b 211 557 192 561 200 560 l 211 447 b 125 510 157 447 125 467 z "},"ľ":{"ha":464,"x_min":0,"x_max":0,"o":"m 281 -21 b 399 4 326 -21 368 -10 l 361 129 b 319 122 349 125 336 122 b 278 174 290 122 278 139 l 278 1049 l 100 1029 l 100 168 b 281 -21 100 47 168 -21 z m 365 1047 l 336 764 l 435 749 l 508 1028 z "},"ḽ":{"ha":410,"x_min":0,"x_max":0,"o":"m 281 -21 b 399 4 326 -21 368 -10 l 361 129 b 319 122 349 125 336 122 b 278 174 290 122 278 139 l 278 1049 l 100 1029 l 100 168 b 281 -21 100 47 168 -21 z m 71 -343 l 251 -221 l 432 -343 l 500 -265 l 307 -90 l 194 -90 l 3 -265 z "},"ļ":{"ha":410,"x_min":0,"x_max":0,"o":"m 281 -21 b 399 4 326 -21 368 -10 l 361 129 b 319 122 349 125 336 122 b 278 174 290 122 278 139 l 278 1049 l 100 1029 l 100 168 b 281 -21 100 47 168 -21 z m 254 -100 b 157 -194 199 -100 157 -142 b 197 -272 157 -228 174 -254 l 158 -433 l 251 -433 l 313 -307 b 350 -194 340 -250 350 -225 b 254 -100 350 -140 308 -100 z "},"ȴ":{"ha":615,"x_min":0,"x_max":0,"o":"m 474 328 b 283 176 381 328 326 276 b 278 232 279 190 278 210 l 278 1049 l 100 1029 l 100 242 b 208 22 100 129 146 61 l 164 -72 l 260 -111 l 304 -12 b 381 -21 329 -18 356 -21 b 635 175 526 -21 635 47 b 474 328 635 269 567 328 z m 399 115 b 361 117 385 115 372 115 b 457 221 397 197 419 221 b 500 178 485 221 500 204 b 399 115 500 136 467 115 z "},"ŀ":{"ha":544,"x_min":0,"x_max":0,"o":"m 281 -21 b 399 4 326 -21 368 -10 l 361 129 b 319 122 349 125 336 122 b 278 174 290 122 278 139 l 278 1049 l 100 1029 l 100 168 b 281 -21 100 47 168 -21 z m 457 632 b 346 524 392 632 346 585 b 457 417 346 464 392 417 b 569 524 524 417 569 464 b 457 632 569 585 524 632 z "},"ḷ":{"ha":410,"x_min":0,"x_max":0,"o":"m 281 -21 b 399 4 326 -21 368 -10 l 361 129 b 319 122 349 125 336 122 b 278 174 290 122 278 139 l 278 1049 l 100 1029 l 100 168 b 281 -21 100 47 168 -21 z m 251 -307 b 363 -199 317 -307 363 -260 b 251 -92 363 -139 317 -92 b 139 -199 185 -92 139 -139 b 251 -307 139 -260 185 -307 z "},"ɮ":{"ha":953,"x_min":0,"x_max":0,"o":"m 608 292 l 882 608 l 882 735 l 278 735 l 278 1049 l 100 1029 l 100 168 b 281 -21 100 47 168 -21 b 399 4 326 -21 368 -10 l 361 129 b 319 122 349 125 336 122 b 278 174 290 122 278 139 l 278 597 l 681 597 l 421 290 l 421 178 l 542 178 b 735 17 675 178 735 135 b 557 -164 735 -103 668 -164 b 367 -92 481 -164 426 -140 l 279 -193 b 567 -303 350 -262 442 -303 b 921 8 786 -303 921 -172 b 608 292 921 193 807 285 z "},"ɭ":{"ha":392,"x_min":0,"x_max":0,"o":"m 468 -139 b 368 -168 436 -157 411 -168 b 285 -75 317 -168 285 -140 l 285 1049 l 107 1029 l 107 -60 b 351 -303 107 -221 206 -303 b 531 -246 435 -303 492 -276 z "},"ǉ":{"ha":814,"x_min":0,"x_max":0,"o":"m 618 1107 b 507 999 553 1107 507 1060 b 618 892 507 939 553 892 b 731 999 685 892 731 939 b 618 1107 731 1060 685 1107 z m 281 -21 b 399 4 326 -21 368 -10 l 361 129 b 319 122 349 125 336 122 b 278 174 290 122 278 139 l 278 1049 l 100 1029 l 100 168 b 281 -21 100 47 168 -21 z m 707 735 l 529 735 l 529 54 b 382 -172 529 -90 478 -128 l 439 -301 b 707 65 604 -235 707 -160 z "},"ɫ":{"ha":592,"x_min":0,"x_max":0,"o":"m 400 397 b 606 549 510 397 569 476 l 508 599 b 408 532 485 564 457 532 b 375 539 397 532 386 535 l 375 1049 l 197 1029 l 197 617 l 185 617 b -24 460 74 617 13 532 l 75 408 b 176 482 99 444 126 482 b 197 479 183 482 190 481 l 197 168 b 376 -21 197 47 265 -21 b 496 4 424 -21 465 -10 l 457 129 b 417 122 446 125 432 122 b 375 174 386 122 375 139 l 375 399 b 400 397 383 397 392 397 z "},"ʪ":{"ha":942,"x_min":0,"x_max":0,"o":"m 493 -21 b 904 224 753 -21 904 63 b 696 444 904 332 842 399 b 556 549 582 481 556 504 b 654 624 556 594 594 624 b 825 568 713 624 765 606 l 890 669 b 649 756 822 725 740 756 b 383 540 492 756 383 664 b 588 321 383 432 429 371 b 729 211 713 283 729 256 b 493 114 729 146 660 114 b 278 279 342 114 278 161 l 278 1049 l 100 1029 l 100 285 b 493 -21 100 99 208 -21 z "},"ł":{"ha":468,"x_min":0,"x_max":0,"o":"m 344 122 b 303 174 315 122 303 139 l 303 501 l 471 604 l 411 707 l 303 642 l 303 1049 l 125 1029 l 125 535 l 0 456 l 61 354 l 125 393 l 125 168 b 306 -21 125 47 193 -21 b 424 4 351 -21 393 -10 l 386 129 b 344 122 374 125 361 122 z "},"ʫ":{"ha":957,"x_min":0,"x_max":0,"o":"m 925 139 l 558 139 l 919 607 l 919 735 l 390 735 l 390 596 l 715 596 l 360 129 b 319 122 349 125 335 122 b 278 174 290 122 278 139 l 278 1049 l 100 1029 l 100 168 b 281 -21 100 47 168 -21 b 388 0 321 -21 357 -12 l 907 0 z "},"m":{"ha":1181,"x_min":0,"x_max":0,"o":"m 886 756 b 667 632 789 756 722 710 b 488 756 638 711 572 756 b 275 639 394 756 328 713 l 261 735 l 107 735 l 107 0 l 285 0 l 285 511 b 425 622 325 579 363 622 b 506 504 468 622 506 596 l 506 0 l 683 0 l 683 511 b 822 622 724 579 761 622 b 903 504 867 622 903 596 l 903 0 l 1081 0 l 1081 532 b 886 756 1081 671 1003 756 z "},"ḿ":{"ha":1181,"x_min":0,"x_max":0,"o":"m 768 1000 l 696 1139 l 404 965 l 454 875 z m 886 756 b 667 632 789 756 722 710 b 488 756 638 711 572 756 b 275 639 394 756 328 713 l 261 735 l 107 735 l 107 0 l 285 0 l 285 511 b 425 622 325 579 363 622 b 506 504 468 622 506 596 l 506 0 l 683 0 l 683 511 b 822 622 724 579 761 622 b 903 504 867 622 903 596 l 903 0 l 1081 0 l 1081 532 b 886 756 1081 671 1003 756 z "},"ṁ":{"ha":1181,"x_min":0,"x_max":0,"o":"m 590 892 b 703 999 657 892 703 939 b 590 1107 703 1060 657 1107 b 479 999 525 1107 479 1060 b 590 892 479 939 525 892 z m 886 756 b 667 632 789 756 722 710 b 488 756 638 711 572 756 b 275 639 394 756 328 713 l 261 735 l 107 735 l 107 0 l 285 0 l 285 511 b 425 622 325 579 363 622 b 506 504 468 622 506 596 l 506 0 l 683 0 l 683 511 b 822 622 724 579 761 622 b 903 504 867 622 903 596 l 903 0 l 1081 0 l 1081 532 b 886 756 1081 671 1003 756 z "},"ɱ":{"ha":1181,"x_min":0,"x_max":0,"o":"m 1081 532 b 886 756 1081 671 1003 756 b 667 632 789 756 722 710 b 488 756 638 711 572 756 b 275 639 394 756 328 713 l 261 735 l 107 735 l 107 0 l 285 0 l 285 511 b 425 622 325 579 363 622 b 506 504 468 622 506 596 l 506 0 l 683 0 l 683 511 b 822 622 724 579 761 622 b 903 504 867 622 903 596 l 903 -75 b 819 -168 903 -140 871 -168 b 719 -139 776 -168 751 -157 l 657 -246 b 836 -303 696 -276 753 -303 b 1081 -60 982 -303 1081 -221 z "},"ɰ":{"ha":1181,"x_min":0,"x_max":0,"o":"m 1074 -303 l 1074 735 l 896 735 l 896 224 b 756 113 856 156 818 113 b 675 231 713 113 675 139 l 675 735 l 497 735 l 497 224 b 358 113 457 156 419 113 b 278 231 314 113 278 139 l 278 735 l 100 735 l 100 203 b 294 -21 100 64 178 -21 b 515 103 392 -21 460 26 b 693 -21 543 25 607 -21 b 896 82 781 -21 844 17 l 896 -283 z "},"ɯ":{"ha":1181,"x_min":0,"x_max":0,"o":"m 896 735 l 896 224 b 757 114 857 156 818 114 b 676 232 713 114 676 139 l 676 735 l 499 735 l 499 224 b 358 114 457 156 419 114 b 278 232 315 114 278 139 l 278 735 l 100 735 l 100 203 b 296 -21 100 64 179 -21 b 515 103 392 -21 458 25 b 693 -21 543 24 608 -21 b 906 96 786 -21 853 24 l 919 0 l 1074 0 l 1074 735 z "},"n":{"ha":807,"x_min":0,"x_max":0,"o":"m 499 756 b 275 638 406 756 332 711 l 261 735 l 107 735 l 107 0 l 285 0 l 285 511 b 439 622 328 579 375 622 b 529 504 494 622 529 596 l 529 0 l 707 0 l 707 532 b 499 756 707 672 631 756 z "},"ń":{"ha":807,"x_min":0,"x_max":0,"o":"m 588 1000 l 515 1139 l 224 965 l 274 875 z m 499 756 b 275 638 406 756 332 711 l 261 735 l 107 735 l 107 0 l 285 0 l 285 511 b 439 622 328 579 375 622 b 529 504 494 622 529 596 l 529 0 l 707 0 l 707 532 b 499 756 707 672 631 756 z "},"ŉ":{"ha":971,"x_min":0,"x_max":0,"o":"m 143 1051 b 53 964 93 1051 53 1013 b 90 892 53 933 69 910 l 54 742 l 139 742 l 196 858 b 231 964 222 913 231 936 b 143 1051 231 1014 193 1051 z m 663 756 b 438 638 568 756 494 711 l 424 735 l 269 735 l 269 0 l 447 0 l 447 511 b 603 622 490 579 539 622 b 693 504 658 622 693 596 l 693 0 l 871 0 l 871 532 b 663 756 871 672 793 756 z "},"ň":{"ha":807,"x_min":0,"x_max":0,"o":"m 467 860 l 660 1033 l 592 1111 l 411 989 l 231 1111 l 163 1033 l 356 860 z m 499 756 b 275 638 406 756 332 711 l 261 735 l 107 735 l 107 0 l 285 0 l 285 511 b 439 622 328 579 375 622 b 529 504 494 622 529 596 l 529 0 l 707 0 l 707 532 b 499 756 707 672 631 756 z "},"ṋ":{"ha":807,"x_min":0,"x_max":0,"o":"m 499 756 b 275 638 406 756 332 711 l 261 735 l 107 735 l 107 0 l 285 0 l 285 511 b 439 622 328 579 375 622 b 529 504 494 622 529 596 l 529 0 l 707 0 l 707 532 b 499 756 707 672 631 756 z m 347 -90 l 156 -265 l 224 -343 l 404 -221 l 585 -343 l 653 -265 l 460 -90 z "},"ņ":{"ha":807,"x_min":0,"x_max":0,"o":"m 499 756 b 275 638 406 756 332 711 l 261 735 l 107 735 l 107 0 l 285 0 l 285 511 b 439 622 328 579 375 622 b 529 504 494 622 529 596 l 529 0 l 707 0 l 707 532 b 499 756 707 672 631 756 z m 407 -100 b 310 -194 351 -100 310 -142 b 350 -272 310 -228 326 -254 l 311 -433 l 404 -433 l 465 -307 b 503 -194 493 -250 503 -225 b 407 -100 503 -140 461 -100 z "},"ȵ":{"ha":1046,"x_min":0,"x_max":0,"o":"m 903 328 b 713 176 810 328 757 276 b 707 232 708 190 707 210 l 707 532 b 499 756 707 672 631 756 b 275 638 406 756 332 711 l 261 735 l 107 735 l 107 0 l 285 0 l 285 511 b 439 622 328 579 375 622 b 529 504 494 622 529 596 l 529 242 b 639 22 529 129 575 61 l 593 -72 l 690 -111 l 733 -12 b 811 -21 760 -18 785 -21 b 1064 175 956 -21 1064 47 b 903 328 1064 269 996 328 z m 828 115 b 790 117 814 115 801 115 b 886 221 828 197 850 221 b 929 178 914 221 929 204 b 828 115 929 136 896 115 z "},"ṅ":{"ha":807,"x_min":0,"x_max":0,"o":"m 410 892 b 522 999 476 892 522 939 b 410 1107 522 1060 476 1107 b 299 999 344 1107 299 1060 b 410 892 299 939 344 892 z m 499 756 b 275 638 406 756 332 711 l 261 735 l 107 735 l 107 0 l 285 0 l 285 511 b 439 622 328 579 375 622 b 529 504 494 622 529 596 l 529 0 l 707 0 l 707 532 b 499 756 707 672 631 756 z "},"ṇ":{"ha":807,"x_min":0,"x_max":0,"o":"m 499 756 b 275 638 406 756 332 711 l 261 735 l 107 735 l 107 0 l 285 0 l 285 511 b 439 622 328 579 375 622 b 529 504 494 622 529 596 l 529 0 l 707 0 l 707 532 b 499 756 707 672 631 756 z m 404 -92 b 292 -199 338 -92 292 -139 b 404 -307 292 -260 338 -307 b 515 -199 469 -307 515 -260 b 404 -92 515 -139 469 -92 z "},"ǹ":{"ha":807,"x_min":0,"x_max":0,"o":"m 607 965 l 315 1139 l 243 1000 l 556 875 z m 499 756 b 275 638 406 756 332 711 l 261 735 l 107 735 l 107 0 l 285 0 l 285 511 b 439 622 328 579 375 622 b 529 504 494 622 529 596 l 529 0 l 707 0 l 707 532 b 499 756 707 672 631 756 z "},"ŋ":{"ha":807,"x_min":0,"x_max":0,"o":"m 707 532 b 499 756 707 672 631 756 b 275 638 406 756 332 711 l 261 735 l 107 735 l 107 0 l 285 0 l 285 511 b 439 622 328 579 375 622 b 529 504 494 622 529 596 l 529 -75 b 446 -168 529 -140 497 -168 b 346 -139 403 -168 378 -157 l 283 -246 b 463 -303 322 -276 379 -303 b 707 -60 608 -303 707 -221 z "},"ɲ":{"ha":807,"x_min":0,"x_max":0,"o":"m 499 756 b 275 638 406 756 332 711 l 261 735 l 107 735 l 107 -75 b 24 -168 107 -140 75 -168 b -76 -139 -19 -168 -44 -157 l -139 -246 b 40 -303 -100 -276 -43 -303 b 285 -60 186 -303 285 -221 l 285 511 b 439 622 328 579 375 622 b 529 504 494 622 529 596 l 529 0 l 707 0 l 707 532 b 499 756 707 672 631 756 z "},"ɳ":{"ha":807,"x_min":0,"x_max":0,"o":"m 890 -139 b 790 -168 858 -157 833 -168 b 707 -75 739 -168 707 -140 l 707 532 b 499 756 707 672 631 756 b 275 638 406 756 332 711 l 261 735 l 107 735 l 107 0 l 285 0 l 285 511 b 439 622 328 579 375 622 b 529 504 494 622 529 596 l 529 -60 b 774 -303 529 -221 628 -303 b 953 -246 857 -303 914 -276 z "},"ǌ":{"ha":1197,"x_min":0,"x_max":0,"o":"m 1001 892 b 1114 999 1068 892 1114 939 b 1001 1107 1114 1060 1068 1107 b 890 999 936 1107 890 1060 b 1001 892 890 939 936 892 z m 499 756 b 275 638 406 756 332 711 l 261 735 l 107 735 l 107 0 l 285 0 l 285 511 b 439 622 328 579 375 622 b 529 504 494 622 529 596 l 529 0 l 707 0 l 707 532 b 499 756 707 672 631 756 z m 913 54 b 765 -172 913 -90 861 -128 l 822 -301 b 1090 65 988 -235 1090 -160 l 1090 735 l 913 735 z "},"ƞ":{"ha":807,"x_min":0,"x_max":0,"o":"m 499 756 b 275 638 406 756 332 711 l 261 735 l 107 735 l 107 0 l 285 0 l 285 511 b 439 622 328 579 375 622 b 529 504 494 622 529 596 l 529 -283 l 707 -303 l 707 532 b 499 756 707 672 631 756 z "},"ñ":{"ha":807,"x_min":0,"x_max":0,"o":"m 332 960 b 492 894 379 960 414 894 b 658 1038 564 894 622 951 l 564 1085 b 490 1025 539 1044 519 1025 b 329 1089 442 1025 411 1089 b 163 944 251 1089 196 1024 l 258 897 b 332 960 281 938 299 960 z m 499 756 b 275 638 406 756 332 711 l 261 735 l 107 735 l 107 0 l 285 0 l 285 511 b 439 622 328 579 375 622 b 529 504 494 622 529 596 l 529 0 l 707 0 l 707 532 b 499 756 707 672 631 756 z "},"o":{"ha":811,"x_min":0,"x_max":0,"o":"m 407 756 b 60 368 189 756 60 599 b 406 -21 60 126 189 -21 b 751 368 622 -21 751 136 b 407 756 751 608 624 756 z m 407 621 b 564 368 510 621 564 543 b 406 114 564 193 510 114 b 247 368 301 114 247 192 b 407 621 247 542 303 621 z "},"ó":{"ha":811,"x_min":0,"x_max":0,"o":"m 511 1139 l 219 965 l 269 875 l 583 1000 z m 407 756 b 60 368 189 756 60 599 b 406 -21 60 126 189 -21 b 751 368 622 -21 751 136 b 407 756 751 608 624 756 z m 407 621 b 564 368 510 621 564 543 b 406 114 564 193 510 114 b 247 368 301 114 247 192 b 407 621 247 542 303 621 z "},"ɵ":{"ha":811,"x_min":0,"x_max":0,"o":"m 407 756 b 60 368 189 756 60 599 b 406 -21 60 126 189 -21 b 751 368 622 -21 751 136 b 407 756 751 608 624 756 z m 407 621 b 565 429 500 621 553 561 l 246 429 b 407 621 258 561 313 621 z m 406 114 b 244 318 308 114 254 178 l 567 318 b 406 114 557 178 503 114 z "},"ŏ":{"ha":811,"x_min":0,"x_max":0,"o":"m 404 885 b 632 1100 535 885 621 975 l 526 1119 b 404 1013 510 1051 468 1013 b 283 1119 340 1013 301 1051 l 179 1100 b 404 885 190 975 274 885 z m 407 756 b 60 368 189 756 60 599 b 406 -21 60 126 189 -21 b 751 368 622 -21 751 136 b 407 756 751 608 624 756 z m 407 621 b 564 368 510 621 564 543 b 406 114 564 193 510 114 b 247 368 301 114 247 192 b 407 621 247 542 303 621 z "},"ǒ":{"ha":811,"x_min":0,"x_max":0,"o":"m 586 1111 l 406 989 l 225 1111 l 157 1033 l 350 860 l 461 860 l 654 1033 z m 407 756 b 60 368 189 756 60 599 b 406 -21 60 126 189 -21 b 751 368 622 -21 751 136 b 407 756 751 608 624 756 z m 407 621 b 564 368 510 621 564 543 b 406 114 564 193 510 114 b 247 368 301 114 247 192 b 407 621 247 542 303 621 z "},"ô":{"ha":811,"x_min":0,"x_max":0,"o":"m 225 871 l 406 993 l 586 871 l 654 947 l 461 1122 l 349 1122 l 157 947 z m 407 756 b 60 368 189 756 60 599 b 406 -21 60 126 189 -21 b 751 368 622 -21 751 136 b 407 756 751 608 624 756 z m 407 621 b 564 368 510 621 564 543 b 406 114 564 193 510 114 b 247 368 301 114 247 192 b 407 621 247 542 303 621 z "},"ố":{"ha":811,"x_min":0,"x_max":0,"o":"m 711 1288 l 538 1067 l 607 1004 l 813 1190 z m 582 815 l 650 892 l 457 1060 l 346 1060 l 153 892 l 221 815 l 401 929 z m 407 756 b 60 368 189 756 60 599 b 406 -21 60 126 189 -21 b 751 368 622 -21 751 136 b 407 756 751 608 624 756 z m 407 621 b 564 368 510 621 564 543 b 406 114 564 193 510 114 b 247 368 301 114 247 192 b 407 621 247 542 303 621 z "},"ộ":{"ha":811,"x_min":0,"x_max":0,"o":"m 225 871 l 406 993 l 586 871 l 654 947 l 461 1122 l 349 1122 l 157 947 z m 407 756 b 60 368 189 756 60 599 b 406 -21 60 126 189 -21 b 751 368 622 -21 751 136 b 407 756 751 608 624 756 z m 407 621 b 564 368 510 621 564 543 b 406 114 564 193 510 114 b 247 368 301 114 247 192 b 407 621 247 542 303 621 z m 406 -307 b 517 -199 471 -307 517 -260 b 406 -92 517 -139 471 -92 b 293 -199 339 -92 293 -139 b 406 -307 293 -260 339 -307 z "},"ồ":{"ha":811,"x_min":0,"x_max":0,"o":"m 92 1288 l -8 1190 l 197 1004 l 267 1067 z m 582 815 l 650 892 l 457 1060 l 346 1060 l 153 892 l 221 815 l 401 929 z m 407 756 b 60 368 189 756 60 599 b 406 -21 60 126 189 -21 b 751 368 622 -21 751 136 b 407 756 751 608 624 756 z m 407 621 b 564 368 510 621 564 543 b 406 114 564 193 510 114 b 247 368 301 114 247 192 b 407 621 247 542 303 621 z "},"ổ":{"ha":811,"x_min":0,"x_max":0,"o":"m 553 1024 l 667 1024 l 667 1100 b 782 1225 739 1113 782 1154 b 619 1358 782 1306 725 1358 b 478 1324 558 1358 514 1344 l 511 1240 b 593 1260 538 1253 561 1260 b 651 1214 628 1260 651 1246 b 553 1158 651 1174 618 1164 z m 582 815 l 650 892 l 457 1060 l 346 1060 l 153 892 l 221 815 l 401 929 z m 407 756 b 60 368 189 756 60 599 b 406 -21 60 126 189 -21 b 751 368 622 -21 751 136 b 407 756 751 608 624 756 z m 407 621 b 564 368 510 621 564 543 b 406 114 564 193 510 114 b 247 368 301 114 247 192 b 407 621 247 542 303 621 z "},"ỗ":{"ha":811,"x_min":0,"x_max":0,"o":"m 483 1089 b 650 1226 556 1089 614 1143 l 556 1272 b 482 1213 531 1232 511 1213 b 321 1275 433 1213 403 1275 b 154 1135 243 1275 188 1213 l 250 1090 b 324 1150 272 1129 290 1150 b 483 1089 371 1150 406 1089 z m 582 806 l 650 882 l 457 1050 l 346 1050 l 153 882 l 221 806 l 401 919 z m 407 756 b 60 368 189 756 60 599 b 406 -21 60 126 189 -21 b 751 368 622 -21 751 136 b 407 756 751 608 624 756 z m 407 621 b 564 368 510 621 564 543 b 406 114 564 193 510 114 b 247 368 301 114 247 192 b 407 621 247 542 303 621 z "},"ȍ":{"ha":811,"x_min":0,"x_max":0,"o":"m 242 1176 l 113 1110 l 272 874 l 369 918 z m 471 1176 l 340 1113 l 486 881 l 586 922 z m 407 756 b 60 368 189 756 60 599 b 406 -21 60 126 189 -21 b 751 368 622 -21 751 136 b 407 756 751 608 624 756 z m 407 621 b 564 368 510 621 564 543 b 406 114 564 193 510 114 b 247 368 301 114 247 192 b 407 621 247 542 303 621 z "}}}
